{"glyphs":{"0":{"ha":684,"x_min":105,"x_max":587,"o":"m 346 197 q 410 210 380 197 q 461 245 439 223 q 497 297 484 267 q 509 360 509 326 q 497 424 509 394 q 461 475 484 453 q 410 510 439 497 q 346 523 380 523 q 283 510 313 523 q 231 475 253 497 q 196 424 209 453 q 183 360 183 394 q 196 297 183 326 q 231 245 209 267 q 283 210 253 223 q 346 197 313 197 m 346 601 q 440 582 396 601 q 516 530 484 563 q 568 454 549 497 q 587 360 587 410 q 568 267 587 311 q 516 190 549 223 q 440 138 484 157 q 346 119 396 119 q 252 138 296 119 q 176 190 208 157 q 124 267 143 223 q 105 360 105 311 q 124 454 105 410 q 176 530 143 497 q 252 582 208 563 q 346 601 296 601 z "},"1":{"ha":394,"x_min":97,"x_max":263,"o":"m 182 0 q 183 46 182 22 q 184 97 183 70 q 185 264 185 174 q 178 456 186 355 q 152 666 170 557 q 97 890 133 775 l 170 913 q 225 695 204 807 q 255 461 246 584 q 263 264 263 355 q 261 95 263 172 q 260 45 261 69 q 260 0 260 21 l 182 0 z "},"2":{"ha":725,"x_min":86,"x_max":641,"o":"m 600 914 q 608 890 601 912 q 622 836 614 868 q 635 769 629 805 q 641 702 641 733 q 628 611 641 653 q 588 538 614 569 q 523 490 562 508 q 435 472 485 472 q 330 497 379 472 q 236 570 280 521 q 253 407 247 483 q 261 261 259 331 q 262 127 263 191 q 261 -1 262 62 l 184 -1 q 184 173 184 82 q 179 364 184 264 q 157 574 173 464 q 109 807 141 685 q 98 847 104 827 q 86 888 92 867 l 160 911 q 173 868 167 890 q 184 826 179 847 q 193 799 186 821 q 215 745 201 776 q 250 680 229 715 q 298 617 271 646 q 359 569 325 588 q 435 550 393 550 q 530 590 497 550 q 564 702 564 629 q 558 761 564 729 q 545 822 552 794 q 532 870 538 850 q 527 890 527 890 l 600 914 l 600 914 z "},"3":{"ha":921,"x_min":61,"x_max":827,"o":"m 789 914 q 793 902 790 912 q 800 875 796 891 q 809 836 804 858 q 818 792 814 815 q 824 746 822 770 q 827 703 827 723 q 820 625 827 665 q 795 550 813 584 q 745 495 777 516 q 667 473 714 473 q 564 506 607 473 q 495 592 521 539 q 472 547 486 568 q 439 510 458 527 q 396 484 420 494 q 347 470 373 473 q 281 476 311 467 q 219 506 251 485 q 230 383 226 443 q 235 269 234 324 q 236 165 236 215 q 235 73 236 116 q 235 35 235 53 q 235 0 235 16 l 157 0 q 157 35 157 17 q 158 73 157 54 q 158 238 158 146 q 148 435 157 330 q 119 654 140 539 q 61 890 99 770 l 134 914 q 154 847 145 878 q 172 781 163 816 q 182 741 176 763 q 195 698 188 720 q 211 655 202 676 q 230 614 220 633 q 259 575 245 589 q 288 554 274 561 q 314 547 301 548 q 336 547 326 546 q 363 554 350 549 q 390 569 377 558 q 414 599 403 580 q 431 650 424 619 q 439 705 437 676 q 441 768 441 735 q 438 833 440 800 q 432 897 436 866 l 510 905 q 517 836 513 871 q 527 768 521 801 q 539 705 532 735 q 556 648 546 674 q 582 596 568 616 q 610 567 596 577 q 639 554 625 557 q 667 551 653 551 q 710 566 694 551 q 735 604 727 581 q 747 654 744 628 q 749 703 749 681 q 744 762 749 729 q 732 824 739 795 q 721 872 726 852 q 715 892 715 891 l 789 914 l 789 914 z "},"4":{"ha":862,"x_min":66,"x_max":801,"o":"m 801 468 q 757 459 778 463 q 711 451 735 455 q 659 444 688 447 q 596 439 631 441 q 496 438 547 437 q 395 446 444 438 q 300 471 345 453 q 218 521 254 489 q 236 270 234 386 q 237 62 239 154 l 237 0 l 160 0 l 160 63 q 159 194 160 122 q 154 346 158 266 q 140 511 149 426 q 113 679 130 595 q 105 716 109 696 q 95 761 100 736 q 82 817 89 785 q 66 888 74 848 l 141 912 q 170 800 157 852 q 195 695 182 747 q 224 626 204 655 q 278 574 244 596 q 325 549 301 559 q 376 532 350 539 q 314 709 314 598 q 333 797 314 755 q 388 872 352 839 q 465 921 422 905 q 551 938 507 938 q 598 933 576 938 q 641 920 620 929 q 683 900 662 912 q 729 873 704 888 q 747 862 737 868 q 767 851 756 857 l 728 783 q 707 796 717 790 q 689 807 698 802 q 648 830 666 820 q 615 848 631 841 q 584 858 599 854 q 551 861 568 861 q 494 849 522 861 q 443 818 465 838 q 406 770 420 797 q 391 709 391 742 q 449 571 391 616 q 524 536 482 546 q 610 525 566 526 q 691 528 653 523 q 753 537 729 533 q 773 541 766 540 q 782 543 781 543 l 801 468 l 801 468 z "},"5":{"ha":869,"x_min":57,"x_max":802,"o":"m 728 510 q 802 244 802 371 q 785 140 802 185 q 739 63 768 95 q 672 16 710 32 q 592 0 634 0 q 537 6 561 0 q 494 22 513 12 q 461 45 475 32 q 437 70 447 57 q 376 18 414 37 q 292 -1 339 -1 q 197 18 241 -1 q 123 70 154 37 q 75 148 92 103 q 57 244 57 193 q 71 357 57 301 q 107 467 84 413 q 163 571 131 520 q 232 668 195 622 q 309 754 272 717 q 370 813 345 790 q 315 858 336 842 q 293 874 294 874 l 338 937 q 360 921 340 936 q 412 879 380 906 q 485 814 444 852 q 568 729 525 776 q 728 510 669 619 m 592 78 q 606 79 595 78 q 632 85 617 80 q 664 100 647 90 q 693 129 680 110 q 716 176 707 148 q 725 244 725 203 q 705 365 725 305 q 655 481 686 426 q 586 587 624 537 q 512 676 548 636 q 470 721 491 699 q 429 761 449 742 q 369 704 406 741 q 292 617 331 668 q 237 542 265 584 q 187 453 210 501 q 150 352 164 405 q 135 244 135 299 q 144 182 135 212 q 173 129 153 152 q 222 91 192 105 q 292 76 251 76 q 345 90 324 76 q 379 124 366 103 q 397 174 391 146 q 403 230 402 201 q 403 261 404 247 q 401 287 402 276 q 399 304 400 298 q 398 311 398 311 l 475 324 q 476 315 475 323 q 479 295 477 307 q 480 265 480 282 q 480 229 481 248 q 479 198 480 213 q 475 170 478 184 q 488 132 479 150 q 513 102 498 115 q 548 82 528 89 q 592 78 568 76 z "},"6":{"ha":717,"x_min":73,"x_max":650,"o":"m 650 645 q 533 517 592 588 q 419 362 475 445 q 312 186 364 278 q 217 -4 261 93 l 146 27 q 205 151 174 91 q 267 265 235 211 q 330 366 299 319 q 387 451 360 414 q 304 438 345 438 l 303 438 q 210 457 254 438 q 131 512 165 476 q 86 591 99 545 q 76 684 73 637 q 101 774 80 730 q 157 845 121 817 q 205 875 179 862 q 257 897 230 888 q 313 913 285 907 q 369 923 341 919 l 386 848 q 340 839 364 843 q 293 827 316 834 q 247 810 270 820 q 206 785 225 800 q 170 738 183 766 q 153 679 156 710 q 158 617 150 648 q 188 566 167 587 q 207 548 196 557 q 233 532 218 539 q 265 521 247 525 q 303 516 282 516 l 304 516 q 389 534 350 516 q 464 579 429 552 q 532 639 499 607 q 597 701 564 672 l 650 645 z "},"7":{"ha":862,"x_min":54,"x_max":819,"o":"m 819 856 q 688 660 751 775 q 573 409 625 545 q 532 291 551 349 q 501 180 514 233 q 482 80 489 126 q 475 -1 475 34 l 397 -1 q 390 80 397 34 q 371 180 384 126 q 340 291 358 233 q 299 409 322 349 q 185 660 248 545 q 54 856 122 775 l 114 906 q 252 699 186 819 q 372 437 318 579 q 408 336 391 386 q 436 239 424 286 q 465 336 449 286 q 501 437 481 386 q 621 699 555 579 q 759 906 688 819 l 819 856 z "},"8":{"ha":869,"x_min":54,"x_max":819,"o":"m 759 -6 q 621 200 687 80 q 500 463 554 321 q 464 564 480 514 q 436 661 448 614 q 407 564 423 614 q 371 463 391 514 q 251 200 318 321 q 113 -6 185 80 l 54 44 q 184 240 121 125 q 299 491 247 354 q 339 608 321 550 q 370 720 357 667 q 390 819 383 773 q 396 901 396 866 l 474 901 q 481 819 474 866 q 501 720 488 773 q 532 608 513 667 q 573 491 550 550 q 688 240 624 354 q 819 44 751 125 l 759 -6 z "},"9":{"ha":620,"x_min":54,"x_max":549,"o":"m 427 498 q 426 563 426 530 q 426 631 426 596 q 418 710 426 670 q 393 780 410 749 q 350 831 376 811 q 287 850 324 850 q 223 836 251 850 q 173 796 194 822 q 142 733 153 770 q 131 649 131 695 q 141 589 131 614 q 165 548 150 564 q 199 521 180 531 q 235 506 217 511 q 270 500 254 501 q 295 498 285 498 l 427 498 m 287 928 q 385 904 344 928 q 452 839 426 879 q 491 744 479 798 q 503 631 503 690 q 506 409 503 511 q 515 227 509 307 q 530 90 521 146 q 549 3 539 33 l 477 -24 q 462 27 468 -4 q 450 98 455 59 q 441 180 445 136 q 435 266 437 223 q 431 349 432 309 q 428 420 429 389 l 295 420 q 210 432 253 420 q 132 471 167 444 q 75 541 97 497 q 54 649 54 585 q 68 756 54 705 q 113 845 83 806 q 186 906 142 883 q 287 928 229 928 z "},"\u001d":{"ha":776,"x_min":64,"x_max":711,"o":"m 64 -229 l 64 912 l 711 912 l 711 -229 l 64 -229 m 137 -157 l 639 -157 l 639 839 l 137 839 l 137 -157 z "},"\u0000":{"ha":0,"x_min":0,"x_max":0,"o":""}," ":{"ha":439,"x_min":0,"x_max":0,"o":""},"ء":{"ha":634,"x_min":59,"x_max":566,"o":"m 62 -28 l 59 52 l 247 110 q 239 114 243 112 q 231 118 235 116 q 157 177 188 140 q 112 259 126 214 q 106 337 100 299 q 130 410 111 376 q 179 469 149 444 q 248 506 210 494 q 301 515 275 515 q 354 513 327 516 q 408 504 381 510 q 463 492 435 498 l 445 416 q 393 428 417 422 q 347 436 369 433 q 307 438 326 439 q 271 432 288 437 q 228 411 247 425 q 198 377 210 396 q 183 334 187 358 q 186 282 180 309 q 194 263 189 275 q 208 238 199 251 q 232 211 218 225 q 267 187 246 198 q 468 177 345 145 l 563 203 l 566 124 l 62 -28 z "},"ا":{"ha":303,"x_min":124,"x_max":203,"o":"m 203 0 l 124 0 l 124 901 l 203 901 l 203 0 z "},"ﺎ":{"ha":330,"x_min":102,"x_max":339,"o":"m 330 0 q 210 18 255 0 q 141 70 165 35 q 109 156 117 105 q 102 273 102 206 l 102 901 l 181 901 l 181 273 q 184 176 181 214 q 203 116 188 138 q 248 86 218 95 q 330 78 278 78 l 339 78 l 339 0 l 330 0 l 330 0 z "},"ح":{"ha":915,"x_min":54,"x_max":845,"o":"m 302 684 q 327 681 316 682 q 350 677 337 680 q 382 669 363 674 q 431 651 400 663 q 507 621 461 640 q 621 574 553 602 q 705 538 664 556 q 776 507 745 520 q 826 485 807 493 q 845 476 845 476 l 843 404 q 815 394 842 404 q 736 365 787 384 q 613 319 686 346 q 451 258 541 292 q 392 236 422 247 q 331 212 361 225 q 271 183 301 199 q 216 146 242 167 q 154 68 173 112 q 139 -35 136 25 q 158 -114 141 -79 q 202 -175 174 -149 q 265 -220 229 -201 q 342 -249 302 -238 q 424 -266 382 -261 q 507 -271 467 -271 l 783 -271 l 783 -348 l 507 -348 q 341 -330 420 -348 q 201 -272 262 -311 q 102 -176 140 -234 q 61 -39 65 -117 q 167 206 54 116 q 226 247 195 229 q 290 278 258 264 q 357 306 323 293 q 424 331 391 318 q 521 366 473 349 q 612 397 569 383 q 691 423 655 411 q 753 444 727 435 q 664 482 710 463 q 573 519 618 501 q 484 553 527 537 q 405 581 441 569 q 342 600 369 593 q 302 607 316 607 q 230 575 262 607 q 184 487 198 544 l 109 507 q 135 573 118 542 q 176 628 152 604 q 232 668 200 653 q 302 684 263 682 z "},"ﺣ":{"ha":864,"x_min":-6,"x_max":810,"o":"m 270 539 q 320 531 290 539 q 389 512 351 524 q 469 485 427 500 q 554 452 511 469 q 636 419 596 436 q 709 389 676 403 q 765 365 742 375 q 799 352 789 355 l 810 282 q 694 198 747 236 q 586 128 640 159 q 475 73 533 97 q 348 33 418 49 q 191 8 278 16 q -6 0 105 0 l -6 78 q 163 83 88 77 q 299 101 237 89 q 413 133 360 114 q 515 177 465 152 q 615 236 564 203 q 725 308 666 268 q 635 342 681 324 q 543 377 588 360 q 455 409 497 394 q 376 436 412 424 q 312 454 340 448 q 270 461 285 461 q 198 429 230 461 q 152 342 166 398 l 76 361 q 103 430 86 398 q 145 486 121 462 q 201 524 170 510 q 270 539 232 539 z "},"ﺤ":{"ha":965,"x_min":-4,"x_max":973,"o":"m 973 0 l 927 0 q 881 3 907 0 q 831 13 856 6 q 784 28 806 19 q 748 49 763 37 q 702 102 720 71 q 679 169 685 133 q 592 119 636 142 q 501 76 549 95 q 401 43 454 57 q 287 20 348 29 q 153 5 225 10 q -4 0 81 0 l -4 78 q 167 83 90 78 q 308 101 244 89 q 429 132 373 113 q 538 176 485 150 q 643 233 590 201 q 755 306 696 266 q 665 340 711 322 q 573 375 619 358 q 485 408 528 392 q 407 435 443 424 q 343 454 371 447 q 301 461 316 461 q 229 429 261 461 q 182 342 197 398 l 107 361 q 134 430 117 398 q 176 486 152 462 q 232 524 201 510 q 301 539 263 539 q 351 531 321 539 q 420 512 382 524 q 500 485 458 500 q 585 452 542 469 q 667 419 627 436 q 740 389 706 403 q 796 365 773 375 q 830 352 820 355 l 841 282 q 794 247 817 264 q 749 215 771 231 q 763 156 749 182 q 801 113 777 130 q 857 86 824 95 q 927 78 890 78 l 973 78 l 973 0 z "},"ﺢ":{"ha":994,"x_min":44,"x_max":1008,"o":"m 293 554 q 318 551 307 552 q 341 546 328 549 q 372 538 354 544 q 421 521 391 532 q 498 490 452 509 q 611 443 544 472 q 695 407 655 425 q 767 376 735 390 q 817 354 798 362 q 836 345 836 345 l 833 273 q 806 263 833 273 q 728 234 778 253 l 728 200 q 741 143 728 166 q 773 105 753 119 q 817 84 793 90 q 866 78 842 78 l 1008 78 l 1008 0 l 866 0 q 785 13 823 0 q 718 49 747 25 q 668 115 685 76 q 650 200 650 153 l 650 206 q 555 170 607 189 q 442 128 503 150 q 382 106 413 117 q 321 82 352 95 q 262 53 291 69 q 206 15 232 37 q 145 -62 164 -19 q 129 -165 126 -106 q 148 -245 131 -210 q 192 -306 165 -280 q 256 -350 220 -332 q 332 -380 292 -369 q 415 -396 372 -391 q 497 -402 457 -402 l 774 -402 l 774 -479 l 497 -479 q 331 -460 410 -479 q 191 -403 253 -441 q 93 -306 130 -364 q 52 -169 56 -248 q 158 76 44 -15 q 217 116 186 98 q 281 148 248 133 q 348 175 314 162 q 415 200 381 188 q 512 235 463 218 q 605 265 561 251 q 687 291 650 280 q 750 313 724 303 q 661 350 708 331 q 568 388 615 369 q 478 422 522 406 q 398 450 434 438 q 334 469 361 462 q 292 476 306 476 q 221 444 253 476 q 174 357 189 413 l 99 376 q 125 442 109 411 q 166 498 142 473 q 222 537 191 522 q 293 554 254 552 z "},"د":{"ha":672,"x_min":64,"x_max":634,"o":"m 362 -5 q 265 3 314 -5 q 173 24 216 10 q 98 57 130 39 l 64 77 l 104 144 l 138 124 q 201 97 164 108 q 278 79 237 85 q 360 73 318 73 q 436 79 401 73 q 506 104 478 86 q 545 147 535 121 q 550 197 555 170 q 527 253 545 225 q 443 378 478 326 q 384 467 408 431 q 346 525 360 503 q 324 559 331 547 q 313 575 316 571 q 310 580 310 580 l 289 613 l 355 655 q 366 636 360 646 q 383 610 373 626 q 409 570 393 595 q 450 509 426 546 q 509 420 474 472 q 591 296 544 368 q 628 205 621 251 q 617 117 634 158 q 555 43 598 72 q 449 3 512 13 q 362 -5 410 -5 z "},"ر":{"ha":464,"x_min":-57,"x_max":388,"o":"m -57 -349 l -57 -272 l 30 -272 q 247 -194 179 -272 q 311 21 311 -122 l 311 426 l 388 426 l 388 21 q 298 -256 388 -162 q 30 -349 207 -349 l -57 -349 z "},"ﺮ":{"ha":523,"x_min":-61,"x_max":552,"o":"m 552 0 l 523 0 q 449 11 484 0 q 385 42 414 21 l 385 21 q 295 -256 385 -162 q 27 -349 204 -349 l -61 -349 l -61 -272 l 27 -272 q 244 -194 176 -272 q 307 21 307 -122 l 307 195 l 307 426 l 385 426 l 385 200 q 398 143 385 166 q 430 105 410 119 q 474 84 450 90 q 523 78 499 78 l 552 78 l 552 0 z "},"س":{"ha":1727,"x_min":83,"x_max":1652,"o":"m 1595 506 q 1600 489 1596 504 q 1611 451 1605 474 q 1624 398 1617 427 q 1637 337 1631 368 q 1647 275 1643 306 q 1652 219 1652 244 q 1646 161 1652 187 q 1630 114 1640 134 q 1608 79 1620 94 q 1585 54 1597 64 q 1522 15 1557 28 q 1447 1 1487 1 l 1447 0 q 1271 62 1334 0 q 1262 73 1266 68 q 1253 85 1258 79 q 1239 67 1246 75 q 1224 53 1231 59 q 1158 14 1195 27 q 1080 0 1121 0 q 919 54 977 0 l 919 -32 q 852 -252 919 -175 q 745 -324 811 -301 q 581 -349 677 -349 l 430 -349 q 265 -309 339 -349 q 145 -196 191 -270 q 117 -143 129 -171 q 98 -84 105 -116 q 86 53 83 -20 q 182 395 93 211 l 252 362 q 192 208 213 282 q 164 69 170 134 q 170 -53 159 3 q 210 -155 182 -110 q 303 -241 246 -211 q 430 -271 360 -271 l 581 -271 q 794 -201 733 -271 q 842 -32 842 -146 l 842 426 l 919 426 l 919 287 q 968 115 919 164 q 1014 87 986 96 q 1080 78 1041 78 q 1127 85 1104 78 q 1170 109 1151 93 q 1202 152 1190 126 q 1215 218 1215 179 l 1215 426 l 1292 426 l 1292 218 q 1444 78 1292 80 l 1444 78 q 1490 86 1467 78 q 1531 110 1513 93 q 1562 153 1550 126 q 1574 219 1574 180 q 1570 270 1574 242 q 1560 327 1566 298 q 1548 384 1554 357 q 1535 434 1541 412 q 1525 469 1529 456 q 1521 484 1521 483 l 1595 506 l 1595 506 z "},"ﺳ":{"ha":1122,"x_min":-13,"x_max":1041,"o":"m -13 78 l 106 78 q 153 85 129 78 q 196 109 177 93 q 228 152 216 126 q 241 218 241 179 l 241 426 l 318 426 l 318 218 q 470 78 318 80 q 517 85 493 78 q 560 109 540 93 q 592 152 580 126 q 604 218 604 179 l 604 426 l 682 426 l 682 218 q 833 78 682 80 l 833 78 q 879 86 856 78 q 921 110 902 93 q 951 153 939 126 q 963 219 963 180 q 960 270 963 242 q 950 327 956 298 q 937 384 944 357 q 925 434 931 412 q 915 469 919 456 q 911 484 911 483 l 985 506 q 990 489 985 504 q 1001 451 994 474 q 1014 398 1007 427 q 1027 337 1021 368 q 1037 275 1033 306 q 1041 219 1041 244 q 1035 161 1041 187 q 1019 114 1029 134 q 998 79 1009 94 q 975 54 986 64 q 912 15 947 28 q 836 1 876 1 l 836 0 q 661 62 723 0 q 652 73 656 68 q 643 85 647 79 q 628 67 636 75 q 614 53 621 59 q 546 14 585 27 q 467 0 508 0 q 290 62 352 0 q 280 73 285 68 q 271 85 276 79 q 257 67 265 75 q 242 53 249 59 q 176 14 213 27 q 98 0 140 0 l -13 0 l -13 78 z "},"ﺴ":{"ha":1121,"x_min":-17,"x_max":1136,"o":"m 1102 0 q 1045 5 1073 0 q 992 20 1016 9 q 947 46 967 30 q 914 85 927 62 q 899 67 907 75 q 884 53 891 59 q 820 14 855 27 q 744 0 785 0 q 685 5 711 0 q 637 21 658 11 q 598 48 616 32 q 564 85 580 64 q 490 22 534 44 q 394 0 446 0 q 298 16 337 0 q 229 62 259 32 q 219 73 223 68 q 210 85 215 79 q 196 67 203 75 q 181 53 188 59 q 115 14 152 27 q 37 0 78 0 l -17 0 l -17 78 l 45 78 q 92 85 68 78 q 135 109 116 93 q 167 152 155 126 q 179 218 179 179 l 179 426 l 257 426 l 257 218 q 289 114 257 149 q 397 78 322 78 q 443 85 420 78 q 485 109 467 93 q 515 152 503 126 q 526 218 526 179 l 526 426 l 604 426 l 604 218 q 636 114 604 149 q 744 78 669 78 q 791 85 768 78 q 833 109 814 93 q 863 152 852 126 q 875 218 875 179 l 875 426 l 953 426 l 953 218 q 1103 78 953 80 l 1136 78 l 1136 0 l 1102 0 l 1102 0 z "},"ﺲ":{"ha":1843,"x_min":95,"x_max":1860,"o":"m 1825 0 q 1711 21 1759 1 q 1631 85 1664 40 q 1556 22 1601 44 q 1458 0 1511 0 q 1344 21 1392 0 q 1265 85 1297 42 q 1190 20 1236 39 q 1092 0 1144 0 q 931 54 989 0 l 931 -32 q 864 -252 931 -175 q 756 -324 822 -301 q 592 -349 689 -349 l 441 -349 q 276 -309 350 -349 q 156 -196 202 -270 q 128 -143 140 -171 q 110 -84 117 -116 q 97 53 95 -20 q 193 395 105 211 l 263 362 q 203 208 225 282 q 176 69 181 134 q 182 -53 170 3 q 222 -155 193 -110 q 314 -241 257 -211 q 441 -271 371 -271 l 592 -271 q 805 -201 744 -271 q 853 -32 853 -146 l 853 426 l 931 426 l 931 287 q 979 115 931 164 q 1025 87 997 96 q 1092 78 1052 78 q 1139 85 1115 78 q 1182 109 1162 93 q 1214 152 1201 126 q 1226 218 1226 179 l 1226 426 l 1304 426 l 1304 218 q 1343 114 1304 149 q 1458 78 1383 79 q 1505 85 1482 78 q 1549 109 1529 93 q 1580 152 1568 126 q 1593 218 1593 179 l 1593 426 l 1670 426 l 1670 218 q 1710 114 1670 149 q 1825 78 1749 79 l 1860 78 l 1860 0 l 1825 0 l 1825 0 z "},"ص":{"ha":1763,"x_min":93,"x_max":1677,"o":"m 1447 539 q 1516 527 1484 539 q 1573 492 1547 514 q 1618 441 1598 470 q 1651 379 1638 412 q 1670 309 1664 345 q 1677 238 1677 273 q 1668 164 1677 196 q 1644 107 1658 131 q 1612 67 1630 83 q 1578 40 1595 51 q 1534 19 1556 27 q 1493 7 1513 11 q 1457 1 1473 3 q 1432 0 1441 0 l 1071 0 q 997 11 1032 0 q 934 42 962 21 l 934 -33 q 925 -123 934 -79 q 896 -206 916 -168 q 842 -275 875 -245 q 759 -323 808 -306 q 595 -347 691 -347 l 444 -347 q 277 -307 352 -347 q 155 -193 202 -267 q 107 -74 121 -137 q 96 56 93 -11 q 123 218 99 134 q 191 395 147 302 l 261 361 q 201 209 223 282 q 175 71 180 136 q 181 -51 169 6 q 221 -152 193 -107 q 315 -239 257 -208 q 444 -270 373 -270 l 595 -270 q 713 -258 664 -270 q 794 -217 762 -245 q 841 -143 826 -188 q 856 -33 856 -98 l 856 424 l 934 424 l 934 199 q 953 130 934 157 q 1001 92 973 104 q 1050 170 1027 130 q 1099 251 1074 211 q 1152 330 1124 291 q 1212 407 1179 369 q 1329 507 1271 474 q 1447 539 1387 539 m 1432 78 q 1462 80 1444 78 q 1498 87 1479 81 q 1534 104 1516 93 q 1567 132 1552 114 q 1590 176 1581 150 q 1599 238 1599 202 q 1586 334 1599 292 q 1551 405 1573 376 q 1502 448 1529 433 q 1447 462 1475 462 q 1361 436 1405 462 q 1270 355 1318 409 q 1227 301 1248 330 q 1183 238 1205 272 q 1136 164 1160 203 q 1084 78 1112 124 l 1432 78 z "},"ﺻ":{"ha":1134,"x_min":-7,"x_max":1068,"o":"m 841 541 q 914 528 882 541 q 972 493 947 515 q 1015 441 997 471 q 1045 378 1033 412 q 1063 308 1057 344 q 1068 238 1068 273 q 1059 164 1068 196 q 1037 108 1051 132 q 1006 67 1023 83 q 973 40 989 51 q 932 19 953 27 q 893 7 912 11 q 858 1 874 3 q 830 0 842 0 l 465 0 q 384 12 422 0 q 318 49 347 25 q 290 78 301 62 q 285 72 287 74 q 280 66 282 69 q 91 0 218 0 l -7 0 l -7 78 l 91 78 q 223 119 185 78 q 250 197 250 148 l 250 426 l 328 426 l 328 200 q 346 132 328 158 q 393 93 365 106 l 435 162 q 514 287 472 223 q 604 407 556 352 q 722 508 664 475 q 841 541 780 541 m 830 78 q 859 80 842 78 q 893 87 875 81 q 928 104 911 93 q 960 132 946 114 q 982 176 973 150 q 991 238 991 202 q 983 315 991 275 q 959 388 976 355 q 913 442 942 420 q 841 463 884 463 q 662 355 757 463 q 577 242 617 304 q 501 121 537 181 q 488 99 494 110 q 474 78 481 88 l 830 78 z "},"ﺼ":{"ha":1169,"x_min":-7,"x_max":1181,"o":"m 465 0 q 384 12 422 0 q 318 49 347 25 q 290 78 301 62 q 285 72 287 74 q 280 66 282 69 q 91 0 218 0 l -7 0 l -7 78 l 91 78 q 223 119 185 78 q 250 197 250 148 l 250 426 l 328 426 l 328 200 q 346 132 328 158 q 393 93 365 106 l 435 162 q 514 287 472 223 q 604 407 556 352 q 722 508 664 475 q 841 541 780 541 q 914 528 882 541 q 972 493 947 515 q 1015 441 997 471 q 1045 378 1033 412 q 1063 308 1057 344 q 1068 238 1068 273 q 1053 142 1068 181 q 1016 78 1037 103 l 1181 78 l 1181 0 l 465 0 m 501 121 q 488 99 494 110 q 474 78 481 88 l 838 78 q 867 81 850 78 q 900 90 883 83 q 933 107 917 96 q 962 136 949 118 q 983 178 975 153 q 991 238 991 203 q 983 315 991 275 q 959 388 976 355 q 913 442 942 420 q 841 463 884 463 q 662 355 757 463 q 577 242 617 304 q 501 121 537 181 z "},"ﺺ":{"ha":1775,"x_min":93,"x_max":1787,"o":"m 1447 539 q 1516 527 1484 539 q 1573 492 1547 514 q 1618 441 1598 470 q 1651 379 1638 412 q 1670 309 1664 345 q 1677 238 1677 273 q 1661 142 1677 181 q 1622 78 1645 103 l 1787 78 l 1787 0 l 1441 0 l 1432 0 l 1071 0 q 997 11 1032 0 q 934 42 962 21 l 934 -33 q 925 -123 934 -79 q 896 -206 916 -168 q 842 -275 875 -245 q 759 -323 808 -306 q 595 -347 691 -347 l 444 -347 q 277 -307 352 -347 q 155 -193 202 -267 q 107 -74 121 -137 q 96 56 93 -11 q 123 218 99 134 q 191 395 147 302 l 261 361 q 201 209 223 282 q 175 71 180 136 q 181 -51 169 6 q 221 -152 193 -107 q 315 -239 257 -208 q 444 -270 373 -270 l 595 -270 q 713 -258 664 -270 q 794 -217 762 -245 q 841 -143 826 -188 q 856 -33 856 -98 l 856 424 l 934 424 l 934 199 q 953 130 934 157 q 1001 92 973 104 q 1050 170 1027 130 q 1099 251 1074 211 q 1152 330 1124 291 q 1212 407 1179 369 q 1329 507 1271 474 q 1447 539 1387 539 m 1432 78 q 1462 80 1444 78 q 1498 87 1479 81 q 1534 104 1516 93 q 1567 132 1552 114 q 1590 176 1581 150 q 1599 238 1599 202 q 1586 334 1599 292 q 1551 405 1573 376 q 1502 448 1529 433 q 1447 462 1475 462 q 1361 436 1405 462 q 1270 355 1318 409 q 1227 301 1248 330 q 1183 238 1205 272 q 1136 164 1160 203 q 1084 78 1112 124 l 1432 78 z "},"ط":{"ha":963,"x_min":56,"x_max":870,"o":"m 819 453 q 870 239 870 378 q 860 164 870 196 q 833 107 849 131 q 797 66 817 83 q 758 39 777 50 q 710 18 734 26 q 664 6 686 10 q 627 1 643 2 q 604 0 611 0 l 56 0 l 56 78 l 205 78 q 234 124 219 100 q 263 175 248 148 l 278 201 l 278 900 l 356 900 l 356 328 q 387 372 371 350 q 420 414 403 393 q 645 542 530 542 q 746 520 702 542 q 819 453 790 497 m 604 78 q 628 79 611 78 q 667 86 646 80 q 710 101 688 91 q 751 129 732 111 q 781 174 769 147 q 792 239 792 200 q 754 411 792 353 q 645 465 718 465 q 585 450 614 465 q 527 412 555 436 q 473 355 499 388 q 422 287 446 323 q 374 211 397 250 q 330 136 351 173 q 296 78 313 106 l 604 78 z "},"ﻃ":{"ha":892,"x_min":-22,"x_max":789,"o":"m 737 453 q 789 239 789 378 q 778 164 789 196 q 752 107 768 131 q 716 66 735 83 q 677 39 696 50 q 628 18 653 26 q 583 6 604 10 q 546 1 562 2 q 522 0 530 0 l -22 0 l -22 78 l 124 78 q 152 124 138 100 q 182 175 167 148 l 197 201 l 197 900 l 275 900 l 275 328 q 306 372 290 350 q 339 414 322 393 q 564 542 448 542 q 664 520 621 542 q 737 453 708 497 m 522 78 q 547 79 530 78 q 585 86 564 80 q 628 101 606 91 q 669 129 651 111 q 699 174 688 147 q 711 239 711 200 q 673 411 711 353 q 564 465 637 465 q 503 450 533 465 q 445 412 473 436 q 391 355 417 388 q 340 287 365 323 q 293 211 316 250 q 249 136 270 173 q 215 78 232 106 l 522 78 z "},"ﻄ":{"ha":916,"x_min":-5,"x_max":925,"o":"m 924 0 l -5 0 l -5 78 l 153 78 q 181 124 167 100 q 211 175 196 148 l 226 201 l 226 900 l 304 900 l 304 328 q 335 372 319 350 q 368 414 351 393 q 593 542 477 542 q 693 520 650 542 q 766 453 737 497 q 818 239 818 378 q 800 142 818 182 q 757 78 782 103 l 925 78 l 924 0 m 551 78 q 576 79 559 78 q 614 86 593 80 q 658 101 635 91 q 698 129 680 111 q 728 174 717 147 q 740 239 740 200 q 702 411 740 353 q 593 465 666 465 q 532 450 562 465 q 474 412 503 436 q 420 355 446 388 q 369 287 394 323 q 322 211 345 250 q 278 136 299 173 q 244 78 261 106 l 551 78 z "},"ﻂ":{"ha":1009,"x_min":71,"x_max":1019,"o":"m 1018 0 l 71 0 l 71 78 l 221 78 q 249 124 235 100 q 279 175 264 148 l 294 201 l 294 900 l 372 900 l 372 328 q 403 372 387 350 q 436 414 419 393 q 661 542 545 542 q 762 520 718 542 q 835 453 806 497 q 886 239 886 378 q 868 142 886 182 q 825 78 850 103 l 1019 78 l 1018 0 m 619 78 q 644 79 627 78 q 682 86 662 80 q 726 101 703 91 q 766 129 748 111 q 796 174 785 147 q 808 239 808 200 q 770 411 808 353 q 661 465 734 465 q 600 450 629 465 q 543 412 571 436 q 488 355 515 388 q 437 287 462 323 q 390 211 413 250 q 346 136 367 173 q 312 78 329 106 l 619 78 z "},"ع":{"ha":874,"x_min":55,"x_max":778,"o":"m 388 228 q 305 213 349 228 q 222 168 260 199 q 158 91 183 138 q 133 -21 133 44 q 146 -106 133 -69 q 183 -170 160 -143 q 237 -217 206 -198 q 304 -248 268 -237 q 378 -265 340 -260 q 453 -271 416 -271 l 753 -271 l 753 -348 l 453 -348 q 307 -330 379 -348 q 180 -272 236 -311 q 89 -170 124 -232 q 55 -21 55 -108 q 85 113 55 49 q 170 224 114 177 q 274 284 216 263 q 392 306 333 306 q 375 318 383 312 q 360 331 367 324 q 320 373 338 350 q 289 421 302 396 q 269 475 277 447 q 262 532 262 503 q 283 624 262 580 q 339 700 304 667 q 419 753 374 734 q 511 772 463 772 q 568 765 541 772 q 625 747 596 759 q 685 717 654 734 q 754 679 717 700 l 715 611 q 663 640 689 626 q 610 667 636 655 q 558 687 583 679 q 511 694 533 694 q 450 682 481 694 q 395 648 420 670 q 355 596 371 626 q 340 532 340 566 q 358 456 340 494 q 411 389 377 419 q 516 331 453 352 q 658 306 578 310 l 778 305 l 778 227 l 655 228 l 388 228 l 388 228 z "},"ﻋ":{"ha":746,"x_min":-8,"x_max":648,"o":"m 648 78 l 648 0 l 523 0 l -8 0 l -8 78 l 253 78 q 204 119 226 95 q 166 171 182 143 q 142 232 151 199 q 133 298 133 264 q 154 392 133 348 q 209 469 174 436 q 289 522 244 503 q 384 542 335 542 q 452 533 420 542 q 512 510 483 524 q 568 480 540 497 q 624 446 595 463 l 585 379 q 535 409 560 394 q 486 437 511 424 q 436 456 461 449 q 384 464 410 464 q 322 452 353 464 q 266 418 291 439 q 226 365 242 396 q 211 298 211 335 q 213 269 211 286 q 223 234 215 253 q 243 194 230 215 q 278 155 256 174 q 327 124 299 138 q 387 99 355 110 q 455 83 420 89 q 525 78 490 78 l 648 78 z "},"ﻌ":{"ha":798,"x_min":-13,"x_max":802,"o":"m 568 0 q 552 2 561 0 q 529 10 543 4 q 497 28 516 16 q 451 59 477 40 q 432 72 442 65 q 413 87 423 80 q 238 22 333 44 q 25 0 143 0 l -13 0 l -13 78 l 25 78 q 208 95 129 78 q 346 141 287 112 q 327 156 336 148 q 307 173 318 164 q 238 233 271 203 q 179 286 205 263 q 138 323 153 309 q 122 338 122 338 l 109 350 l 109 367 q 155 496 109 451 q 296 541 203 541 l 509 541 q 559 535 535 541 q 605 516 583 528 q 669 448 649 491 q 680 372 687 411 q 644 297 674 332 q 570 212 609 254 q 482 133 531 170 l 488 128 q 525 102 509 112 q 549 87 540 92 q 563 80 559 82 q 569 78 568 78 l 802 78 l 802 0 l 568 0 m 188 383 q 214 358 198 374 q 253 324 231 343 q 299 283 274 304 q 351 238 324 261 q 386 208 369 222 q 418 182 402 194 q 512 262 472 219 q 585 346 551 305 q 594 360 590 352 q 602 376 599 367 q 604 395 604 385 q 599 415 604 405 q 564 450 588 437 q 509 463 539 463 l 296 463 q 245 458 265 463 q 212 442 224 453 q 194 417 199 432 q 188 383 189 402 z "},"ﻊ":{"ha":861,"x_min":47,"x_max":872,"o":"m 449 230 q 511 263 481 246 q 567 298 541 280 q 614 335 593 316 q 649 375 634 354 q 663 421 665 399 q 648 461 661 444 q 613 489 634 479 q 569 499 592 499 l 356 499 q 313 495 332 499 q 280 481 294 491 q 258 457 266 472 q 247 420 249 443 q 267 401 254 414 q 296 373 280 389 q 332 338 313 357 q 371 301 351 320 q 411 264 391 282 q 449 230 431 246 m 569 577 q 616 571 593 577 q 659 552 639 564 q 695 524 679 540 q 722 487 711 508 q 740 408 742 449 q 713 331 737 367 q 675 286 697 307 q 628 246 653 265 q 572 209 602 227 q 511 175 543 192 q 537 153 525 163 q 561 134 549 143 q 599 105 584 116 q 624 88 614 94 q 639 80 634 82 q 646 77 644 78 l 872 77 l 872 0 l 644 0 q 628 2 637 0 q 604 11 618 4 q 570 31 590 18 q 523 65 551 44 q 483 97 504 80 q 437 136 461 115 q 369 101 405 119 q 299 62 333 83 q 233 17 264 41 q 177 -35 201 -6 q 139 -97 153 -63 q 125 -170 125 -130 q 139 -249 125 -215 q 176 -309 152 -283 q 233 -353 200 -335 q 303 -381 265 -371 q 382 -397 341 -392 q 465 -402 424 -402 l 746 -402 l 746 -479 l 465 -479 q 361 -473 413 -480 q 264 -450 310 -466 q 178 -409 217 -434 q 109 -350 138 -384 q 64 -270 80 -315 q 47 -170 47 -225 q 76 -46 47 -101 q 151 52 104 8 q 256 130 197 95 q 375 192 314 164 q 374 193 375 192 q 302 260 336 227 q 240 319 267 293 q 197 361 213 345 q 181 378 181 378 l 169 405 q 219 533 170 489 q 356 577 269 577 l 569 577 z "},"ﻛ":{"ha":727,"x_min":-15,"x_max":727,"o":"m 727 922 l 197 689 q 309 589 239 653 q 469 428 379 524 q 578 265 549 344 q 593 185 593 223 q 580 114 594 146 q 558 79 573 98 q 516 41 544 59 q 447 12 489 24 q 345 0 405 0 l -15 0 l -15 78 l 345 78 q 460 98 416 78 q 509 145 497 116 q 501 247 527 186 q 412 375 475 307 q 288 502 345 447 q 189 593 230 556 q 124 649 147 630 q 100 668 100 668 l 108 734 l 695 993 l 727 922 z "},"ﻜ":{"ha":788,"x_min":-12,"x_max":797,"o":"m 506 275 q 574 187 544 224 q 636 125 605 150 q 706 89 668 101 q 797 78 744 78 l 797 0 q 692 13 737 0 q 611 49 647 25 q 544 106 574 73 q 480 181 513 139 q 474 155 478 167 q 465 132 470 143 q 414 67 446 92 q 343 26 383 41 q 261 6 304 11 q 175 0 217 0 l -12 0 l -12 78 l 175 78 q 238 82 205 79 q 302 95 271 86 q 357 122 332 105 q 395 167 381 139 q 407 212 406 188 q 401 259 407 235 q 382 307 394 283 q 354 350 369 330 q 308 412 329 384 q 269 465 287 440 q 233 514 250 491 q 198 561 216 537 q 160 612 180 585 q 117 670 141 638 l 118 670 l 133 728 l 726 995 l 758 924 l 209 677 q 355 478 282 577 q 506 275 429 378 z "},"ك":{"ha":1299,"x_min":81,"x_max":1201,"o":"m 1201 259 q 1157 109 1201 166 q 1033 29 1116 55 q 950 12 996 18 q 854 3 905 6 q 744 0 802 0 q 625 -1 687 -1 q 601 -1 613 -1 q 577 -1 589 -1 l 527 -1 q 413 1 469 -1 q 306 13 357 4 q 212 39 255 21 q 139 88 170 57 q 81 237 81 145 q 88 303 81 268 q 104 368 95 338 q 119 418 112 398 q 127 440 126 438 l 199 412 q 196 404 199 412 q 189 382 193 396 q 179 350 184 368 q 169 313 174 333 q 162 274 165 294 q 159 237 159 254 q 194 143 159 177 q 253 107 217 120 q 334 87 289 93 q 429 78 378 80 q 530 76 479 76 l 577 76 q 601 77 589 77 q 625 77 613 77 q 740 77 684 77 q 844 80 795 78 q 935 88 893 83 q 1010 104 977 93 q 1097 158 1071 122 q 1124 259 1124 194 l 1124 901 l 1201 901 l 1201 259 m 709 616 q 622 553 652 581 q 597 524 605 537 q 593 503 590 511 q 605 496 595 497 q 628 495 615 494 q 652 496 640 495 q 667 498 664 497 q 702 500 686 499 q 737 499 719 501 q 772 487 758 496 q 793 465 786 478 q 798 437 799 453 q 789 408 797 422 q 755 375 778 390 q 703 348 732 360 q 642 329 674 337 q 580 314 610 320 l 571 366 q 644 384 611 375 q 699 402 676 393 q 734 421 722 411 q 746 442 746 431 q 734 449 744 448 q 711 450 723 451 q 687 448 699 449 q 671 446 676 447 q 638 444 655 445 q 605 445 621 444 q 556 466 571 449 q 542 504 542 482 q 554 549 542 526 q 586 591 566 573 q 628 624 604 607 q 683 660 652 641 l 709 616 z "},"ﻚ":{"ha":1354,"x_min":81,"x_max":1371,"o":"m 663 76 q 805 77 742 76 q 916 80 867 77 q 1002 87 965 82 q 1066 102 1039 93 q 1103 123 1090 110 q 1123 151 1116 135 q 1133 188 1130 167 q 1137 234 1135 208 l 1137 902 l 1215 902 l 1215 258 q 1215 251 1215 255 q 1215 242 1215 247 q 1215 229 1215 237 q 1215 210 1215 222 q 1226 153 1215 177 q 1258 111 1238 128 q 1301 86 1277 95 q 1352 78 1326 78 l 1371 78 l 1371 0 l 1352 0 q 1271 14 1309 0 q 1203 55 1234 28 q 1175 87 1187 70 q 1092 29 1146 49 q 1021 11 1060 18 q 932 2 983 5 q 816 -1 882 -1 q 663 -1 750 -1 l 527 -1 q 413 1 469 -1 q 306 13 357 4 q 212 39 255 21 q 139 88 170 57 q 81 237 81 145 q 88 303 81 268 q 104 368 95 338 q 119 418 112 398 q 127 440 126 438 l 199 412 q 196 404 199 412 q 189 382 193 396 q 179 350 184 368 q 169 313 174 333 q 162 274 165 294 q 159 237 159 254 q 194 143 159 177 q 253 107 217 120 q 334 87 289 93 q 429 78 378 80 q 530 76 479 76 l 663 76 m 709 616 q 622 553 652 581 q 597 524 605 537 q 593 503 590 511 q 605 496 595 497 q 628 495 615 494 q 652 496 640 495 q 667 498 664 497 q 702 500 686 499 q 737 499 719 501 q 772 487 758 496 q 793 465 786 478 q 798 437 799 453 q 789 408 797 422 q 755 375 778 390 q 703 348 732 360 q 642 329 674 337 q 580 314 610 320 l 571 366 q 644 384 611 375 q 699 402 676 393 q 734 421 722 411 q 746 442 746 431 q 734 449 744 448 q 711 450 723 451 q 687 448 699 449 q 671 446 676 447 q 638 444 655 445 q 605 445 621 444 q 556 466 571 449 q 542 504 542 482 q 554 549 542 526 q 586 591 566 573 q 628 624 604 607 q 683 660 652 641 l 709 616 z "},"ل":{"ha":843,"x_min":60,"x_max":747,"o":"m 747 -30 q 731 -157 747 -103 q 681 -251 715 -211 q 625 -298 655 -279 q 560 -328 594 -316 q 487 -343 525 -339 q 409 -348 449 -348 l 364 -348 q 219 -313 285 -348 q 114 -213 154 -278 q 73 -115 86 -169 q 62 1 60 -61 q 85 139 65 67 q 142 289 105 211 l 212 255 q 140 13 149 122 q 179 -172 132 -96 q 257 -245 209 -219 q 364 -270 305 -270 l 409 -270 q 539 -253 486 -270 q 621 -200 591 -235 q 658 -130 646 -172 q 669 -30 669 -88 l 669 901 l 747 901 l 747 -30 z "},"ﻟ":{"ha":364,"x_min":-7,"x_max":281,"o":"m 280 229 q 222 69 280 126 q -7 0 150 0 l -7 78 q 104 91 62 78 q 167 125 145 104 q 196 174 189 146 q 203 229 203 201 l 203 901 l 281 901 l 280 229 z "},"ﻠ":{"ha":408,"x_min":-8,"x_max":422,"o":"m 422 78 l 422 0 l 408 0 q 309 23 354 0 q 236 90 265 47 q 195 49 218 66 q 141 21 171 32 q 73 6 110 11 q -8 0 36 1 l -8 78 q 102 91 61 78 q 165 125 143 104 q 193 174 186 146 q 199 229 199 201 l 199 901 l 277 901 l 277 222 q 286 163 277 189 q 313 117 295 136 q 354 88 330 98 q 408 78 378 78 l 422 78 z "},"ﻞ":{"ha":894,"x_min":64,"x_max":905,"o":"m 905 78 l 905 0 l 880 0 q 838 3 856 0 q 805 12 819 6 q 777 27 790 18 q 751 46 765 35 l 751 -31 q 735 -158 751 -104 q 685 -251 719 -211 q 629 -299 659 -280 q 564 -328 598 -318 q 492 -343 530 -339 q 414 -348 454 -348 l 368 -348 q 224 -313 289 -348 q 118 -213 158 -278 q 77 -116 90 -170 q 67 0 64 -61 q 89 138 69 66 q 146 288 109 210 l 217 254 q 145 13 153 122 q 184 -172 136 -97 q 261 -245 213 -220 q 368 -271 309 -271 l 414 -271 q 543 -253 491 -271 q 626 -201 595 -236 q 662 -131 650 -172 q 674 -31 674 -89 l 674 901 l 751 901 l 751 228 q 761 167 751 194 q 787 120 770 140 q 828 89 804 100 q 880 78 852 78 l 905 78 z "},"م":{"ha":854,"x_min":76,"x_max":788,"o":"m 76 235 l 147 280 q 201 250 162 271 q 294 201 240 229 q 326 339 309 283 q 365 434 343 395 q 443 521 396 491 q 554 551 489 551 q 653 524 610 551 q 727 453 697 496 q 772 356 757 410 q 788 251 788 303 q 771 132 788 181 q 725 52 753 83 q 663 9 698 22 q 592 -4 628 -4 q 577 -3 586 -4 q 555 1 568 -3 q 521 12 541 5 q 475 30 502 18 q 429 50 456 37 q 372 76 402 62 q 309 107 342 91 q 248 138 277 122 q 194 166 218 153 q 153 188 169 179 l 153 -479 l 76 -479 l 76 235 m 366 165 q 476 114 433 133 q 543 86 518 95 q 579 75 568 77 q 592 73 589 73 q 647 87 624 73 q 684 127 670 102 q 704 184 698 152 q 710 251 710 216 q 699 331 710 291 q 669 403 689 371 q 619 454 648 434 q 554 474 590 474 q 488 458 516 474 q 438 406 460 443 q 399 310 416 369 q 366 165 381 251 z "},"ﻣ":{"ha":725,"x_min":-16,"x_max":641,"o":"m 453 48 q 493 58 473 48 q 528 91 513 68 q 553 151 544 114 q 563 241 563 188 q 551 317 563 278 q 516 386 539 356 q 500 406 510 395 q 477 426 491 417 q 448 442 464 436 q 412 449 431 449 q 343 434 371 449 q 296 391 316 419 q 263 324 277 364 q 235 233 249 283 q 223 188 229 210 q 209 145 217 165 q 284 106 249 124 q 348 74 319 88 q 404 54 378 61 q 453 48 430 47 m 412 527 q 503 502 460 527 q 579 432 545 478 q 625 342 609 391 q 641 241 641 292 q 636 175 641 208 q 623 112 632 143 q 599 56 614 82 q 563 11 584 30 q 515 -19 542 -8 q 453 -30 488 -30 q 391 -22 422 -30 q 328 0 361 -14 q 258 33 295 14 q 176 74 220 52 q 40 0 127 0 l -16 0 l -16 78 l 40 78 l 40 78 q 82 88 65 78 q 114 122 100 98 q 140 181 129 146 q 161 253 150 215 q 188 346 174 300 q 230 431 203 392 q 412 527 295 527 z "},"ﻤ":{"ha":747,"x_min":-15,"x_max":761,"o":"m 747 0 q 665 12 699 0 q 604 47 631 23 q 582 71 592 58 q 555 30 571 49 q 519 -2 539 11 q 476 -22 499 -15 q 429 -30 453 -30 q 367 -22 398 -30 q 303 -1 336 -15 q 232 32 270 13 q 152 74 195 51 q 16 0 102 0 l -15 0 l -15 78 l 16 78 q 58 88 40 78 q 90 122 75 98 q 115 181 105 146 q 136 253 126 215 q 149 300 143 277 q 164 346 156 323 q 182 390 172 369 q 205 431 192 412 q 388 527 270 527 q 479 502 436 527 q 554 432 521 478 q 600 342 585 391 q 616 241 616 292 q 657 104 616 141 q 693 84 672 90 q 747 78 714 78 l 761 78 l 761 0 l 747 0 m 429 48 q 468 58 449 48 q 504 91 488 68 q 529 151 520 114 q 539 241 539 188 q 526 317 539 278 q 492 386 514 356 q 476 406 485 395 q 453 426 466 417 q 423 442 439 436 q 388 449 407 449 q 319 434 347 449 q 272 391 291 419 q 239 324 253 364 q 211 233 225 283 q 198 188 205 210 q 185 145 192 165 q 260 105 225 123 q 324 74 294 87 q 380 54 354 61 q 429 48 407 47 z "},"ﻢ":{"ha":953,"x_min":121,"x_max":968,"o":"m 968 78 l 968 0 l 950 0 q 883 11 914 1 q 856 21 870 15 q 831 36 843 27 q 810 57 819 45 q 795 85 801 69 q 763 44 781 61 q 724 16 744 27 q 681 1 703 6 q 637 -4 659 -4 q 622 -3 631 -4 q 600 1 614 -3 q 567 12 586 5 q 520 30 547 18 q 474 50 501 37 q 417 76 448 62 q 355 107 387 91 q 293 138 323 122 q 239 166 264 153 q 199 188 215 179 l 199 -479 l 121 -479 l 121 235 l 193 280 q 247 250 208 271 q 339 201 285 229 q 372 339 355 283 q 410 434 388 395 q 488 519 440 487 q 599 551 535 551 q 699 524 655 551 q 772 453 742 496 q 818 356 802 410 q 833 251 833 303 q 879 104 833 148 q 898 90 888 95 q 918 82 908 85 q 936 79 927 80 q 950 78 944 78 l 968 78 m 715 106 q 745 165 735 128 q 756 251 756 202 q 745 331 756 291 q 714 403 734 371 q 665 454 694 434 q 599 474 636 474 q 534 458 562 474 q 484 406 506 443 q 444 310 461 369 q 412 165 427 251 q 521 114 479 133 q 589 86 564 95 q 624 75 614 77 q 637 73 634 73 q 675 79 653 73 q 715 106 696 86 z "},"ه":{"ha":658,"x_min":71,"x_max":590,"o":"m 330 0 q 229 17 277 0 q 147 65 182 35 q 92 136 112 95 q 71 223 71 177 q 83 304 71 267 q 113 373 95 342 q 152 430 131 404 q 190 476 173 455 q 211 500 199 487 q 234 525 222 513 q 256 548 245 537 q 276 569 267 559 l 227 624 l 283 676 q 299 659 284 676 q 337 618 314 643 q 388 562 360 593 q 441 501 415 531 q 500 431 473 465 q 547 363 527 396 q 578 296 567 330 q 590 225 590 262 q 569 136 590 178 q 509 62 549 94 q 427 16 473 32 q 330 0 381 0 m 328 511 q 309 492 319 503 q 289 471 299 482 q 269 449 278 460 q 251 427 259 437 q 217 387 235 409 q 184 340 199 366 q 159 285 169 314 q 149 223 149 256 q 162 168 149 194 q 200 122 176 142 q 260 89 227 100 q 330 78 294 78 q 401 89 368 78 q 459 121 434 101 q 498 168 484 141 q 512 225 512 195 q 504 274 512 249 q 479 325 496 298 q 439 382 463 352 q 383 450 415 413 l 328 511 z "},"ﻫ":{"ha":942,"x_min":-15,"x_max":880,"o":"m 393 121 q 449 148 422 131 q 496 188 476 165 q 528 239 516 210 q 540 304 540 268 q 527 371 540 340 q 493 422 514 401 q 446 455 472 444 q 393 467 420 467 q 317 454 348 467 q 266 418 286 440 q 238 369 247 396 q 230 313 230 341 q 247 240 230 272 q 299 179 263 208 q 342 149 319 164 q 393 121 366 135 m 541 650 q 635 551 592 597 q 715 464 679 504 q 779 387 751 423 q 827 319 807 352 q 860 256 847 287 q 876 194 872 225 q 874 132 880 164 q 850 68 867 101 q 813 21 836 41 q 762 -14 790 0 q 702 -35 734 -28 q 638 -42 670 -42 q 572 -36 604 -42 q 509 -18 540 -29 q 448 7 479 -7 q 388 37 418 21 q 253 9 328 18 q 90 0 179 0 l -15 0 l -15 78 l 90 78 q 287 93 202 78 q 268 105 277 99 q 251 119 259 112 q 177 204 203 157 q 152 313 152 252 q 170 408 152 365 q 220 481 188 451 q 297 528 253 511 q 393 545 341 545 q 482 525 441 545 q 553 471 523 504 q 600 393 583 437 q 617 304 617 350 q 583 172 617 229 q 483 78 548 116 q 557 47 517 59 q 638 35 597 35 q 688 41 665 35 q 730 56 711 47 q 761 78 748 66 q 781 104 774 90 q 797 144 792 124 q 799 185 801 164 q 787 229 796 206 q 761 278 778 252 q 653 415 723 338 q 485 597 583 492 l 541 650 z "},"ﻬ":{"ha":795,"x_min":-11,"x_max":811,"o":"m 811 78 l 811 0 l 687 0 q 642 -5 663 0 q 603 -19 621 -10 q 572 -42 585 -28 q 552 -71 559 -55 q 552 -162 534 -110 q 622 -273 570 -213 l 598 -337 q 572 -339 585 -338 q 547 -340 559 -340 q 429 -322 487 -340 q 356 -291 391 -309 q 290 -246 322 -272 q 236 -191 261 -221 q 191 -129 211 -162 q 158 -63 172 -97 q 138 6 145 -28 q 60 1 98 3 q -11 0 21 0 l -11 78 q 57 79 20 78 q 132 83 94 80 q 149 280 130 192 q 234 462 175 396 q 391 539 298 533 q 554 485 492 544 q 591 438 578 463 q 611 389 605 412 q 620 346 618 365 q 622 318 622 327 q 546 141 622 214 q 473 89 516 112 q 376 49 431 66 q 298 28 338 36 q 216 14 258 20 q 260 -93 227 -40 q 340 -186 293 -146 q 373 -211 355 -198 q 414 -233 392 -223 q 461 -251 436 -244 q 516 -261 487 -259 q 474 -171 486 -215 q 481 -39 454 -99 q 565 49 506 18 q 687 78 620 78 l 811 78 m 292 410 q 255 355 271 388 q 229 281 239 322 q 213 193 218 241 q 210 92 208 145 q 283 104 247 97 q 353 122 319 112 q 497 201 450 153 q 544 318 544 249 q 542 344 544 330 q 534 374 540 359 q 521 404 529 390 q 501 429 513 418 q 460 454 484 446 q 402 461 436 461 q 339 448 366 461 q 292 410 313 434 z "},"ﻪ":{"ha":789,"x_min":45,"x_max":809,"o":"m 809 0 l 797 0 q 704 12 747 0 q 622 47 660 24 q 547 117 579 75 q 523 157 533 135 q 504 202 512 178 q 455 130 484 162 q 383 81 426 97 q 273 61 328 59 q 174 84 218 62 q 97 146 129 106 q 56 239 65 186 q 67 363 45 304 q 137 468 90 422 q 249 549 182 514 q 402 606 316 583 l 384 691 l 461 712 q 493 575 480 634 q 518 470 507 516 q 532 409 525 438 q 545 353 538 381 q 558 299 551 326 q 573 241 565 271 q 600 178 583 204 q 637 133 616 152 q 679 104 657 115 q 723 87 701 93 q 764 80 745 81 q 797 78 783 78 l 809 78 l 809 0 m 424 532 q 291 483 349 512 q 195 417 234 453 q 141 339 157 381 q 132 253 124 297 q 162 191 138 217 q 218 152 186 165 q 286 138 251 138 q 348 150 321 137 q 407 193 384 168 q 441 245 429 218 q 456 299 453 272 q 460 347 460 326 q 457 382 460 369 q 455 396 455 396 q 443 448 448 427 q 435 484 439 468 q 429 510 432 499 q 424 532 426 521 z "},"و":{"ha":646,"x_min":78,"x_max":570,"o":"m 491 78 l 491 235 q 481 327 489 285 q 455 401 473 370 q 404 450 436 432 q 323 467 372 467 q 242 449 275 467 q 191 401 210 432 q 164 327 172 369 q 156 235 156 284 q 171 161 156 191 q 213 113 186 131 q 277 86 241 94 q 356 78 313 78 l 491 78 m 323 545 q 435 519 388 542 q 511 455 482 496 q 554 358 540 414 q 568 235 568 302 l 568 78 l 568 0 q 540 -156 570 -90 q 456 -265 511 -222 q 325 -328 401 -307 q 158 -348 249 -348 l 122 -348 l 122 -271 l 158 -271 q 296 -256 235 -269 q 400 -211 357 -242 q 466 -129 443 -181 q 491 0 489 -78 l 356 0 q 247 13 297 -1 q 159 57 196 28 q 100 131 121 86 q 78 235 78 176 q 92 358 78 302 q 135 454 105 414 q 211 519 164 495 q 323 545 257 542 z "},"ﻮ":{"ha":659,"x_min":78,"x_max":676,"o":"m 491 78 l 491 235 q 481 327 489 285 q 455 401 473 370 q 404 450 436 432 q 323 467 372 467 q 242 449 275 467 q 191 401 210 432 q 164 327 172 369 q 156 235 156 284 q 171 161 156 191 q 213 113 186 131 q 277 86 241 94 q 356 78 313 78 l 491 78 m 323 545 q 435 519 388 542 q 511 455 482 496 q 554 358 540 414 q 568 235 568 302 l 568 78 l 676 78 l 676 0 l 568 0 q 540 -156 570 -90 q 456 -265 511 -222 q 325 -328 401 -307 q 158 -348 249 -348 l 122 -348 l 122 -271 l 158 -271 q 296 -256 235 -269 q 400 -211 357 -242 q 466 -129 443 -181 q 491 0 489 -78 l 356 0 q 247 13 297 -1 q 159 57 196 28 q 100 131 121 86 q 78 235 78 176 q 92 358 78 302 q 135 454 105 414 q 211 519 164 495 q 323 545 257 542 z "},"ى":{"ha":1055,"x_min":98,"x_max":982,"o":"m 856 550 q 918 545 887 550 q 982 532 949 541 l 960 457 q 857 472 907 472 q 741 451 795 472 q 646 390 688 431 q 577 277 597 342 q 569 143 557 211 q 602 134 580 140 q 653 120 624 128 q 715 104 682 112 q 778 86 747 95 q 834 71 809 78 q 874 61 859 64 q 914 44 900 54 q 936 23 929 35 q 945 -1 943 12 q 947 -29 947 -15 q 944 -78 947 -51 q 933 -135 941 -106 q 914 -193 926 -165 q 883 -243 902 -221 q 828 -294 858 -274 q 764 -326 798 -314 q 691 -343 729 -338 q 610 -348 653 -348 l 455 -348 q 367 -338 410 -348 q 287 -307 325 -328 q 217 -257 249 -287 q 162 -190 186 -228 q 113 -71 127 -134 q 102 59 98 -8 q 195 396 107 215 l 265 363 q 206 212 227 285 q 180 74 185 139 q 187 -47 176 9 q 227 -149 199 -104 q 323 -239 264 -207 q 455 -270 382 -270 l 610 -270 q 738 -252 688 -270 q 820 -198 788 -234 q 846 -159 836 -181 q 863 -112 857 -136 q 870 -63 869 -88 q 870 -18 872 -39 l 504 80 l 499 102 q 486 196 486 149 q 499 287 487 243 q 534 372 511 331 q 592 445 557 412 q 648 490 617 470 q 713 523 679 510 q 783 544 747 537 q 856 550 819 551 z "},"ﻰ":{"ha":1124,"x_min":68,"x_max":1133,"o":"m 242 362 q 182 209 203 283 q 154 69 160 135 q 161 -52 149 4 q 201 -154 172 -109 q 293 -241 236 -210 q 421 -271 350 -271 l 578 -271 q 643 -268 609 -271 q 712 -259 677 -266 q 778 -242 746 -253 q 834 -215 810 -231 q 873 -178 859 -199 q 888 -127 888 -156 q 883 -91 888 -107 q 867 -62 879 -75 q 833 -39 855 -49 q 778 -21 812 -29 q 697 -9 745 -14 q 585 0 650 -3 l 587 78 l 1133 78 l 1133 0 l 914 0 q 953 -56 941 -26 q 965 -127 965 -86 q 949 -202 965 -169 q 905 -260 933 -235 q 840 -301 878 -285 q 760 -329 803 -318 q 671 -344 717 -339 q 578 -348 624 -348 l 421 -348 q 256 -309 330 -348 q 135 -196 181 -269 q 80 -50 92 -125 q 78 101 68 25 q 114 251 88 177 q 172 396 140 326 l 242 362 z "},"ﻻ":{"ha":822,"x_min":86,"x_max":694,"o":"m 694 390 q 685 248 694 309 q 659 144 677 188 q 613 73 641 101 q 546 29 585 45 q 455 6 506 13 q 341 0 405 0 l 86 0 l 86 78 l 341 78 q 452 88 406 80 q 528 112 497 97 q 576 151 559 128 q 603 209 594 175 q 614 287 612 242 q 616 390 616 332 l 616 902 l 694 902 l 694 390 m 163 210 l 163 901 l 242 901 l 242 210 l 163 210 z "},"ﻼ":{"ha":846,"x_min":102,"x_max":858,"o":"m 710 390 l 710 389 q 714 254 710 312 q 733 157 719 196 q 772 98 747 117 q 837 78 797 78 l 858 78 l 858 0 l 837 0 q 775 9 802 0 q 726 35 747 19 q 690 74 705 52 q 665 124 675 97 q 617 63 646 87 q 551 25 589 39 q 465 6 513 11 q 357 0 416 0 l 102 0 l 102 78 l 357 78 q 467 88 422 80 q 544 112 513 97 q 592 151 574 128 q 619 209 610 175 q 630 287 628 242 q 632 390 632 332 l 632 902 l 710 902 l 710 390 m 179 210 l 179 901 l 258 901 l 258 210 l 179 210 z "},"ـ":{"ha":261,"x_min":-13,"x_max":271,"o":"m 264 78 q 271 75 271 78 l 271 4 q 264 0 271 0 l -6 0 q -13 4 -13 0 l -13 75 q -6 78 -13 78 l 264 78 z "},"ٮ":{"ha":1328,"x_min":82,"x_max":1263,"o":"m 664 0 q 486 2 568 0 q 337 12 404 3 q 219 41 270 21 q 132 97 167 61 q 94 159 107 124 q 82 237 82 194 q 88 304 82 268 q 100 371 93 340 q 112 424 107 402 q 119 447 118 445 l 193 426 q 191 416 193 425 q 184 392 188 407 q 176 358 181 377 q 169 318 172 338 q 162 276 165 297 q 160 237 160 255 q 196 145 160 177 q 298 98 232 112 q 458 80 364 83 q 667 78 552 78 l 677 78 q 887 80 793 78 q 1047 98 980 83 q 1149 145 1113 112 q 1185 237 1185 177 q 1182 276 1185 255 q 1176 318 1180 297 q 1168 358 1172 338 q 1160 392 1164 377 q 1154 416 1157 407 q 1152 426 1152 425 l 1226 447 q 1232 424 1227 445 q 1245 371 1238 402 q 1257 304 1251 340 q 1263 237 1263 268 q 1250 159 1263 194 q 1213 97 1238 124 q 1126 41 1177 61 q 1008 12 1074 21 q 859 2 941 3 q 681 0 777 0 l 664 0 l 664 0 z "},"ٯ":{"ha":1023,"x_min":78,"x_max":914,"o":"m 669 540 q 845 467 783 540 q 914 215 914 387 l 914 -32 q 847 -251 914 -175 q 800 -293 826 -275 q 740 -323 773 -311 q 576 -348 672 -348 l 427 -348 q 262 -308 336 -348 q 141 -194 188 -268 q 93 -80 109 -143 q 81 57 78 -16 q 109 216 85 135 q 177 389 133 297 l 247 355 q 188 204 210 277 q 161 68 166 132 q 167 -53 156 3 q 206 -153 178 -109 q 300 -240 242 -210 q 427 -271 357 -271 l 576 -271 q 789 -201 728 -271 q 836 -32 836 -146 l 836 0 l 673 0 q 580 13 626 0 q 500 54 535 25 q 444 130 465 83 q 423 244 423 177 q 436 353 423 300 q 479 448 449 406 q 555 515 508 489 q 669 540 602 540 m 836 78 l 836 215 q 824 337 836 286 q 786 417 811 388 q 738 452 766 441 q 669 463 710 463 q 598 448 629 463 q 545 405 567 433 q 512 336 523 377 q 501 244 501 295 q 513 173 501 202 q 544 126 525 145 q 584 98 563 107 q 625 83 606 88 q 658 78 645 79 q 673 78 671 78 l 836 78 z "},"٠":{"ha":684,"x_min":105,"x_max":587,"o":"m 346 197 q 410 210 380 197 q 461 245 439 223 q 497 297 484 267 q 509 360 509 326 q 497 424 509 394 q 461 475 484 453 q 410 510 439 497 q 346 523 380 523 q 283 510 313 523 q 231 475 253 497 q 196 424 209 453 q 183 360 183 394 q 196 297 183 326 q 231 245 209 267 q 283 210 253 223 q 346 197 313 197 m 346 601 q 440 582 396 601 q 516 530 484 563 q 568 454 549 497 q 587 360 587 410 q 568 267 587 311 q 516 190 549 223 q 440 138 484 157 q 346 119 396 119 q 252 138 296 119 q 176 190 208 157 q 124 267 143 223 q 105 360 105 311 q 124 454 105 410 q 176 530 143 497 q 252 582 208 563 q 346 601 296 601 z "},"١":{"ha":394,"x_min":97,"x_max":263,"o":"m 182 0 q 183 46 182 22 q 184 97 183 70 q 185 264 185 174 q 178 456 186 355 q 152 666 170 557 q 97 890 133 775 l 170 913 q 225 695 204 807 q 255 461 246 584 q 263 264 263 355 q 261 95 263 172 q 260 45 261 69 q 260 0 260 21 l 182 0 z "},"٢":{"ha":725,"x_min":86,"x_max":641,"o":"m 600 914 q 608 890 601 912 q 622 836 614 868 q 635 769 629 805 q 641 702 641 733 q 628 611 641 653 q 588 538 614 569 q 523 490 562 508 q 435 472 485 472 q 330 497 379 472 q 236 570 280 521 q 253 407 247 483 q 261 261 259 331 q 262 127 263 191 q 261 -1 262 62 l 184 -1 q 184 173 184 82 q 179 364 184 264 q 157 574 173 464 q 109 807 141 685 q 98 847 104 827 q 86 888 92 867 l 160 911 q 173 868 167 890 q 184 826 179 847 q 193 799 186 821 q 215 745 201 776 q 250 680 229 715 q 298 617 271 646 q 359 569 325 588 q 435 550 393 550 q 530 590 497 550 q 564 702 564 629 q 558 761 564 729 q 545 822 552 794 q 532 870 538 850 q 527 890 527 890 l 600 914 l 600 914 z "},"٣":{"ha":921,"x_min":61,"x_max":827,"o":"m 789 914 q 793 902 790 912 q 800 875 796 891 q 809 836 804 858 q 818 792 814 815 q 824 746 822 770 q 827 703 827 723 q 820 625 827 665 q 795 550 813 584 q 745 495 777 516 q 667 473 714 473 q 564 506 607 473 q 495 592 521 539 q 472 547 486 568 q 439 510 458 527 q 396 484 420 494 q 347 470 373 473 q 281 476 311 467 q 219 506 251 485 q 230 383 226 443 q 235 269 234 324 q 236 165 236 215 q 235 73 236 116 q 235 35 235 53 q 235 0 235 16 l 157 0 q 157 35 157 17 q 158 73 157 54 q 158 238 158 146 q 148 435 157 330 q 119 654 140 539 q 61 890 99 770 l 134 914 q 154 847 145 878 q 172 781 163 816 q 182 741 176 763 q 195 698 188 720 q 211 655 202 676 q 230 614 220 633 q 259 575 245 589 q 288 554 274 561 q 314 547 301 548 q 336 547 326 546 q 363 554 350 549 q 390 569 377 558 q 414 599 403 580 q 431 650 424 619 q 439 705 437 676 q 441 768 441 735 q 438 833 440 800 q 432 897 436 866 l 510 905 q 517 836 513 871 q 527 768 521 801 q 539 705 532 735 q 556 648 546 674 q 582 596 568 616 q 610 567 596 577 q 639 554 625 557 q 667 551 653 551 q 710 566 694 551 q 735 604 727 581 q 747 654 744 628 q 749 703 749 681 q 744 762 749 729 q 732 824 739 795 q 721 872 726 852 q 715 892 715 891 l 789 914 l 789 914 z "},"٤":{"ha":662,"x_min":47,"x_max":615,"o":"m 420 854 q 392 845 411 851 q 348 828 372 838 q 294 804 323 818 q 238 772 265 790 q 196 741 217 758 q 159 704 175 723 q 134 662 143 684 q 128 615 125 640 q 146 572 131 590 q 181 543 160 554 q 227 524 201 531 q 277 515 252 518 q 313 513 293 513 q 355 514 334 513 q 396 516 376 515 q 432 519 417 518 q 458 522 448 521 q 468 524 468 523 l 480 448 q 401 429 439 443 q 330 396 363 416 q 270 351 297 377 q 226 297 243 326 q 200 228 206 263 q 206 164 195 193 q 237 120 215 137 q 287 93 259 103 q 345 80 315 84 q 401 77 375 77 q 493 86 446 77 q 585 115 540 96 l 615 44 q 518 12 568 23 q 418 -1 468 1 l 402 -1 q 320 7 362 -1 q 241 30 278 14 q 176 73 205 47 q 133 137 147 99 q 122 235 116 182 q 157 336 127 287 q 199 391 174 366 q 254 439 224 417 q 183 457 217 445 q 121 490 148 470 q 74 539 93 511 q 51 605 56 568 q 57 676 47 643 q 88 738 68 709 q 136 792 108 767 q 196 837 165 816 q 256 871 225 856 q 313 897 286 886 q 361 916 340 908 q 395 928 383 924 l 420 854 z "},"٥":{"ha":836,"x_min":54,"x_max":768,"o":"m 414 75 q 531 92 479 75 q 617 140 582 109 q 671 219 653 172 q 689 325 689 265 q 666 449 689 385 q 597 577 642 514 q 491 692 551 640 q 356 784 430 744 q 274 659 314 722 q 202 538 234 597 q 151 426 170 479 q 131 326 131 372 q 151 223 131 269 q 208 143 171 176 q 297 93 245 110 q 414 75 349 75 m 360 869 q 528 761 453 824 q 660 622 604 699 q 740 474 712 550 q 767 325 768 398 q 741 181 766 243 q 669 78 715 119 q 558 17 622 37 q 414 -3 493 -4 q 270 21 336 -2 q 156 85 204 43 q 81 187 108 126 q 54 326 54 248 q 65 410 54 367 q 96 499 76 454 q 140 589 115 544 q 193 677 165 634 q 247 762 220 721 q 299 838 275 802 l 330 884 l 360 869 z "},"٦":{"ha":747,"x_min":49,"x_max":682,"o":"m 605 872 q 595 716 597 795 q 596 557 593 636 q 608 402 600 478 q 628 255 616 325 q 653 121 639 184 q 682 6 667 58 l 609 -16 q 564 168 583 67 q 532 378 545 270 q 517 609 520 495 q 523 828 515 722 q 400 809 464 815 q 272 805 335 804 q 151 814 209 806 q 49 839 93 823 l 70 914 q 146 894 105 901 q 231 885 187 888 q 320 885 275 883 q 408 890 365 886 q 488 901 450 895 q 557 914 527 907 l 605 872 z "},"٧":{"ha":862,"x_min":54,"x_max":819,"o":"m 819 856 q 688 660 751 775 q 573 409 625 545 q 532 291 551 349 q 501 180 514 233 q 482 80 489 126 q 475 -1 475 34 l 397 -1 q 390 80 397 34 q 371 180 384 126 q 340 291 358 233 q 299 409 322 349 q 185 660 248 545 q 54 856 122 775 l 114 906 q 252 699 186 819 q 372 437 318 579 q 408 336 391 386 q 436 239 424 286 q 465 336 449 286 q 501 437 481 386 q 621 699 555 579 q 759 906 688 819 l 819 856 z "},"٨":{"ha":869,"x_min":54,"x_max":819,"o":"m 759 -6 q 621 200 687 80 q 500 463 554 321 q 464 564 480 514 q 436 661 448 614 q 407 564 423 614 q 371 463 391 514 q 251 200 318 321 q 113 -6 185 80 l 54 44 q 184 240 121 125 q 299 491 247 354 q 339 608 321 550 q 370 720 357 667 q 390 819 383 773 q 396 901 396 866 l 474 901 q 481 819 474 866 q 501 720 488 773 q 532 608 513 667 q 573 491 550 550 q 688 240 624 354 q 819 44 751 125 l 759 -6 z "},"٩":{"ha":620,"x_min":54,"x_max":549,"o":"m 427 498 q 426 563 426 530 q 426 631 426 596 q 418 710 426 670 q 393 780 410 749 q 350 831 376 811 q 287 850 324 850 q 223 836 251 850 q 173 796 194 822 q 142 733 153 770 q 131 649 131 695 q 141 589 131 614 q 165 548 150 564 q 199 521 180 531 q 235 506 217 511 q 270 500 254 501 q 295 498 285 498 l 427 498 m 287 928 q 385 904 344 928 q 452 839 426 879 q 491 744 479 798 q 503 631 503 690 q 506 409 503 511 q 515 227 509 307 q 530 90 521 146 q 549 3 539 33 l 477 -24 q 462 27 468 -4 q 450 98 455 59 q 441 180 445 136 q 435 266 437 223 q 431 349 432 309 q 428 420 429 389 l 295 420 q 210 432 253 420 q 132 471 167 444 q 75 541 97 497 q 54 649 54 585 q 68 756 54 705 q 113 845 83 806 q 186 906 142 883 q 287 928 229 928 z "},"۴":{"ha":862,"x_min":66,"x_max":801,"o":"m 801 468 q 757 459 778 463 q 711 451 735 455 q 659 444 688 447 q 596 439 631 441 q 496 438 547 437 q 395 446 444 438 q 300 471 345 453 q 218 521 254 489 q 236 270 234 386 q 237 62 239 154 l 237 0 l 160 0 l 160 63 q 159 194 160 122 q 154 346 158 266 q 140 511 149 426 q 113 679 130 595 q 105 716 109 696 q 95 761 100 736 q 82 817 89 785 q 66 888 74 848 l 141 912 q 170 800 157 852 q 195 695 182 747 q 224 626 204 655 q 278 574 244 596 q 325 549 301 559 q 376 532 350 539 q 314 709 314 598 q 333 797 314 755 q 388 872 352 839 q 465 921 422 905 q 551 938 507 938 q 598 933 576 938 q 641 920 620 929 q 683 900 662 912 q 729 873 704 888 q 747 862 737 868 q 767 851 756 857 l 728 783 q 707 796 717 790 q 689 807 698 802 q 648 830 666 820 q 615 848 631 841 q 584 858 599 854 q 551 861 568 861 q 494 849 522 861 q 443 818 465 838 q 406 770 420 797 q 391 709 391 742 q 449 571 391 616 q 524 536 482 546 q 610 525 566 526 q 691 528 653 523 q 753 537 729 533 q 773 541 766 540 q 782 543 781 543 l 801 468 l 801 468 z "},"۵":{"ha":869,"x_min":57,"x_max":802,"o":"m 728 510 q 802 244 802 371 q 785 140 802 185 q 739 63 768 95 q 672 16 710 32 q 592 0 634 0 q 537 6 561 0 q 494 22 513 12 q 461 45 475 32 q 437 70 447 57 q 376 18 414 37 q 292 -1 339 -1 q 197 18 241 -1 q 123 70 154 37 q 75 148 92 103 q 57 244 57 193 q 71 357 57 301 q 107 467 84 413 q 163 571 131 520 q 232 668 195 622 q 309 754 272 717 q 370 813 345 790 q 315 858 336 842 q 293 874 294 874 l 338 937 q 360 921 340 936 q 412 879 380 906 q 485 814 444 852 q 568 729 525 776 q 728 510 669 619 m 592 78 q 606 79 595 78 q 632 85 617 80 q 664 100 647 90 q 693 129 680 110 q 716 176 707 148 q 725 244 725 203 q 705 365 725 305 q 655 481 686 426 q 586 587 624 537 q 512 676 548 636 q 470 721 491 699 q 429 761 449 742 q 369 704 406 741 q 292 617 331 668 q 237 542 265 584 q 187 453 210 501 q 150 352 164 405 q 135 244 135 299 q 144 182 135 212 q 173 129 153 152 q 222 91 192 105 q 292 76 251 76 q 345 90 324 76 q 379 124 366 103 q 397 174 391 146 q 403 230 402 201 q 403 261 404 247 q 401 287 402 276 q 399 304 400 298 q 398 311 398 311 l 475 324 q 476 315 475 323 q 479 295 477 307 q 480 265 480 282 q 480 229 481 248 q 479 198 480 213 q 475 170 478 184 q 488 132 479 150 q 513 102 498 115 q 548 82 528 89 q 592 78 568 76 z "},"۶":{"ha":717,"x_min":73,"x_max":650,"o":"m 650 645 q 533 517 592 588 q 419 362 475 445 q 312 186 364 278 q 217 -4 261 93 l 146 27 q 205 151 174 91 q 267 265 235 211 q 330 366 299 319 q 387 451 360 414 q 304 438 345 438 l 303 438 q 210 457 254 438 q 131 512 165 476 q 86 591 99 545 q 76 684 73 637 q 101 774 80 730 q 157 845 121 817 q 205 875 179 862 q 257 897 230 888 q 313 913 285 907 q 369 923 341 919 l 386 848 q 340 839 364 843 q 293 827 316 834 q 247 810 270 820 q 206 785 225 800 q 170 738 183 766 q 153 679 156 710 q 158 617 150 648 q 188 566 167 587 q 207 548 196 557 q 233 532 218 539 q 265 521 247 525 q 303 516 282 516 l 304 516 q 389 534 350 516 q 464 579 429 552 q 532 639 499 607 q 597 701 564 672 l 650 645 z "},"ﮨ":{"ha":446,"x_min":-9,"x_max":355,"o":"m 277 -149 q 238 -179 257 -162 q 205 -216 219 -197 q 182 -253 191 -234 q 171 -285 172 -271 q 179 -309 170 -300 q 208 -318 188 -318 q 236 -323 223 -318 q 260 -339 250 -329 q 276 -363 270 -349 q 282 -391 282 -376 q 275 -422 282 -408 q 258 -446 269 -436 q 231 -461 246 -456 q 198 -467 215 -467 q 120 -434 148 -467 q 93 -338 93 -400 q 105 -271 93 -304 q 140 -206 118 -237 q 189 -151 161 -176 q 246 -107 217 -125 l 277 -149 m 311 508 q 325 448 318 480 q 339 380 333 415 q 349 309 345 345 q 355 240 354 273 q 342 152 355 195 q 302 75 328 109 q 239 21 277 41 q 155 0 201 0 l -9 0 l -9 78 l 155 78 q 208 93 185 80 q 247 130 231 107 q 270 180 262 152 q 277 238 278 208 q 272 301 277 268 q 262 366 268 334 q 249 429 256 398 q 236 485 242 459 l 311 508 z "},"ﮩ":{"ha":749,"x_min":-9,"x_max":759,"o":"m 759 0 l 673 0 q 620 -8 643 0 q 580 -28 597 -16 q 551 -57 563 -41 q 532 -87 540 -72 q 510 -156 516 -119 q 507 -230 504 -193 q 521 -302 509 -268 q 552 -363 532 -337 l 521 -426 q 417 -409 465 -426 q 330 -361 369 -392 q 260 -289 290 -331 q 207 -200 229 -247 q 173 -102 186 -153 q 156 0 160 -51 l -9 0 l -9 78 l 193 78 l 232 39 q 237 -25 232 11 q 254 -99 242 -61 q 283 -176 265 -138 q 325 -247 301 -215 q 383 -306 350 -280 q 456 -343 415 -331 q 437 -272 444 -310 q 432 -195 431 -234 q 440 -120 432 -157 q 463 -53 448 -83 q 548 44 494 11 q 673 78 602 78 l 759 78 l 759 0 z "},"ھ":{"ha":1042,"x_min":63,"x_max":958,"o":"m 472 121 q 527 148 501 131 q 574 188 554 165 q 606 239 594 210 q 618 304 618 268 q 605 371 618 340 q 571 422 592 401 q 524 455 551 444 q 472 467 498 467 q 395 454 426 467 q 345 418 364 440 q 317 369 325 396 q 308 313 308 341 q 325 240 308 272 q 378 179 342 208 q 421 149 397 164 q 472 121 444 135 m 619 650 q 713 551 670 597 q 793 464 757 504 q 857 387 829 423 q 905 319 885 352 q 938 256 926 287 q 955 194 951 225 q 952 132 958 164 q 928 68 946 101 q 891 21 914 41 q 841 -14 869 0 q 780 -35 813 -28 q 716 -42 748 -42 q 651 -36 682 -42 q 588 -18 619 -29 q 527 7 557 -7 q 466 37 496 21 q 400 18 436 28 q 317 5 364 8 q 207 9 269 2 q 63 43 145 17 l 85 113 q 202 86 150 92 q 290 81 254 80 q 346 87 326 83 q 366 93 366 92 q 347 105 355 99 q 330 119 338 112 q 256 204 281 157 q 230 313 230 252 q 248 408 230 365 q 299 481 266 451 q 375 528 331 511 q 472 545 419 545 q 560 525 519 545 q 631 471 601 504 q 678 393 661 437 q 696 304 696 350 q 661 172 696 229 q 561 78 626 116 q 635 47 595 59 q 717 35 675 35 q 767 41 744 35 q 808 56 790 47 q 839 78 826 66 q 859 104 852 90 q 875 144 871 124 q 877 185 879 164 q 865 229 874 206 q 839 278 856 252 q 732 415 802 338 q 563 597 662 492 l 619 650 z "},"ے":{"ha":1042,"x_min":61,"x_max":1032,"o":"m 563 0 l 287 0 q 228 -10 255 0 q 180 -39 200 -21 q 148 -82 160 -57 q 136 -136 136 -107 q 148 -191 136 -166 q 179 -233 159 -215 q 227 -261 199 -251 q 287 -271 254 -271 l 1032 -271 l 1032 -348 l 287 -348 q 199 -334 241 -350 q 128 -289 158 -318 q 79 -221 97 -261 q 61 -136 61 -182 q 78 -54 61 -93 q 126 16 94 -15 q 199 62 158 46 q 287 78 240 78 l 563 78 l 563 0 z "},"ﮯ":{"ha":830,"x_min":61,"x_max":839,"o":"m 839 0 l 287 0 q 228 -10 255 0 q 180 -39 200 -21 q 148 -82 160 -57 q 136 -136 136 -107 q 148 -191 136 -166 q 179 -233 159 -215 q 227 -261 199 -251 q 287 -271 254 -271 l 813 -271 l 813 -348 l 287 -348 q 197 -332 238 -348 q 126 -288 156 -316 q 78 -221 95 -259 q 61 -136 61 -182 q 79 -51 61 -90 q 127 17 97 -11 q 198 62 157 45 q 287 78 239 78 l 839 78 l 839 0 z "},"ک":{"ha":1261,"x_min":75,"x_max":1259,"o":"m 1259 922 l 730 689 q 840 591 771 654 q 997 434 908 528 q 1110 266 1080 347 q 1116 122 1141 186 q 1082 70 1103 92 q 1033 33 1061 48 q 975 11 1006 19 q 909 1 943 4 q 849 -3 883 -1 q 778 -6 815 -4 q 702 -9 741 -8 q 627 -9 664 -9 q 517 -9 568 -9 q 423 -5 467 -8 q 342 3 379 -3 q 272 15 304 8 q 242 23 259 18 q 209 35 226 28 q 175 52 192 42 q 142 76 157 62 q 75 236 75 133 q 82 302 75 268 q 97 365 89 336 q 113 413 105 394 q 121 434 120 432 l 193 406 q 186 388 193 405 q 172 346 180 371 q 159 291 165 321 q 153 236 153 262 q 185 142 153 176 q 290 90 217 108 q 347 80 319 83 q 412 74 375 76 q 501 70 449 71 q 627 68 552 69 q 701 69 663 68 q 775 71 739 70 q 844 75 811 73 q 903 79 877 77 q 996 101 960 83 q 1044 150 1032 119 q 1049 209 1055 178 q 1026 270 1042 240 q 986 329 1009 301 q 941 381 963 357 q 818 505 874 451 q 720 594 761 558 q 656 649 679 630 q 633 667 633 667 l 641 734 l 1228 993 l 1259 922 z "},"ﮏ":{"ha":1378,"x_min":75,"x_max":1390,"o":"m 591 69 q 739 74 672 69 q 856 91 806 79 q 941 121 907 102 q 987 167 974 140 q 999 212 998 188 q 993 259 999 235 q 974 307 986 283 q 946 350 961 330 q 900 412 921 384 q 861 465 879 440 q 825 514 842 491 q 790 561 808 537 q 753 612 772 585 q 710 670 733 638 l 710 670 l 725 728 l 1318 995 l 1350 924 l 801 677 q 948 478 874 577 q 1098 275 1021 378 q 1167 187 1136 224 q 1229 125 1197 150 q 1298 89 1260 101 q 1390 78 1336 78 l 1390 0 q 1284 13 1330 0 q 1203 49 1239 25 q 1136 106 1167 73 q 1073 181 1105 139 q 1037 101 1066 133 q 967 47 1009 68 q 875 15 926 26 q 774 -2 824 3 q 676 -8 723 -7 q 595 -9 629 -9 q 411 -4 489 -9 q 272 15 333 1 q 196 43 232 25 q 134 87 160 61 q 91 151 107 114 q 75 236 75 188 q 82 302 75 268 q 97 365 89 336 q 113 413 105 394 q 121 434 120 432 l 193 406 q 186 388 193 405 q 172 346 180 371 q 159 291 165 321 q 153 236 153 262 q 185 142 153 176 q 290 90 217 108 q 343 80 317 84 q 403 73 369 76 q 482 70 437 71 q 591 69 527 69 z "},"گ":{"ha":1265,"x_min":75,"x_max":1259,"o":"m 1259 922 l 730 689 q 840 591 771 654 q 997 434 908 528 q 1110 266 1080 347 q 1116 122 1141 186 q 1082 70 1103 92 q 1033 33 1061 48 q 975 11 1006 19 q 909 1 943 4 q 849 -3 883 -1 q 778 -6 815 -4 q 702 -9 741 -8 q 627 -9 664 -9 q 517 -9 568 -9 q 423 -5 467 -8 q 342 3 379 -3 q 272 15 304 8 q 242 23 259 18 q 209 35 226 28 q 175 52 192 42 q 142 76 157 62 q 75 236 75 133 q 82 302 75 268 q 97 365 89 336 q 113 413 105 394 q 121 434 120 432 l 193 406 q 186 388 193 405 q 172 346 180 371 q 159 291 165 321 q 153 236 153 262 q 185 142 153 176 q 290 90 217 108 q 347 80 319 83 q 412 74 375 76 q 501 70 449 71 q 627 68 552 69 q 701 69 663 68 q 775 71 739 70 q 844 75 811 73 q 903 79 877 77 q 996 101 960 83 q 1044 150 1032 119 q 1049 209 1055 178 q 1026 270 1042 240 q 986 329 1009 301 q 941 381 963 357 q 818 505 874 451 q 720 594 761 558 q 656 649 679 630 q 633 667 633 667 l 641 734 l 1228 993 l 1259 922 m 652 938 l 1150 1150 l 1177 1098 l 646 873 l 652 938 z "},"ﮔ":{"ha":745,"x_min":-15,"x_max":727,"o":"m 727 922 l 197 689 q 309 589 239 653 q 469 428 379 524 q 578 265 549 344 q 593 185 593 223 q 580 114 594 146 q 558 79 573 98 q 516 41 544 59 q 447 12 489 24 q 345 0 405 0 l -15 0 l -15 78 l 345 78 q 460 98 416 78 q 509 145 497 116 q 501 247 527 186 q 412 375 475 307 q 288 502 345 447 q 189 593 230 556 q 124 649 147 630 q 100 668 100 668 l 108 734 l 695 993 l 727 922 m 129 939 l 609 1145 l 634 1095 l 124 874 l 129 939 z "},"ﮕ":{"ha":790,"x_min":-12,"x_max":797,"o":"m 506 275 q 574 187 544 224 q 636 125 605 150 q 706 89 668 101 q 797 78 744 78 l 797 0 q 692 13 737 0 q 611 49 647 25 q 544 106 574 73 q 480 181 513 139 q 474 155 478 167 q 465 132 470 143 q 414 67 446 92 q 343 26 383 41 q 261 6 304 11 q 175 0 217 0 l -12 0 l -12 78 l 175 78 q 238 82 205 79 q 302 95 271 86 q 357 122 332 105 q 395 167 381 139 q 407 212 406 188 q 401 259 407 235 q 382 307 394 283 q 354 350 369 330 q 308 412 329 384 q 269 465 287 440 q 233 514 250 491 q 198 561 216 537 q 160 612 180 585 q 117 670 141 638 l 118 670 l 133 728 l 726 995 l 758 924 l 209 677 q 355 478 282 577 q 506 275 429 378 m 160 932 l 640 1139 l 665 1088 l 155 868 l 160 932 z "},"ﮓ":{"ha":1379,"x_min":75,"x_max":1390,"o":"m 591 69 q 739 74 672 69 q 856 91 806 79 q 941 121 907 102 q 987 167 974 140 q 999 212 998 188 q 993 259 999 235 q 974 307 986 283 q 946 350 961 330 q 900 412 921 384 q 861 465 879 440 q 825 514 842 491 q 790 561 808 537 q 753 612 772 585 q 710 670 733 638 l 710 670 l 725 728 l 1318 995 l 1350 924 l 801 677 q 948 478 874 577 q 1098 275 1021 378 q 1167 187 1136 224 q 1229 125 1197 150 q 1298 89 1260 101 q 1390 78 1336 78 l 1390 0 q 1284 13 1330 0 q 1203 49 1239 25 q 1136 106 1167 73 q 1073 181 1105 139 q 1037 101 1066 133 q 967 47 1009 68 q 875 15 926 26 q 774 -2 824 3 q 676 -8 723 -7 q 595 -9 629 -9 q 411 -4 489 -9 q 272 15 333 1 q 196 43 232 25 q 134 87 160 61 q 91 151 107 114 q 75 236 75 188 q 82 302 75 268 q 97 365 89 336 q 113 413 105 394 q 121 434 120 432 l 193 406 q 186 388 193 405 q 172 346 180 371 q 159 291 165 321 q 153 236 153 262 q 185 142 153 176 q 290 90 217 108 q 343 80 317 84 q 403 73 369 76 q 482 70 437 71 q 591 69 527 69 m 774 933 l 1253 1140 l 1278 1089 l 769 869 l 774 933 z "},"ں":{"ha":1010,"x_min":78,"x_max":914,"o":"m 914 427 l 914 -32 q 847 -251 914 -175 q 800 -293 826 -275 q 740 -323 773 -311 q 576 -348 672 -348 l 427 -348 q 262 -308 336 -348 q 141 -194 188 -268 q 93 -80 109 -143 q 81 57 78 -16 q 109 216 85 135 q 177 389 133 297 l 247 355 q 188 204 210 277 q 161 68 166 132 q 167 -53 156 3 q 206 -153 178 -109 q 300 -240 242 -210 q 427 -271 357 -271 l 576 -271 q 789 -201 728 -271 q 836 -32 836 -146 l 836 427 l 914 427 z "},"ﮟ":{"ha":1063,"x_min":77,"x_max":1069,"o":"m 1069 78 l 1069 0 l 1050 0 q 976 12 1011 0 q 913 47 941 24 l 913 -32 q 846 -251 913 -174 q 791 -299 821 -280 q 725 -329 760 -318 q 652 -344 691 -340 q 574 -348 614 -348 l 426 -348 q 261 -308 335 -348 q 140 -194 186 -268 q 92 -84 108 -143 q 80 47 77 -25 q 108 211 83 126 q 177 389 133 297 l 247 355 q 187 204 209 277 q 160 68 165 132 q 166 -53 155 3 q 206 -153 177 -109 q 299 -240 241 -210 q 426 -271 356 -271 l 574 -271 q 787 -201 727 -271 q 835 -32 835 -145 l 835 427 l 913 427 l 913 218 q 923 161 913 187 q 951 117 933 135 q 994 88 969 98 q 1050 78 1020 78 l 1069 78 z "},"٪":{"ha":741,"x_min":145,"x_max":598,"o":"m 223 1 l 145 1 l 519 989 l 598 989 l 223 1 m 148 902 l 237 992 l 330 900 l 239 809 l 148 902 m 417 93 l 506 184 l 598 92 l 508 1 l 417 93 z "},"؟":{"ha":684,"x_min":65,"x_max":621,"o":"m 342 1005 q 450 984 399 1005 q 540 922 501 962 q 600 826 580 881 q 621 711 621 772 l 544 711 q 528 797 544 757 q 485 866 513 836 q 421 911 458 895 q 342 927 384 927 q 264 914 300 927 q 200 878 227 901 q 158 823 174 854 q 143 754 143 791 q 146 711 143 728 q 162 677 150 693 q 199 640 175 660 q 265 589 223 621 q 273 583 269 586 q 281 577 277 580 q 352 515 325 543 q 394 460 379 487 q 414 402 409 432 q 419 333 419 372 l 419 242 l 342 242 l 342 333 q 339 382 342 361 q 326 423 336 403 q 294 464 316 443 q 234 515 273 485 l 218 527 q 148 582 176 559 q 102 629 119 605 q 74 684 82 655 q 65 754 65 713 q 86 851 65 806 q 147 933 107 897 q 236 987 186 968 q 342 1005 286 1005 m 295 51 l 384 141 l 477 49 l 386 -42 l 295 51 z "},"،":{"ha":366,"x_min":71,"x_max":282,"o":"m 259 321 q 214 288 236 307 q 176 243 193 268 q 148 188 158 218 q 139 122 138 157 q 155 143 146 135 q 173 154 164 150 q 191 159 182 158 q 208 160 199 160 q 237 155 223 160 q 260 139 251 149 q 276 115 270 129 q 282 86 282 102 q 276 54 282 69 q 258 26 270 39 q 231 7 247 14 q 198 -1 216 -1 q 145 10 169 -1 q 105 40 121 21 q 80 85 88 59 q 71 142 71 111 q 84 210 71 176 q 116 274 96 244 q 164 330 137 304 q 221 373 191 355 l 259 321 z "},"؛":{"ha":355,"x_min":49,"x_max":260,"o":"m 88 78 q 94 109 88 94 q 111 134 100 123 q 135 150 121 144 q 166 157 150 157 q 196 150 182 157 q 221 134 211 144 q 238 109 232 123 q 244 78 244 94 q 238 48 244 62 q 221 23 232 33 q 196 6 211 13 q 166 0 182 0 q 135 6 150 0 q 111 23 121 13 q 94 48 100 33 q 88 78 88 62 m 237 601 q 192 568 214 588 q 153 524 170 549 q 126 468 136 499 q 117 402 116 437 q 133 423 124 415 q 151 434 142 431 q 169 439 160 438 q 186 441 177 441 q 215 435 201 441 q 238 419 229 429 q 254 396 248 409 q 260 367 260 382 q 254 334 260 350 q 236 307 247 319 q 209 287 225 294 q 176 280 194 280 q 123 290 146 280 q 83 320 99 301 q 58 365 66 339 q 49 422 49 391 q 62 490 49 456 q 94 554 74 524 q 142 610 115 585 q 199 653 169 636 l 237 601 z "},"٫":{"ha":432,"x_min":-25,"x_max":357,"o":"m 54 -148 l -25 -148 l 278 539 l 357 539 l 54 -148 z "},"٬":{"ha":324,"x_min":54,"x_max":265,"o":"m 65 -168 q 112 -134 88 -155 q 155 -86 136 -113 q 186 -28 174 -60 q 197 39 198 4 q 181 18 189 26 q 163 7 172 11 q 145 2 154 3 q 128 1 136 1 q 99 6 112 1 q 75 22 85 12 q 60 46 66 32 q 54 74 54 59 q 60 107 54 92 q 78 135 66 122 q 104 154 89 147 q 138 162 120 162 q 191 151 167 162 q 231 121 215 140 q 256 76 247 102 q 265 19 265 50 q 251 -50 265 -15 q 214 -117 237 -85 q 162 -176 191 -149 q 104 -220 133 -203 l 65 -168 z "},"٭":{"ha":711,"x_min":56,"x_max":657,"o":"m 419 658 l 566 457 l 503 411 l 356 613 l 210 411 l 146 456 l 293 658 l 56 735 l 80 809 l 317 732 l 317 982 l 395 982 l 395 732 l 633 809 l 657 734 l 419 658 z "},"ً":{"ha":0,"x_min":-158,"x_max":158,"o":"m -158 1066 l 158 1183 l 158 1126 l -158 1008 l -158 1066 m -158 1212 l 158 1330 l 158 1272 l -158 1154 l -158 1212 z "},"ٍ":{"ha":0,"x_min":-158,"x_max":158,"o":"m -158 -437 l 158 -320 l 158 -378 l -158 -496 l -158 -437 m -158 -291 l 158 -174 l 158 -231 l -158 -349 l -158 -291 z "},"َ":{"ha":0,"x_min":-158,"x_max":158,"o":"m -158 1066 l 158 1183 l 158 1126 l -158 1008 l -158 1066 z "},"ُ":{"ha":0,"x_min":-181,"x_max":110,"o":"m 10 1285 q -26 1275 -6 1285 q -55 1247 -46 1265 q -56 1240 -56 1246 q -54 1223 -57 1233 q -42 1203 -51 1214 q -15 1182 -33 1192 q -8 1178 -12 1181 q 3 1173 -4 1176 q 18 1166 9 1170 q 42 1155 27 1162 q 56 1204 52 1177 q 51 1254 59 1231 q 35 1276 45 1267 q 10 1285 25 1285 m -181 1024 l -172 1027 q -132 1039 -155 1032 q -85 1056 -109 1045 q -35 1080 -60 1066 q 9 1112 -11 1093 q -17 1124 -5 1119 q -39 1134 -28 1129 q -77 1161 -62 1145 q -100 1194 -92 1176 q -107 1230 -107 1211 q -98 1266 -106 1249 q -73 1301 -89 1285 q -37 1327 -57 1318 q 5 1338 -17 1336 q 47 1330 27 1340 q 96 1285 81 1313 q 109 1223 110 1256 q 95 1156 108 1190 q 62 1095 82 1122 q 29 1062 49 1077 q -14 1034 9 1047 q -59 1011 -36 1021 q -102 993 -82 1001 q -139 980 -122 985 q -164 973 -155 975 q -164 973 -164 973 q -165 972 -165 972 l -181 1024 z "},"ٌ":{"ha":0,"x_min":-261,"x_max":137,"o":"m 37 1314 q 1 1303 21 1314 q -28 1276 -19 1293 q -29 1268 -28 1275 q -27 1252 -30 1261 q -15 1231 -23 1242 q 12 1211 -6 1220 q 19 1207 15 1209 q 30 1202 23 1205 q 45 1194 36 1199 q 69 1184 54 1190 q 83 1232 80 1205 q 78 1283 86 1259 q 62 1305 73 1295 q 37 1314 52 1314 m -160 1047 q -150 1065 -156 1054 q -141 1089 -145 1076 q -138 1115 -138 1102 q -146 1138 -138 1128 q -165 1149 -153 1147 q -190 1150 -177 1152 q -214 1143 -203 1148 q -229 1133 -225 1138 l -261 1169 q -252 1178 -259 1172 q -232 1191 -244 1184 q -202 1202 -219 1197 q -167 1206 -186 1206 q -123 1191 -140 1205 q -98 1158 -106 1178 q -90 1114 -90 1138 q -97 1068 -90 1090 q -28 1096 -64 1079 q 37 1140 7 1114 q 10 1152 22 1147 q -11 1162 -1 1157 q -50 1189 -35 1174 q -73 1222 -65 1205 q -80 1259 -80 1240 q -71 1295 -79 1277 q -46 1330 -62 1314 q -10 1355 -30 1346 q 32 1366 10 1365 q 74 1359 54 1368 q 123 1313 109 1342 q 136 1252 137 1285 q 122 1185 135 1218 q 90 1124 109 1151 q 37 1076 69 1097 q -28 1040 4 1055 q -89 1016 -61 1025 q -129 1004 -117 1008 l -160 1047 z "},"ِ":{"ha":0,"x_min":-158,"x_max":158,"o":"m -158 -292 l 158 -174 l 158 -232 l -158 -350 l -158 -292 z "},"ّ":{"ha":0,"x_min":-196,"x_max":189,"o":"m -82 1071 q -166 1100 -136 1071 q -196 1182 -196 1129 l -196 1253 l -145 1253 l -145 1182 q -130 1136 -145 1150 q -82 1121 -116 1121 q -68 1123 -78 1121 q -51 1131 -59 1125 q -35 1149 -42 1137 q -28 1182 -28 1162 l -29 1253 l 23 1253 l 23 1182 q 38 1135 23 1150 q 86 1121 52 1121 q 100 1123 92 1121 q 117 1132 109 1125 q 132 1150 126 1138 q 138 1182 138 1162 q 136 1205 138 1192 q 131 1233 134 1219 q 125 1259 128 1247 q 120 1278 122 1271 q 144 1287 132 1282 q 167 1295 156 1291 q 173 1277 169 1290 q 180 1247 176 1263 q 187 1213 184 1230 q 189 1182 189 1196 q 180 1132 189 1153 q 156 1097 171 1111 q 123 1077 141 1083 q 85 1070 104 1070 q 34 1079 57 1070 q -3 1105 12 1088 q -40 1079 -20 1087 q -82 1071 -61 1071 z "},"ْ":{"ha":0,"x_min":-142,"x_max":142,"o":"m -91 1191 q -84 1155 -91 1172 q -64 1127 -76 1139 q -35 1107 -52 1114 q 0 1100 -19 1100 q 35 1107 19 1100 q 64 1127 52 1114 q 84 1155 76 1139 q 91 1191 91 1172 q 84 1226 91 1210 q 64 1255 76 1242 q 35 1274 52 1267 q 0 1282 19 1282 q -35 1274 -19 1282 q -64 1255 -52 1267 q -84 1226 -76 1242 q -91 1191 -91 1210 m -142 1190 q -131 1246 -142 1220 q -101 1291 -120 1271 q -56 1322 -81 1311 q -1 1333 -30 1333 q 55 1322 29 1333 q 100 1291 81 1311 q 131 1246 120 1271 q 142 1190 142 1220 q 131 1135 142 1161 q 100 1090 120 1109 q 55 1060 81 1071 q -1 1049 29 1049 q -56 1060 -30 1049 q -101 1090 -81 1071 q -131 1135 -120 1109 q -142 1190 -142 1161 z "},"ٓ":{"ha":0,"x_min":-291,"x_max":263,"o":"m 263 1033 l -47 1033 q -120 1027 -92 1033 q -168 1009 -149 1021 q -197 977 -186 996 q -218 932 -208 958 q -255 943 -239 938 q -291 954 -271 948 q -256 1032 -275 1001 q -209 1080 -237 1063 q -142 1104 -181 1097 q -47 1110 -103 1110 l 263 1110 l 263 1033 z "},"ٔ":{"ha":0,"x_min":-172,"x_max":160,"o":"m -172 950 q -170 983 -170 968 q -168 1016 -169 997 l -69 1047 q -99 1063 -85 1052 q -122 1087 -112 1073 q -136 1117 -131 1101 q -141 1150 -141 1134 q -134 1190 -141 1170 q -115 1227 -128 1210 q -84 1259 -102 1245 q -43 1279 -66 1272 q -4 1285 -22 1285 q 30 1280 14 1284 q 62 1270 47 1276 q 90 1258 76 1264 l 77 1206 q 54 1215 66 1210 q 29 1223 42 1220 q 2 1226 16 1226 q -25 1223 -11 1227 q -50 1210 -39 1219 q -70 1188 -62 1201 q -81 1162 -78 1176 q -80 1135 -84 1148 q -46 1101 -74 1115 q 20 1086 -18 1086 q 81 1095 49 1086 q 143 1112 113 1104 l 160 1057 l -172 950 z "},"ٕ":{"ha":0,"x_min":-148,"x_max":184,"o":"m -148 -401 q -146 -368 -147 -383 q -145 -335 -146 -354 l -45 -304 q -75 -289 -62 -299 q -98 -264 -89 -278 q -113 -234 -108 -250 q -118 -201 -118 -217 q -111 -161 -118 -181 q -92 -124 -104 -141 q -61 -92 -79 -106 q -20 -72 -42 -79 q 19 -66 1 -66 q 54 -71 37 -67 q 85 -81 70 -75 q 114 -93 100 -87 l 100 -145 q 77 -136 90 -141 q 52 -128 65 -131 q 26 -125 39 -125 q -2 -128 12 -124 q -27 -141 -15 -132 q -47 -163 -39 -150 q -58 -189 -55 -175 q -57 -216 -61 -203 q -22 -250 -51 -236 q 44 -265 6 -265 q 104 -256 72 -265 q 166 -239 136 -247 l 184 -294 l -148 -401 z "},"ٰ":{"ha":0,"x_min":-31,"x_max":30,"o":"m -31 1305 l 30 1305 l 30 1043 l -31 1043 l -31 1305 z "},"ٖ":{"ha":0,"x_min":-31,"x_max":30,"o":"m -31 -244 l 30 -244 l 30 -506 l -31 -506 l -31 -244 z "},"ؕ":{"ha":0,"x_min":-215,"x_max":160,"o":"m -215 761 l -215 815 l -152 815 l -122 861 l -122 1167 l -69 1167 l -69 938 q -16 987 -45 967 q 49 1006 13 1006 q 89 999 69 1006 q 125 975 109 991 q 151 934 141 959 q 160 876 160 910 q 150 822 160 844 q 122 787 139 801 q 86 767 106 773 q 45 761 65 761 l -215 761 m 45 815 q 89 830 72 815 q 106 876 106 844 q 91 933 106 913 q 49 953 76 953 q 10 940 28 953 q -25 908 -8 927 q -58 864 -42 888 q -86 817 -73 840 q -87 815 -87 816 l 45 815 z "},"ﺪ":{"ha":792,"x_min":61,"x_max":802,"o":"m 802 78 l 802 0 l 792 0 q 744 9 769 0 q 696 33 720 18 q 651 70 672 49 q 614 115 630 91 q 614 113 614 114 q 613 112 614 112 q 572 56 599 79 q 510 18 545 33 q 437 -3 476 3 q 359 -10 397 -10 q 280 -6 317 -10 q 209 8 244 -2 q 137 33 174 17 q 61 72 101 49 l 100 139 l 133 119 q 196 92 160 103 q 274 74 233 80 q 356 68 314 68 q 432 74 397 68 q 504 98 474 81 q 545 141 534 116 q 548 192 554 164 q 523 248 541 220 l 285 608 l 350 650 l 606 263 q 652 193 629 227 q 699 134 676 160 q 745 93 722 109 q 792 78 768 78 l 802 78 z "},"ﮧ":{"ha":814,"x_min":66,"x_max":823,"o":"m 464 667 l 501 508 q 517 441 509 473 q 532 379 525 409 q 547 319 539 348 q 562 259 554 290 q 600 175 575 209 q 656 118 625 140 q 721 87 688 97 q 786 78 755 78 l 823 78 l 823 0 l 786 0 q 691 15 737 0 q 607 58 645 30 q 532 136 563 90 q 487 240 501 182 q 471 300 479 270 q 457 360 464 330 q 442 423 449 391 q 426 491 434 455 l 397 613 q 369 607 384 610 q 340 601 354 604 q 313 596 325 598 q 293 592 301 593 q 229 565 255 583 q 188 520 203 548 q 165 455 171 491 q 162 378 160 418 q 171 295 164 337 q 189 211 179 252 q 211 133 199 170 q 232 66 222 96 l 158 42 q 121 166 139 101 q 92 298 102 231 q 120 557 66 463 q 275 667 167 641 q 312 675 288 670 q 359 684 335 680 q 400 692 382 689 q 419 696 417 696 l 464 667 z "},"چ":{"ha":919,"x_min":63,"x_max":864,"o":"m 321 676 q 346 673 335 674 q 369 669 356 672 q 401 660 382 666 q 450 643 419 655 q 526 613 480 631 q 640 566 572 594 q 723 530 683 547 q 795 498 764 512 q 845 476 826 485 q 864 468 864 468 l 862 396 q 834 386 861 396 q 755 357 806 376 q 632 311 705 338 q 470 250 560 284 q 391 219 432 235 q 312 182 350 203 q 241 136 274 162 q 185 77 208 110 q 151 1 162 44 q 146 -95 140 -41 q 178 -224 148 -169 q 259 -318 208 -280 q 377 -373 309 -355 q 523 -392 444 -392 l 800 -392 l 800 -470 l 523 -470 q 334 -443 416 -470 q 194 -367 251 -416 q 106 -250 138 -319 q 68 -98 74 -182 q 75 16 63 -35 q 112 107 87 66 q 173 179 137 147 q 252 236 209 211 q 344 283 295 262 q 443 323 393 304 q 617 388 541 360 q 745 436 694 417 q 615 492 681 463 q 490 545 549 521 q 386 583 431 568 q 321 598 342 598 q 249 567 281 598 q 203 479 217 535 l 128 499 q 154 565 137 533 q 195 620 170 596 q 251 659 219 645 q 321 676 282 674 m 625 17 l 703 96 l 782 18 l 703 -61 l 625 17 m 371 15 q 410 55 393 37 q 449 93 428 73 q 489 54 471 72 q 528 15 507 35 l 449 -64 l 371 15 m 496 -151 l 574 -72 l 652 -150 l 573 -229 l 496 -151 z "},"ﭻ":{"ha":994,"x_min":47,"x_max":1008,"o":"m 305 640 q 329 637 319 638 q 353 633 340 636 q 384 624 366 630 q 433 607 403 619 q 510 577 464 595 q 623 530 556 558 q 707 494 667 511 q 779 462 747 476 q 829 440 810 449 q 848 432 848 432 l 845 360 q 814 348 845 359 q 728 316 784 337 l 728 200 q 741 143 728 166 q 773 105 753 119 q 817 84 793 90 q 866 78 842 78 l 1008 78 l 1008 0 l 866 0 q 785 13 823 0 q 718 49 747 25 q 668 115 685 76 q 650 200 650 153 l 650 287 q 559 253 609 271 q 454 214 510 235 q 375 183 415 199 q 296 146 334 167 q 224 100 258 126 q 168 41 191 74 q 134 -35 145 8 q 129 -131 123 -77 q 162 -260 132 -205 q 242 -354 192 -316 q 360 -409 292 -391 q 507 -428 428 -428 l 783 -428 l 783 -506 l 507 -506 q 317 -479 400 -506 q 178 -403 235 -452 q 90 -286 121 -355 q 52 -134 58 -218 q 59 -20 47 -71 q 96 71 71 30 q 157 143 121 111 q 236 200 193 175 q 328 247 279 226 q 427 287 376 268 q 601 352 525 324 q 729 400 677 381 q 598 456 665 427 q 473 509 532 485 q 370 547 415 532 q 304 563 325 563 q 233 531 265 563 q 186 443 201 499 l 111 463 q 137 529 121 497 q 178 584 154 560 q 234 623 203 609 q 305 640 266 638 m 527 -71 l 605 8 l 683 -69 l 604 -149 l 527 -71 m 272 -73 q 312 -33 294 -51 q 350 6 330 -15 q 390 -34 372 -16 q 430 -73 408 -52 l 351 -152 l 272 -73 m 397 -239 l 475 -160 l 554 -237 l 475 -317 l 397 -239 z "},"أ":{"ha":374,"x_min":13,"x_max":345,"o":"m 227 0 l 148 0 l 148 806 l 227 806 l 227 0 m 13 867 q 15 900 15 886 q 17 933 16 915 l 116 965 q 86 980 100 969 q 63 1004 73 991 q 49 1035 54 1018 q 44 1068 44 1051 q 51 1107 44 1087 q 70 1145 57 1127 q 101 1176 83 1162 q 142 1196 119 1189 q 181 1202 163 1203 q 215 1197 199 1201 q 247 1187 232 1193 q 275 1176 261 1181 l 262 1124 q 239 1132 251 1128 q 214 1140 227 1137 q 187 1144 201 1143 q 160 1140 174 1144 q 135 1127 146 1136 q 115 1106 123 1118 q 104 1080 107 1093 q 105 1052 101 1066 q 139 1018 111 1032 q 205 1004 167 1004 q 266 1012 234 1004 q 328 1030 298 1021 l 345 974 l 13 867 z "},"ﺄ":{"ha":408,"x_min":20,"x_max":420,"o":"m 412 0 q 291 18 336 0 q 222 70 246 35 q 191 156 198 105 q 183 273 183 206 l 183 804 l 262 804 l 262 273 q 266 176 262 214 q 285 116 270 138 q 330 86 300 95 q 412 78 360 78 l 420 78 l 420 0 l 412 0 l 412 0 m 20 864 q 21 896 21 882 q 23 929 22 911 l 122 961 q 92 976 106 965 q 69 1001 79 987 q 55 1031 60 1015 q 50 1064 50 1047 q 57 1103 50 1083 q 76 1141 64 1123 q 107 1172 89 1158 q 148 1193 126 1186 q 187 1198 169 1199 q 222 1193 205 1198 q 253 1183 238 1189 q 282 1172 268 1177 l 268 1120 q 245 1128 258 1124 q 220 1136 233 1133 q 193 1140 207 1140 q 166 1136 180 1140 q 141 1123 153 1133 q 121 1102 129 1114 q 110 1076 113 1090 q 111 1049 107 1062 q 146 1014 117 1028 q 211 1000 174 1000 q 272 1009 240 1000 q 334 1026 304 1017 l 352 970 l 20 864 z "},"إ":{"ha":374,"x_min":33,"x_max":366,"o":"m 203 0 l 124 0 l 124 901 l 203 901 l 203 0 m 33 -432 q 35 -400 35 -414 q 37 -367 36 -385 l 136 -335 q 106 -320 120 -331 q 83 -295 93 -309 q 69 -265 74 -282 q 64 -232 64 -249 q 71 -193 64 -213 q 90 -155 78 -173 q 121 -124 103 -138 q 162 -104 140 -110 q 201 -98 183 -97 q 235 -103 219 -98 q 267 -113 252 -107 q 295 -124 282 -119 l 282 -176 q 259 -168 271 -172 q 234 -160 247 -163 q 207 -156 221 -157 q 180 -160 194 -156 q 155 -173 167 -164 q 135 -194 143 -182 q 124 -220 127 -206 q 125 -247 121 -234 q 159 -282 131 -268 q 225 -296 188 -296 q 286 -288 254 -296 q 348 -270 318 -279 l 366 -326 l 33 -432 z "},"ﺈ":{"ha":331,"x_min":13,"x_max":345,"o":"m 330 0 q 210 18 255 0 q 141 70 165 35 q 109 156 117 105 q 102 273 102 206 l 102 901 l 181 901 l 181 273 q 184 176 181 214 q 203 116 188 138 q 248 86 218 95 q 330 78 278 78 l 339 78 l 339 0 l 330 0 l 330 0 m 13 -422 q 15 -389 15 -403 q 17 -356 16 -374 l 116 -324 q 86 -309 100 -320 q 63 -285 73 -299 q 49 -254 54 -271 q 44 -222 44 -238 q 51 -182 44 -202 q 70 -145 57 -162 q 101 -113 83 -127 q 142 -93 119 -100 q 181 -87 163 -86 q 215 -92 199 -88 q 247 -102 232 -96 q 275 -114 261 -108 l 262 -165 q 239 -157 251 -162 q 214 -149 227 -152 q 187 -146 201 -146 q 160 -149 174 -145 q 135 -162 146 -153 q 115 -183 123 -171 q 104 -210 107 -196 q 105 -237 101 -223 q 139 -271 111 -257 q 205 -285 167 -285 q 266 -277 234 -285 q 328 -259 298 -268 l 345 -315 l 13 -422 z "},"آ":{"ha":480,"x_min":-83,"x_max":472,"o":"m 269 0 l 190 0 l 190 806 l 269 806 l 269 0 m 472 902 l 162 902 q 88 896 117 902 q 41 878 59 890 q 11 847 22 866 q -9 801 0 828 q -47 813 -31 807 q -83 823 -63 818 q -48 901 -67 871 q -1 949 -28 932 q 66 973 27 967 q 162 980 105 980 l 472 980 l 472 902 z "},"ﺂ":{"ha":412,"x_min":-114,"x_max":441,"o":"m 412 0 q 291 18 336 0 q 222 70 246 35 q 191 156 198 105 q 183 273 183 206 l 183 804 l 262 804 l 262 273 q 266 176 262 214 q 285 116 270 138 q 330 86 300 95 q 412 78 360 78 l 420 78 l 420 0 l 412 0 l 412 0 m 441 902 l 131 902 q 57 896 86 902 q 10 878 28 890 q -20 847 -9 866 q -40 801 -31 828 q -78 813 -62 807 q -114 823 -94 818 q -79 901 -98 871 q -32 949 -59 932 q 35 973 -4 967 q 131 980 74 980 l 441 980 l 441 902 z "},"ٱ":{"ha":374,"x_min":-9,"x_max":396,"o":"m 227 0 l 148 0 l 148 806 l 227 806 l 227 0 m -9 902 l 3 956 l 85 956 l 114 1002 l 167 1079 q 220 1128 191 1108 q 285 1147 249 1147 q 325 1140 306 1147 q 361 1116 345 1132 q 387 1075 377 1100 q 396 1017 396 1051 q 386 963 396 985 q 359 928 375 941 q 322 908 342 914 q 282 902 301 902 l -9 902 m 282 956 q 325 970 308 956 q 342 1017 342 985 q 327 1074 342 1054 q 285 1093 313 1093 q 246 1081 265 1093 q 211 1048 228 1068 q 178 1004 194 1028 q 150 958 163 980 q 149 956 149 957 l 282 956 z "},"ﭑ":{"ha":408,"x_min":-9,"x_max":420,"o":"m 412 0 q 291 18 336 0 q 222 70 246 35 q 191 156 198 105 q 183 273 183 206 l 183 804 l 262 804 l 262 273 q 266 176 262 214 q 285 116 270 138 q 330 86 300 95 q 412 78 360 78 l 420 78 l 420 0 l 412 0 l 412 0 m -9 903 l 3 956 l 85 956 l 114 1003 l 167 1080 q 220 1128 191 1109 q 285 1148 249 1148 q 325 1140 306 1148 q 361 1116 345 1133 q 387 1076 377 1100 q 396 1018 396 1051 q 386 964 396 985 q 359 928 375 942 q 322 909 342 915 q 282 903 301 903 l -9 903 m 282 956 q 325 971 308 956 q 342 1018 342 985 q 327 1074 342 1054 q 285 1094 313 1094 q 246 1081 265 1094 q 211 1049 228 1069 q 178 1005 194 1029 q 150 958 163 981 q 149 956 149 958 l 282 956 z "},"ب":{"ha":1326,"x_min":82,"x_max":1263,"o":"m 664 0 q 486 2 568 0 q 337 12 404 3 q 219 41 270 21 q 132 97 167 61 q 94 159 107 124 q 82 237 82 194 q 88 304 82 268 q 100 371 93 340 q 112 424 107 402 q 119 447 118 445 l 193 426 q 191 416 193 425 q 184 392 188 407 q 176 358 181 377 q 169 318 172 338 q 162 276 165 297 q 160 237 160 255 q 196 145 160 177 q 298 98 232 112 q 458 80 364 83 q 667 78 552 78 l 677 78 q 887 80 793 78 q 1047 98 980 83 q 1149 145 1113 112 q 1185 237 1185 177 q 1182 276 1185 255 q 1176 318 1180 297 q 1168 358 1172 338 q 1160 392 1164 377 q 1154 416 1157 407 q 1152 426 1152 425 l 1226 447 q 1232 424 1227 445 q 1245 371 1238 402 q 1257 304 1251 340 q 1263 237 1263 268 q 1250 159 1263 194 q 1213 97 1238 124 q 1126 41 1177 61 q 1008 12 1074 21 q 859 2 941 3 q 681 0 777 0 l 664 0 l 664 0 m 596 -220 l 668 -148 l 742 -222 l 669 -295 l 596 -220 z "},"ﺑ":{"ha":443,"x_min":-9,"x_max":355,"o":"m 311 508 q 325 448 318 480 q 339 380 333 415 q 349 309 345 345 q 355 240 354 273 q 342 152 355 195 q 302 75 328 109 q 239 21 277 41 q 155 0 201 0 l -9 0 l -9 78 l 155 78 q 208 93 185 80 q 247 130 231 107 q 270 180 262 152 q 277 238 278 208 q 272 301 277 268 q 262 366 268 334 q 249 429 256 398 q 236 485 242 459 l 311 508 l 311 508 m 144 -229 l 216 -157 l 290 -230 l 217 -304 l 144 -229 z "},"ﺒ":{"ha":513,"x_min":-13,"x_max":523,"o":"m 523 78 l 523 0 l 479 0 q 399 13 437 0 q 333 49 361 25 q 304 78 316 62 q 223 19 272 37 q 105 0 175 1 l -13 0 l -13 78 l 105 78 q 172 85 143 79 q 221 104 201 90 q 252 141 241 118 q 265 200 263 164 l 265 427 l 342 427 l 342 200 q 355 143 342 166 q 387 105 367 119 q 431 84 407 90 q 479 78 455 78 l 523 78 m 165 -236 l 237 -164 l 311 -237 l 238 -311 l 165 -236 z "},"ﺐ":{"ha":1419,"x_min":90,"x_max":1428,"o":"m 1428 78 l 1428 0 l 1399 0 q 1319 14 1357 0 q 1251 55 1281 28 q 1222 87 1234 70 q 1139 29 1194 49 q 1065 11 1107 18 q 967 2 1023 5 q 842 -1 912 -1 q 685 -1 772 -1 q 562 -1 620 -1 q 452 2 503 -1 q 355 10 400 4 q 273 25 311 15 q 141 95 186 47 q 90 236 90 149 q 96 303 90 267 q 108 370 102 338 q 121 422 115 401 q 127 446 126 444 l 201 424 q 199 415 201 424 q 193 391 196 406 q 185 356 189 376 q 177 316 181 337 q 170 275 173 295 q 168 236 168 254 q 175 187 168 208 q 197 148 182 165 q 235 120 212 132 q 292 100 259 108 q 369 86 326 91 q 462 79 412 81 q 568 77 512 77 q 685 76 624 76 q 831 77 765 76 q 951 80 898 77 q 1045 87 1004 82 q 1113 102 1086 93 q 1147 121 1134 110 q 1169 148 1160 132 q 1179 183 1176 163 q 1184 234 1183 204 l 1184 427 l 1262 427 l 1262 258 q 1262 251 1262 255 q 1262 242 1262 247 q 1262 229 1262 237 q 1262 210 1262 222 q 1274 153 1262 177 q 1305 111 1285 128 q 1349 86 1324 95 q 1399 78 1373 78 l 1428 78 m 609 -229 l 681 -156 l 756 -230 l 682 -303 l 609 -229 z "},"پ":{"ha":1330,"x_min":82,"x_max":1263,"o":"m 664 0 q 486 2 568 0 q 337 12 404 3 q 219 41 270 21 q 132 97 167 61 q 94 159 107 124 q 82 237 82 194 q 88 304 82 268 q 100 371 93 340 q 112 424 107 402 q 119 447 118 445 l 193 426 q 191 416 193 425 q 184 392 188 407 q 176 358 181 377 q 169 318 172 338 q 162 276 165 297 q 160 237 160 255 q 196 145 160 177 q 298 98 232 112 q 458 80 364 83 q 667 78 552 78 l 677 78 q 887 80 793 78 q 1047 98 980 83 q 1149 145 1113 112 q 1185 237 1185 177 q 1182 276 1185 255 q 1176 318 1180 297 q 1168 358 1172 338 q 1160 392 1164 377 q 1154 416 1157 407 q 1152 426 1152 425 l 1226 447 q 1232 424 1227 445 q 1245 371 1238 402 q 1257 304 1251 340 q 1263 237 1263 268 q 1250 159 1263 194 q 1213 97 1238 124 q 1126 41 1177 61 q 1008 12 1074 21 q 859 2 941 3 q 681 0 777 0 l 664 0 l 664 0 m 731 -218 l 809 -140 l 888 -217 l 809 -297 l 731 -218 m 477 -220 q 516 -181 499 -198 q 555 -142 534 -163 q 595 -182 577 -164 q 634 -220 613 -200 l 556 -299 l 477 -220 m 602 -386 l 680 -307 l 758 -385 l 679 -465 l 602 -386 z "},"ﭗ":{"ha":1416,"x_min":90,"x_max":1428,"o":"m 1428 78 l 1428 0 l 1399 0 q 1319 14 1357 0 q 1251 55 1281 28 q 1222 87 1234 70 q 1139 29 1194 49 q 1065 11 1107 18 q 967 2 1023 5 q 842 -1 912 -1 q 685 -1 772 -1 q 562 -1 620 -1 q 452 2 503 -1 q 355 10 400 4 q 273 25 311 15 q 141 95 186 47 q 90 236 90 149 q 96 303 90 267 q 108 370 102 338 q 121 422 115 401 q 127 446 126 444 l 201 424 q 199 415 201 424 q 193 391 196 406 q 185 356 189 376 q 177 316 181 337 q 170 275 173 295 q 168 236 168 254 q 175 187 168 208 q 197 148 182 165 q 235 120 212 132 q 292 100 259 108 q 369 86 326 91 q 462 79 412 81 q 568 77 512 77 q 685 76 624 76 q 831 77 765 76 q 951 80 898 77 q 1045 87 1004 82 q 1113 102 1086 93 q 1147 121 1134 110 q 1169 148 1160 132 q 1179 183 1176 163 q 1184 234 1183 204 l 1184 427 l 1262 427 l 1262 258 q 1262 251 1262 255 q 1262 242 1262 247 q 1262 229 1262 237 q 1262 210 1262 222 q 1274 153 1262 177 q 1305 111 1285 128 q 1349 86 1324 95 q 1399 78 1373 78 l 1428 78 m 730 -218 l 809 -139 l 887 -217 l 808 -296 l 730 -218 m 476 -220 q 516 -180 498 -198 q 554 -141 533 -162 q 594 -181 576 -163 q 634 -220 612 -199 l 555 -299 l 476 -220 m 601 -386 l 679 -307 l 758 -384 l 679 -464 l 601 -386 z "},"ﭘ":{"ha":553,"x_min":-12,"x_max":473,"o":"m 407 508 q 420 448 413 480 q 434 380 428 415 q 444 309 440 345 q 450 240 449 273 q 437 152 451 195 q 398 75 424 109 q 334 21 372 41 q 250 0 297 0 l -12 0 l -12 78 l 250 78 q 303 93 280 80 q 342 130 326 107 q 365 180 357 152 q 372 238 373 208 q 368 301 372 268 q 358 366 364 334 q 345 429 352 398 q 331 485 338 459 l 407 508 l 407 508 m 317 -220 l 395 -141 l 473 -218 l 395 -298 l 317 -220 m 62 -222 q 102 -182 85 -199 q 141 -143 120 -164 q 181 -183 163 -165 q 220 -222 199 -201 l 141 -301 l 62 -222 m 188 -388 l 266 -309 l 344 -386 l 265 -466 l 188 -388 z "},"ﭙ":{"ha":662,"x_min":-13,"x_max":673,"o":"m 673 78 l 673 0 l 569 0 q 489 13 527 0 q 423 49 451 25 q 395 78 406 62 q 314 19 362 37 q 196 0 265 1 l -13 0 l -13 78 l 196 78 q 262 85 233 79 q 311 104 291 90 q 342 141 331 118 q 355 200 354 164 l 355 427 l 432 427 l 432 200 q 445 143 432 166 q 477 105 458 119 q 521 84 497 90 q 569 78 545 78 l 673 78 m 354 -217 l 432 -138 l 511 -215 l 432 -295 l 354 -217 m 100 -218 q 140 -179 122 -196 q 178 -140 157 -161 q 218 -180 200 -162 q 258 -218 236 -198 l 179 -297 l 100 -218 m 225 -384 l 303 -306 l 381 -383 l 302 -463 l 225 -384 z "},"ت":{"ha":1326,"x_min":82,"x_max":1263,"o":"m 664 0 q 486 2 568 0 q 337 12 404 3 q 219 41 270 21 q 132 97 167 61 q 94 159 107 124 q 82 237 82 194 q 88 304 82 268 q 100 371 93 340 q 112 424 107 402 q 119 447 118 445 l 193 426 q 191 416 193 425 q 184 392 188 407 q 176 358 181 377 q 169 318 172 338 q 162 276 165 297 q 160 237 160 255 q 196 145 160 177 q 298 98 232 112 q 458 80 364 83 q 667 78 552 78 l 677 78 q 887 80 793 78 q 1047 98 980 83 q 1149 145 1113 112 q 1185 237 1185 177 q 1182 276 1185 255 q 1176 318 1180 297 q 1168 358 1172 338 q 1160 392 1164 377 q 1154 416 1157 407 q 1152 426 1152 425 l 1226 447 q 1232 424 1227 445 q 1245 371 1238 402 q 1257 304 1251 340 q 1263 237 1263 268 q 1250 159 1263 194 q 1213 97 1238 124 q 1126 41 1177 61 q 1008 12 1074 21 q 859 2 941 3 q 681 0 777 0 l 664 0 l 664 0 m 800 506 l 722 585 q 760 625 743 607 q 799 664 778 642 l 878 585 l 800 506 m 544 508 l 465 586 q 504 626 487 609 q 542 665 521 643 l 622 586 l 544 508 z "},"ﺗ":{"ha":561,"x_min":-12,"x_max":474,"o":"m 407 508 q 420 448 413 480 q 434 380 428 415 q 444 309 440 345 q 450 240 449 273 q 437 152 451 195 q 398 75 424 109 q 334 21 372 41 q 250 0 297 0 l -12 0 l -12 78 l 250 78 q 303 93 280 80 q 342 130 326 107 q 365 180 357 152 q 372 238 373 208 q 368 301 372 268 q 358 366 364 334 q 345 429 352 398 q 331 485 338 459 l 407 508 l 407 508 m 396 670 l 318 749 q 356 789 339 771 q 395 828 374 806 l 474 749 l 396 670 m 140 672 l 61 751 q 100 790 83 773 q 138 829 117 807 l 218 750 l 140 672 z "},"ﺘ":{"ha":662,"x_min":-13,"x_max":673,"o":"m 452 622 l 374 701 q 413 740 395 723 q 451 779 430 758 l 530 700 l 452 622 m 196 623 l 117 702 q 156 741 139 724 q 194 780 174 759 l 274 701 l 196 623 m 673 78 l 673 0 l 569 0 q 489 13 527 0 q 423 49 451 25 q 395 78 406 62 q 314 19 362 37 q 196 0 265 1 l -13 0 l -13 78 l 196 78 q 262 85 233 79 q 311 104 291 90 q 342 141 331 118 q 355 200 354 164 l 355 427 l 432 427 l 432 200 q 445 143 432 166 q 477 105 458 119 q 521 84 497 90 q 569 78 545 78 l 673 78 z "},"ﺖ":{"ha":1416,"x_min":90,"x_max":1428,"o":"m 1428 78 l 1428 0 l 1399 0 q 1319 14 1357 0 q 1251 55 1281 28 q 1222 87 1234 70 q 1139 29 1194 49 q 1065 11 1107 18 q 967 2 1023 5 q 842 -1 912 -1 q 685 -1 772 -1 q 562 -1 620 -1 q 452 2 503 -1 q 355 10 400 4 q 273 25 311 15 q 141 95 186 47 q 90 236 90 149 q 96 303 90 267 q 108 370 102 338 q 121 422 115 401 q 127 446 126 444 l 201 424 q 199 415 201 424 q 193 391 196 406 q 185 356 189 376 q 177 316 181 337 q 170 275 173 295 q 168 236 168 254 q 175 187 168 208 q 197 148 182 165 q 235 120 212 132 q 292 100 259 108 q 369 86 326 91 q 462 79 412 81 q 568 77 512 77 q 685 76 624 76 q 831 77 765 76 q 951 80 898 77 q 1045 87 1004 82 q 1113 102 1086 93 q 1147 121 1134 110 q 1169 148 1160 132 q 1179 183 1176 163 q 1184 234 1183 204 l 1184 427 l 1262 427 l 1262 258 q 1262 251 1262 255 q 1262 242 1262 247 q 1262 229 1262 237 q 1262 210 1262 222 q 1274 153 1262 177 q 1305 111 1285 128 q 1349 86 1324 95 q 1399 78 1373 78 l 1428 78 m 800 506 l 722 585 q 760 625 743 607 q 799 664 778 642 l 878 585 l 800 506 m 544 508 l 465 586 q 504 626 487 609 q 542 665 521 643 l 622 586 l 544 508 z "},"ث":{"ha":1328,"x_min":82,"x_max":1263,"o":"m 664 0 q 486 2 568 0 q 337 12 404 3 q 219 41 270 21 q 132 97 167 61 q 94 159 107 124 q 82 237 82 194 q 88 304 82 268 q 100 371 93 340 q 112 424 107 402 q 119 447 118 445 l 193 426 q 191 416 193 425 q 184 392 188 407 q 176 358 181 377 q 169 318 172 338 q 162 276 165 297 q 160 237 160 255 q 196 145 160 177 q 298 98 232 112 q 458 80 364 83 q 667 78 552 78 l 677 78 q 887 80 793 78 q 1047 98 980 83 q 1149 145 1113 112 q 1185 237 1185 177 q 1182 276 1185 255 q 1176 318 1180 297 q 1168 358 1172 338 q 1160 392 1164 377 q 1154 416 1157 407 q 1152 426 1152 425 l 1226 447 q 1232 424 1227 445 q 1245 371 1238 402 q 1257 304 1251 340 q 1263 237 1263 268 q 1250 159 1263 194 q 1213 97 1238 124 q 1126 41 1177 61 q 1008 12 1074 21 q 859 2 941 3 q 681 0 777 0 l 664 0 l 664 0 m 634 560 l 556 481 l 477 559 l 556 638 l 634 560 m 888 562 l 810 484 l 730 562 l 809 641 l 888 562 m 763 734 l 685 655 l 605 734 l 684 813 l 763 734 z "},"ﺛ":{"ha":554,"x_min":-12,"x_max":461,"o":"m 407 508 q 420 448 413 480 q 434 380 428 415 q 444 309 440 345 q 450 240 449 273 q 437 152 451 195 q 398 75 424 109 q 334 21 372 41 q 250 0 297 0 l -12 0 l -12 78 l 250 78 q 303 93 280 80 q 342 130 326 107 q 365 180 357 152 q 372 238 373 208 q 368 301 372 268 q 358 366 364 334 q 345 429 352 398 q 331 485 338 459 l 407 508 l 407 508 m 207 734 l 129 655 l 51 733 l 129 813 l 207 734 m 461 736 l 383 658 l 304 736 l 383 815 l 461 736 m 336 908 l 258 830 l 179 908 l 258 987 l 336 908 z "},"ﺜ":{"ha":662,"x_min":-13,"x_max":673,"o":"m 673 78 l 673 0 l 569 0 q 489 13 527 0 q 423 49 451 25 q 395 78 406 62 q 314 19 362 37 q 196 0 265 1 l -13 0 l -13 78 l 196 78 q 262 85 233 79 q 311 104 291 90 q 342 141 331 118 q 355 200 354 164 l 355 427 l 432 427 l 432 200 q 445 143 432 166 q 477 105 458 119 q 521 84 497 90 q 569 78 545 78 l 673 78 m 257 684 l 179 605 l 100 683 l 179 763 l 257 684 m 511 686 l 433 608 l 354 686 l 432 765 l 511 686 m 386 858 l 308 780 l 229 858 l 307 937 l 386 858 z "},"ﺚ":{"ha":1416,"x_min":90,"x_max":1428,"o":"m 1428 78 l 1428 0 l 1399 0 q 1319 14 1357 0 q 1251 55 1281 28 q 1222 87 1234 70 q 1139 29 1194 49 q 1065 11 1107 18 q 967 2 1023 5 q 842 -1 912 -1 q 685 -1 772 -1 q 562 -1 620 -1 q 452 2 503 -1 q 355 10 400 4 q 273 25 311 15 q 141 95 186 47 q 90 236 90 149 q 96 303 90 267 q 108 370 102 338 q 121 422 115 401 q 127 446 126 444 l 201 424 q 199 415 201 424 q 193 391 196 406 q 185 356 189 376 q 177 316 181 337 q 170 275 173 295 q 168 236 168 254 q 175 187 168 208 q 197 148 182 165 q 235 120 212 132 q 292 100 259 108 q 369 86 326 91 q 462 79 412 81 q 568 77 512 77 q 685 76 624 76 q 831 77 765 76 q 951 80 898 77 q 1045 87 1004 82 q 1113 102 1086 93 q 1147 121 1134 110 q 1169 148 1160 132 q 1179 183 1176 163 q 1184 234 1183 204 l 1184 427 l 1262 427 l 1262 258 q 1262 251 1262 255 q 1262 242 1262 247 q 1262 229 1262 237 q 1262 210 1262 222 q 1274 153 1262 177 q 1305 111 1285 128 q 1349 86 1324 95 q 1399 78 1373 78 l 1428 78 m 634 560 l 556 481 l 477 559 l 556 638 l 634 560 m 888 562 l 810 484 l 730 562 l 809 641 l 888 562 m 763 734 l 685 655 l 605 734 l 684 813 l 763 734 z "},"ٹ":{"ha":1348,"x_min":82,"x_max":1263,"o":"m 664 0 q 486 2 568 0 q 337 12 404 3 q 219 41 270 21 q 132 97 167 61 q 94 159 107 124 q 82 237 82 194 q 88 304 82 268 q 100 371 93 340 q 112 424 107 402 q 119 447 118 445 l 193 426 q 191 416 193 425 q 184 392 188 407 q 176 358 181 377 q 169 318 172 338 q 162 276 165 297 q 160 237 160 255 q 196 145 160 177 q 298 98 232 112 q 458 80 364 83 q 667 78 552 78 l 677 78 q 887 80 793 78 q 1047 98 980 83 q 1149 145 1113 112 q 1185 237 1185 177 q 1182 276 1185 255 q 1176 318 1180 297 q 1168 358 1172 338 q 1160 392 1164 377 q 1154 416 1157 407 q 1152 426 1152 425 l 1226 447 q 1232 424 1227 445 q 1245 371 1238 402 q 1257 304 1251 340 q 1263 237 1263 268 q 1250 159 1263 194 q 1213 97 1238 124 q 1126 41 1177 61 q 1008 12 1074 21 q 859 2 941 3 q 681 0 777 0 l 664 0 l 664 0 m 516 423 l 516 477 l 580 477 l 609 523 l 609 829 l 662 829 l 662 600 q 715 648 686 629 q 780 668 744 668 q 820 660 801 668 q 856 637 840 653 q 882 596 872 621 q 891 538 891 571 q 881 484 891 506 q 854 449 870 462 q 817 429 837 435 q 777 423 796 423 l 516 423 m 777 477 q 820 491 803 477 q 837 538 837 506 q 822 594 837 574 q 780 614 807 614 q 741 602 759 614 q 706 569 723 589 q 673 525 689 549 q 645 479 658 501 q 644 477 644 478 l 777 477 z "},"ﭨ":{"ha":551,"x_min":-12,"x_max":489,"o":"m 407 508 q 420 448 413 480 q 434 380 428 415 q 444 309 440 345 q 450 240 449 273 q 437 152 451 195 q 398 75 424 109 q 334 21 372 41 q 250 0 297 0 l -12 0 l -12 78 l 250 78 q 303 93 280 80 q 342 130 326 107 q 365 180 357 152 q 372 238 373 208 q 368 301 372 268 q 358 366 364 334 q 345 429 352 398 q 331 485 338 459 l 407 508 l 407 508 m 114 625 l 114 679 l 177 679 l 207 725 l 207 1031 l 259 1031 l 259 802 q 313 850 283 831 q 378 870 342 870 q 418 862 398 870 q 454 839 438 855 q 479 798 470 823 q 489 740 489 773 q 479 686 489 708 q 451 651 468 664 q 414 631 435 637 q 374 625 394 625 l 114 625 m 374 679 q 418 693 401 679 q 435 740 435 708 q 420 796 435 777 q 378 816 405 816 q 339 804 357 816 q 304 771 321 791 q 271 727 287 751 q 242 681 256 703 q 242 679 242 680 l 374 679 z "},"ﭩ":{"ha":662,"x_min":-13,"x_max":673,"o":"m 673 78 l 673 0 l 569 0 q 489 13 527 0 q 423 49 451 25 q 395 78 406 62 q 314 19 362 37 q 196 0 265 1 l -13 0 l -13 78 l 196 78 q 262 85 233 79 q 311 104 291 90 q 342 141 331 118 q 355 200 354 164 l 355 427 l 432 427 l 432 200 q 445 143 432 166 q 477 105 458 119 q 521 84 497 90 q 569 78 545 78 l 673 78 m 92 540 l 92 594 l 155 594 l 185 640 l 185 946 l 237 946 l 237 717 q 290 766 261 746 q 355 785 319 785 q 396 778 376 785 q 432 754 416 770 q 457 713 448 738 q 467 655 467 689 q 456 601 467 623 q 429 566 446 580 q 392 546 413 552 q 352 540 372 540 l 92 540 m 352 594 q 396 609 379 594 q 413 655 413 623 q 398 712 413 692 q 355 732 383 732 q 317 719 335 732 q 282 687 299 706 q 249 643 265 667 q 220 596 234 619 q 220 594 220 595 l 352 594 z "},"ﭧ":{"ha":1416,"x_min":90,"x_max":1428,"o":"m 1428 78 l 1428 0 l 1399 0 q 1319 14 1357 0 q 1251 55 1281 28 q 1222 87 1234 70 q 1139 29 1194 49 q 1065 11 1107 18 q 967 2 1023 5 q 842 -1 912 -1 q 685 -1 772 -1 q 562 -1 620 -1 q 452 2 503 -1 q 355 10 400 4 q 273 25 311 15 q 141 95 186 47 q 90 236 90 149 q 96 303 90 267 q 108 370 102 338 q 121 422 115 401 q 127 446 126 444 l 201 424 q 199 415 201 424 q 193 391 196 406 q 185 356 189 376 q 177 316 181 337 q 170 275 173 295 q 168 236 168 254 q 175 187 168 208 q 197 148 182 165 q 235 120 212 132 q 292 100 259 108 q 369 86 326 91 q 462 79 412 81 q 568 77 512 77 q 685 76 624 76 q 831 77 765 76 q 951 80 898 77 q 1045 87 1004 82 q 1113 102 1086 93 q 1147 121 1134 110 q 1169 148 1160 132 q 1179 183 1176 163 q 1184 234 1183 204 l 1184 427 l 1262 427 l 1262 258 q 1262 251 1262 255 q 1262 242 1262 247 q 1262 229 1262 237 q 1262 210 1262 222 q 1274 153 1262 177 q 1305 111 1285 128 q 1349 86 1324 95 q 1399 78 1373 78 l 1428 78 m 524 429 l 524 483 l 587 483 l 617 529 l 617 835 l 669 835 l 669 606 q 722 655 693 635 q 787 674 751 674 q 828 667 808 674 q 864 643 848 659 q 889 602 879 627 q 899 544 899 578 q 888 490 899 512 q 861 455 878 468 q 824 435 845 441 q 784 429 804 429 l 524 429 m 784 483 q 828 497 811 483 q 845 544 845 512 q 830 601 845 581 q 787 621 815 621 q 749 608 767 621 q 713 575 730 595 q 681 532 696 556 q 652 485 665 508 q 652 483 652 484 l 784 483 z "},"ة":{"ha":658,"x_min":71,"x_max":590,"o":"m 330 0 q 229 17 277 0 q 147 65 182 35 q 92 136 112 95 q 71 223 71 177 q 83 304 71 267 q 113 373 95 342 q 152 430 131 404 q 190 476 173 455 q 211 500 199 487 q 234 525 222 513 q 256 548 245 537 q 276 569 267 559 l 227 624 l 283 676 q 299 659 284 676 q 337 618 314 643 q 388 562 360 593 q 441 501 415 531 q 500 431 473 465 q 547 363 527 396 q 578 296 567 330 q 590 225 590 262 q 569 136 590 178 q 509 62 549 94 q 427 16 473 32 q 330 0 381 0 m 328 511 q 309 492 319 503 q 289 471 299 482 q 269 449 278 460 q 251 427 259 437 q 217 387 235 409 q 184 340 199 366 q 159 285 169 314 q 149 223 149 256 q 162 168 149 194 q 200 122 176 142 q 260 89 227 100 q 330 78 294 78 q 401 89 368 78 q 459 121 434 101 q 498 168 484 141 q 512 225 512 195 q 504 274 512 249 q 479 325 496 298 q 439 382 463 352 q 383 450 415 413 l 328 511 m 444 789 l 366 868 q 405 908 388 890 q 443 946 422 925 l 523 867 l 444 789 m 188 790 l 110 869 q 149 909 131 891 q 187 948 166 926 l 266 869 l 188 790 z "},"ﺔ":{"ha":801,"x_min":45,"x_max":809,"o":"m 809 0 l 797 0 q 704 12 747 0 q 622 47 660 24 q 547 117 579 75 q 523 157 533 135 q 504 202 512 178 q 455 130 484 162 q 383 81 426 97 q 273 61 328 59 q 174 84 218 62 q 97 146 129 106 q 56 239 65 186 q 67 363 45 304 q 137 468 90 422 q 249 549 182 514 q 402 606 316 583 l 384 691 l 461 712 q 493 575 480 634 q 518 470 507 516 q 532 409 525 438 q 545 353 538 381 q 558 299 551 326 q 573 241 565 271 q 600 178 583 204 q 637 133 616 152 q 679 104 657 115 q 723 87 701 93 q 764 80 745 81 q 797 78 783 78 l 809 78 l 809 0 m 424 532 q 291 483 349 512 q 195 417 234 453 q 141 339 157 381 q 132 253 124 297 q 162 191 138 217 q 218 152 186 165 q 286 138 251 138 q 348 150 321 137 q 407 193 384 168 q 441 245 429 218 q 456 299 453 272 q 460 347 460 326 q 457 382 460 369 q 455 396 455 396 q 443 448 448 427 q 435 484 439 468 q 429 510 432 499 q 424 532 426 521 m 537 846 l 458 925 q 497 964 480 947 q 535 1003 515 982 l 615 924 l 537 846 m 280 847 l 202 926 q 241 966 223 948 q 279 1004 258 983 l 359 926 l 280 847 z "},"ﭼ":{"ha":881,"x_min":-6,"x_max":810,"o":"m 270 539 q 320 531 290 539 q 389 512 351 524 q 469 485 427 500 q 554 452 511 469 q 636 419 596 436 q 709 389 676 403 q 765 365 742 375 q 799 352 789 355 l 810 282 q 694 198 747 236 q 586 128 640 159 q 475 73 533 97 q 348 33 418 49 q 191 8 278 16 q -6 0 105 0 l -6 78 q 163 83 88 77 q 299 101 237 89 q 413 133 360 114 q 515 177 465 152 q 615 236 564 203 q 725 308 666 268 q 635 342 681 324 q 543 377 588 360 q 455 409 497 394 q 376 436 412 424 q 312 454 340 448 q 270 461 285 461 q 198 429 230 461 q 152 342 166 398 l 76 361 q 103 430 86 398 q 145 486 121 462 q 201 524 170 510 q 270 539 232 539 m 480 -226 l 558 -147 l 636 -225 l 557 -304 l 480 -226 m 225 -228 q 265 -188 247 -206 q 304 -150 283 -170 q 344 -189 326 -171 q 383 -228 362 -208 l 304 -307 l 225 -228 m 350 -394 l 429 -315 l 507 -393 l 428 -472 l 350 -394 z "},"ﭽ":{"ha":967,"x_min":-4,"x_max":973,"o":"m 973 0 l 927 0 q 881 3 907 0 q 831 13 856 6 q 784 28 806 19 q 748 49 763 37 q 702 102 720 71 q 679 169 685 133 q 592 119 636 142 q 501 76 549 95 q 401 43 454 57 q 287 20 348 29 q 153 5 225 10 q -4 0 81 0 l -4 78 q 167 83 90 78 q 308 101 244 89 q 429 132 373 113 q 538 176 485 150 q 643 233 590 201 q 755 306 696 266 q 665 340 711 322 q 573 375 619 358 q 485 408 528 392 q 407 435 443 424 q 343 454 371 447 q 301 461 316 461 q 229 429 261 461 q 182 342 197 398 l 107 361 q 134 430 117 398 q 176 486 152 462 q 232 524 201 510 q 301 539 263 539 q 351 531 321 539 q 420 512 382 524 q 500 485 458 500 q 585 452 542 469 q 667 419 627 436 q 740 389 706 403 q 796 365 773 375 q 830 352 820 355 l 841 282 q 794 247 817 264 q 749 215 771 231 q 763 156 749 182 q 801 113 777 130 q 857 86 824 95 q 927 78 890 78 l 973 78 l 973 0 m 485 -227 l 564 -148 l 642 -225 l 563 -305 l 485 -227 m 231 -229 q 271 -189 253 -206 q 309 -150 289 -171 q 349 -190 331 -172 q 389 -229 367 -208 l 310 -307 l 231 -229 m 356 -395 l 434 -316 l 513 -393 l 434 -473 l 356 -395 z "},"ج":{"ha":941,"x_min":54,"x_max":845,"o":"m 302 684 q 327 681 316 682 q 350 677 337 680 q 382 669 363 674 q 431 651 400 663 q 507 621 461 640 q 621 574 553 602 q 705 538 664 556 q 776 507 745 520 q 826 485 807 493 q 845 476 845 476 l 843 404 q 815 394 842 404 q 736 365 787 384 q 613 319 686 346 q 451 258 541 292 q 392 236 422 247 q 331 212 361 225 q 271 183 301 199 q 216 146 242 167 q 154 68 173 112 q 139 -35 136 25 q 158 -114 141 -79 q 202 -175 174 -149 q 265 -220 229 -201 q 342 -249 302 -238 q 424 -266 382 -261 q 507 -271 467 -271 l 783 -271 l 783 -348 l 507 -348 q 341 -330 420 -348 q 201 -272 262 -311 q 102 -176 140 -234 q 61 -39 65 -117 q 167 206 54 116 q 226 247 195 229 q 290 278 258 264 q 357 306 323 293 q 424 331 391 318 q 521 366 473 349 q 612 397 569 383 q 691 423 655 411 q 753 444 727 435 q 664 482 710 463 q 573 519 618 501 q 484 553 527 537 q 405 581 441 569 q 342 600 369 593 q 302 607 316 607 q 230 575 262 607 q 184 487 198 544 l 109 507 q 135 573 118 542 q 176 628 152 604 q 232 668 200 653 q 302 684 263 682 m 475 27 l 547 99 l 622 25 l 549 -48 l 475 27 z "},"ﺟ":{"ha":908,"x_min":-6,"x_max":810,"o":"m 270 539 q 320 531 290 539 q 389 512 351 524 q 469 485 427 500 q 554 452 511 469 q 636 419 596 436 q 709 389 676 403 q 765 365 742 375 q 799 352 789 355 l 810 282 q 694 198 747 236 q 586 128 640 159 q 475 73 533 97 q 348 33 418 49 q 191 8 278 16 q -6 0 105 0 l -6 78 q 163 83 88 77 q 299 101 237 89 q 413 133 360 114 q 515 177 465 152 q 615 236 564 203 q 725 308 666 268 q 635 342 681 324 q 543 377 588 360 q 455 409 497 394 q 376 436 412 424 q 312 454 340 448 q 270 461 285 461 q 198 429 230 461 q 152 342 166 398 l 76 361 q 103 430 86 398 q 145 486 121 462 q 201 524 170 510 q 270 539 232 539 m 353 -226 l 425 -153 l 499 -227 l 426 -301 l 353 -226 z "},"ﺠ":{"ha":967,"x_min":-4,"x_max":973,"o":"m 973 0 l 927 0 q 881 3 907 0 q 831 13 856 6 q 784 28 806 19 q 748 49 763 37 q 702 102 720 71 q 679 169 685 133 q 592 119 636 142 q 501 76 549 95 q 401 43 454 57 q 287 20 348 29 q 153 5 225 10 q -4 0 81 0 l -4 78 q 167 83 90 78 q 308 101 244 89 q 429 132 373 113 q 538 176 485 150 q 643 233 590 201 q 755 306 696 266 q 665 340 711 322 q 573 375 619 358 q 485 408 528 392 q 407 435 443 424 q 343 454 371 447 q 301 461 316 461 q 229 429 261 461 q 182 342 197 398 l 107 361 q 134 430 117 398 q 176 486 152 462 q 232 524 201 510 q 301 539 263 539 q 351 531 321 539 q 420 512 382 524 q 500 485 458 500 q 585 452 542 469 q 667 419 627 436 q 740 389 706 403 q 796 365 773 375 q 830 352 820 355 l 841 282 q 794 247 817 264 q 749 215 771 231 q 763 156 749 182 q 801 113 777 130 q 857 86 824 95 q 927 78 890 78 l 973 78 l 973 0 m 364 -226 l 436 -153 l 510 -227 l 437 -301 l 364 -226 z "},"ﺞ":{"ha":999,"x_min":44,"x_max":1008,"o":"m 293 554 q 318 551 307 552 q 341 546 328 549 q 372 538 354 544 q 421 521 391 532 q 498 490 452 509 q 611 443 544 472 q 695 407 655 425 q 767 376 735 390 q 817 354 798 362 q 836 345 836 345 l 833 273 q 806 263 833 273 q 728 234 778 253 l 728 200 q 741 143 728 166 q 773 105 753 119 q 817 84 793 90 q 866 78 842 78 l 1008 78 l 1008 0 l 866 0 q 785 13 823 0 q 718 49 747 25 q 668 115 685 76 q 650 200 650 153 l 650 206 q 555 170 607 189 q 442 128 503 150 q 382 106 413 117 q 321 82 352 95 q 262 53 291 69 q 206 15 232 37 q 145 -62 164 -19 q 129 -165 126 -106 q 148 -245 131 -210 q 192 -306 165 -280 q 256 -350 220 -332 q 332 -380 292 -369 q 415 -396 372 -391 q 497 -402 457 -402 l 774 -402 l 774 -479 l 497 -479 q 331 -460 410 -479 q 191 -403 253 -441 q 93 -306 130 -364 q 52 -169 56 -248 q 158 76 44 -15 q 217 116 186 98 q 281 148 248 133 q 348 175 314 162 q 415 200 381 188 q 512 235 463 218 q 605 265 561 251 q 687 291 650 280 q 750 313 724 303 q 661 350 708 331 q 568 388 615 369 q 478 422 522 406 q 398 450 434 438 q 334 469 361 462 q 292 476 306 476 q 221 444 253 476 q 174 357 189 413 l 99 376 q 125 442 109 411 q 166 498 142 473 q 222 537 191 522 q 293 554 254 552 m 465 -125 l 537 -52 l 611 -126 l 538 -199 l 465 -125 z "},"خ":{"ha":925,"x_min":54,"x_max":845,"o":"m 302 684 q 327 681 316 682 q 350 677 337 680 q 382 669 363 674 q 431 651 400 663 q 507 621 461 640 q 621 574 553 602 q 705 538 664 556 q 776 507 745 520 q 826 485 807 493 q 845 476 845 476 l 843 404 q 815 394 842 404 q 736 365 787 384 q 613 319 686 346 q 451 258 541 292 q 392 236 422 247 q 331 212 361 225 q 271 183 301 199 q 216 146 242 167 q 154 68 173 112 q 139 -35 136 25 q 158 -114 141 -79 q 202 -175 174 -149 q 265 -220 229 -201 q 342 -249 302 -238 q 424 -266 382 -261 q 507 -271 467 -271 l 783 -271 l 783 -348 l 507 -348 q 341 -330 420 -348 q 201 -272 262 -311 q 102 -176 140 -234 q 61 -39 65 -117 q 167 206 54 116 q 226 247 195 229 q 290 278 258 264 q 357 306 323 293 q 424 331 391 318 q 521 366 473 349 q 612 397 569 383 q 691 423 655 411 q 753 444 727 435 q 664 482 710 463 q 573 519 618 501 q 484 553 527 537 q 405 581 441 569 q 342 600 369 593 q 302 607 316 607 q 230 575 262 607 q 184 487 198 544 l 109 507 q 135 573 118 542 q 176 628 152 604 q 232 668 200 653 q 302 684 263 682 m 236 926 l 317 1008 l 400 924 l 318 842 l 236 926 z "},"ﺧ":{"ha":886,"x_min":-6,"x_max":810,"o":"m 270 539 q 320 531 290 539 q 389 512 351 524 q 469 485 427 500 q 554 452 511 469 q 636 419 596 436 q 709 389 676 403 q 765 365 742 375 q 799 352 789 355 l 810 282 q 694 198 747 236 q 586 128 640 159 q 475 73 533 97 q 348 33 418 49 q 191 8 278 16 q -6 0 105 0 l -6 78 q 163 83 88 77 q 299 101 237 89 q 413 133 360 114 q 515 177 465 152 q 615 236 564 203 q 725 308 666 268 q 635 342 681 324 q 543 377 588 360 q 455 409 497 394 q 376 436 412 424 q 312 454 340 448 q 270 461 285 461 q 198 429 230 461 q 152 342 166 398 l 76 361 q 103 430 86 398 q 145 486 121 462 q 201 524 170 510 q 270 539 232 539 m 194 796 l 275 878 l 359 795 l 277 713 l 194 796 z "},"ﺨ":{"ha":964,"x_min":-4,"x_max":973,"o":"m 973 0 l 927 0 q 881 3 907 0 q 831 13 856 6 q 784 28 806 19 q 748 49 763 37 q 702 102 720 71 q 679 169 685 133 q 592 119 636 142 q 501 76 549 95 q 401 43 454 57 q 287 20 348 29 q 153 5 225 10 q -4 0 81 0 l -4 78 q 167 83 90 78 q 308 101 244 89 q 429 132 373 113 q 538 176 485 150 q 643 233 590 201 q 755 306 696 266 q 665 340 711 322 q 573 375 619 358 q 485 408 528 392 q 407 435 443 424 q 343 454 371 447 q 301 461 316 461 q 229 429 261 461 q 182 342 197 398 l 107 361 q 134 430 117 398 q 176 486 152 462 q 232 524 201 510 q 301 539 263 539 q 351 531 321 539 q 420 512 382 524 q 500 485 458 500 q 585 452 542 469 q 667 419 627 436 q 740 389 706 403 q 796 365 773 375 q 830 352 820 355 l 841 282 q 794 247 817 264 q 749 215 771 231 q 763 156 749 182 q 801 113 777 130 q 857 86 824 95 q 927 78 890 78 l 973 78 l 973 0 m 198 796 l 278 878 l 362 795 l 280 713 l 198 796 z "},"ﺦ":{"ha":995,"x_min":44,"x_max":1008,"o":"m 293 554 q 318 551 307 552 q 341 546 328 549 q 372 538 354 544 q 421 521 391 532 q 498 490 452 509 q 611 443 544 472 q 695 407 655 425 q 767 376 735 390 q 817 354 798 362 q 836 345 836 345 l 833 273 q 806 263 833 273 q 728 234 778 253 l 728 200 q 741 143 728 166 q 773 105 753 119 q 817 84 793 90 q 866 78 842 78 l 1008 78 l 1008 0 l 866 0 q 785 13 823 0 q 718 49 747 25 q 668 115 685 76 q 650 200 650 153 l 650 206 q 555 170 607 189 q 442 128 503 150 q 382 106 413 117 q 321 82 352 95 q 262 53 291 69 q 206 15 232 37 q 145 -62 164 -19 q 129 -165 126 -106 q 148 -245 131 -210 q 192 -306 165 -280 q 256 -350 220 -332 q 332 -380 292 -369 q 415 -396 372 -391 q 497 -402 457 -402 l 774 -402 l 774 -479 l 497 -479 q 331 -460 410 -479 q 191 -403 253 -441 q 93 -306 130 -364 q 52 -169 56 -248 q 158 76 44 -15 q 217 116 186 98 q 281 148 248 133 q 348 175 314 162 q 415 200 381 188 q 512 235 463 218 q 605 265 561 251 q 687 291 650 280 q 750 313 724 303 q 661 350 708 331 q 568 388 615 369 q 478 422 522 406 q 398 450 434 438 q 334 469 361 462 q 292 476 306 476 q 221 444 253 476 q 174 357 189 413 l 99 376 q 125 442 109 411 q 166 498 142 473 q 222 537 191 522 q 293 554 254 552 m 243 795 l 324 877 l 407 794 l 325 711 l 243 795 z "},"ذ":{"ha":677,"x_min":64,"x_max":634,"o":"m 362 -5 q 265 3 314 -5 q 173 24 216 10 q 98 57 130 39 l 64 77 l 104 144 l 138 124 q 201 97 164 108 q 278 79 237 85 q 360 73 318 73 q 436 79 401 73 q 506 104 478 86 q 545 147 535 121 q 550 197 555 170 q 527 253 545 225 q 443 378 478 326 q 384 467 408 431 q 346 525 360 503 q 324 559 331 547 q 313 575 316 571 q 310 580 310 580 l 289 613 l 355 655 q 366 636 360 646 q 383 610 373 626 q 409 570 393 595 q 450 509 426 546 q 509 420 474 472 q 591 296 544 368 q 628 205 621 251 q 617 117 634 158 q 555 43 598 72 q 449 3 512 13 q 362 -5 410 -5 m 242 895 l 323 977 l 406 894 l 324 812 l 242 895 z "},"ﺬ":{"ha":797,"x_min":61,"x_max":802,"o":"m 802 78 l 802 0 l 792 0 q 744 9 769 0 q 696 33 720 18 q 651 70 672 49 q 614 115 630 91 q 614 113 614 114 q 613 112 614 112 q 572 56 599 79 q 510 18 545 33 q 437 -3 476 3 q 359 -10 397 -10 q 280 -6 317 -10 q 209 8 244 -2 q 137 33 174 17 q 61 72 101 49 l 100 139 l 133 119 q 196 92 160 103 q 274 74 233 80 q 356 68 314 68 q 432 74 397 68 q 504 98 474 81 q 545 141 534 116 q 548 192 554 164 q 523 248 541 220 l 285 608 l 350 650 l 606 263 q 652 193 629 227 q 699 134 676 160 q 745 93 722 109 q 792 78 768 78 l 802 78 m 264 895 l 345 977 l 428 894 l 346 812 l 264 895 z "},"ڈ":{"ha":684,"x_min":64,"x_max":634,"o":"m 362 -5 q 265 3 314 -5 q 173 24 216 10 q 98 57 130 39 l 64 77 l 104 144 l 138 124 q 201 97 164 108 q 278 79 237 85 q 360 73 318 73 q 436 79 401 73 q 506 104 478 86 q 545 147 535 121 q 550 197 555 170 q 527 253 545 225 q 443 378 478 326 q 384 467 408 431 q 346 525 360 503 q 324 559 331 547 q 313 575 316 571 q 310 580 310 580 l 289 613 l 355 655 q 366 636 360 646 q 383 610 373 626 q 409 570 393 595 q 450 509 426 546 q 509 420 474 472 q 591 296 544 368 q 628 205 621 251 q 617 117 634 158 q 555 43 598 72 q 449 3 512 13 q 362 -5 410 -5 m 140 790 l 140 844 l 203 844 l 233 890 l 233 1196 l 285 1196 l 285 967 q 338 1016 309 996 q 403 1035 367 1035 q 444 1028 424 1035 q 480 1004 464 1020 q 505 963 496 988 q 515 905 515 939 q 504 851 515 873 q 477 816 494 830 q 440 796 461 802 q 400 790 420 790 l 140 790 m 400 844 q 444 859 427 844 q 461 905 461 873 q 446 962 461 942 q 403 982 431 982 q 365 969 383 982 q 330 937 347 956 q 297 893 313 917 q 268 846 282 869 q 268 844 268 845 l 400 844 z "},"ﮉ":{"ha":798,"x_min":61,"x_max":802,"o":"m 802 78 l 802 0 l 792 0 q 744 9 769 0 q 696 33 720 18 q 651 70 672 49 q 614 115 630 91 q 614 113 614 114 q 613 112 614 112 q 572 56 599 79 q 510 18 545 33 q 437 -3 476 3 q 359 -10 397 -10 q 280 -6 317 -10 q 209 8 244 -2 q 137 33 174 17 q 61 72 101 49 l 100 139 l 133 119 q 196 92 160 103 q 274 74 233 80 q 356 68 314 68 q 432 74 397 68 q 504 98 474 81 q 545 141 534 116 q 548 192 554 164 q 523 248 541 220 l 285 608 l 350 650 l 606 263 q 652 193 629 227 q 699 134 676 160 q 745 93 722 109 q 792 78 768 78 l 802 78 m 159 788 l 159 842 l 222 842 l 252 888 l 252 1194 l 304 1194 l 304 965 q 357 1013 328 994 q 422 1033 386 1033 q 463 1025 443 1033 q 499 1002 483 1018 q 524 961 515 985 q 534 903 534 936 q 523 849 534 871 q 496 813 513 827 q 459 794 480 800 q 419 788 439 788 l 159 788 m 419 842 q 463 856 446 842 q 480 903 480 871 q 465 959 480 939 q 422 979 450 979 q 384 967 402 979 q 348 934 366 954 q 316 890 331 914 q 287 843 301 866 q 287 842 287 843 l 419 842 z "},"ز":{"ha":502,"x_min":-57,"x_max":422,"o":"m -57 -349 l -57 -272 l 30 -272 q 247 -194 179 -272 q 311 21 311 -122 l 311 426 l 388 426 l 388 21 q 298 -256 388 -162 q 30 -349 207 -349 l -57 -349 m 258 700 l 339 782 l 422 699 l 340 617 l 258 700 z "},"ﺰ":{"ha":540,"x_min":-61,"x_max":552,"o":"m 552 0 l 523 0 q 449 11 484 0 q 385 42 414 21 l 385 21 q 295 -256 385 -162 q 27 -349 204 -349 l -61 -349 l -61 -272 l 27 -272 q 244 -194 176 -272 q 307 21 307 -122 l 307 195 l 307 426 l 385 426 l 385 200 q 398 143 385 166 q 430 105 410 119 q 474 84 450 90 q 523 78 499 78 l 552 78 l 552 0 m 259 682 l 340 765 l 424 681 l 342 599 l 259 682 z "},"ڑ":{"ha":496,"x_min":-57,"x_max":491,"o":"m -57 -349 l -57 -272 l 30 -272 q 247 -194 179 -272 q 311 21 311 -122 l 311 426 l 388 426 l 388 21 q 298 -256 388 -162 q 30 -349 207 -349 l -57 -349 m 116 569 l 116 623 l 179 623 l 208 669 l 208 975 l 261 975 l 261 746 q 314 795 285 775 q 379 814 343 814 q 420 807 400 814 q 455 783 439 799 q 481 742 471 767 q 491 684 491 718 q 480 630 491 652 q 453 595 469 609 q 416 575 436 581 q 376 569 395 569 l 116 569 m 376 623 q 419 638 402 623 q 436 684 436 652 q 421 741 436 721 q 379 761 407 761 q 340 748 359 761 q 305 716 322 735 q 272 672 288 696 q 244 625 257 648 q 243 623 243 624 l 376 623 z "},"ﮍ":{"ha":540,"x_min":-61,"x_max":552,"o":"m 552 0 l 523 0 q 449 11 484 0 q 385 42 414 21 l 385 21 q 295 -256 385 -162 q 27 -349 204 -349 l -61 -349 l -61 -272 l 27 -272 q 244 -194 176 -272 q 307 21 307 -122 l 307 195 l 307 426 l 385 426 l 385 200 q 398 143 385 166 q 430 105 410 119 q 474 84 450 90 q 523 78 499 78 l 552 78 l 552 0 m 102 560 l 102 614 l 165 614 l 194 660 l 194 966 l 247 966 l 247 737 q 300 785 271 766 q 365 805 329 805 q 406 797 386 805 q 441 774 426 790 q 467 733 457 758 q 477 675 477 708 q 466 621 477 643 q 439 586 455 599 q 402 566 422 572 q 362 560 381 560 l 102 560 m 362 614 q 405 628 388 614 q 422 675 422 643 q 408 731 422 711 q 365 751 393 751 q 326 739 345 751 q 291 706 308 726 q 259 662 274 686 q 230 616 243 638 q 229 614 229 615 l 362 614 z "},"ژ":{"ha":542,"x_min":-57,"x_max":538,"o":"m -57 -349 l -57 -272 l 30 -272 q 247 -194 179 -272 q 311 21 311 -122 l 311 426 l 388 426 l 388 21 q 298 -256 388 -162 q 30 -349 207 -349 l -57 -349 m 283 681 l 205 602 l 127 679 l 206 759 l 283 681 m 538 682 l 460 604 l 380 682 l 459 761 l 538 682 m 413 854 l 335 776 l 255 854 l 334 933 l 413 854 z "},"ﮋ":{"ha":538,"x_min":-61,"x_max":552,"o":"m 552 0 l 523 0 q 449 11 484 0 q 385 42 414 21 l 385 21 q 295 -256 385 -162 q 27 -349 204 -349 l -61 -349 l -61 -272 l 27 -272 q 244 -194 176 -272 q 307 21 307 -122 l 307 195 l 307 426 l 385 426 l 385 200 q 398 143 385 166 q 430 105 410 119 q 474 84 450 90 q 523 78 499 78 l 552 78 l 552 0 m 280 683 l 202 604 l 124 682 l 203 761 l 280 683 m 535 685 l 456 607 l 377 685 l 456 764 l 535 685 m 410 857 l 331 778 l 252 857 l 331 936 l 410 857 z "},"ش":{"ha":1731,"x_min":83,"x_max":1652,"o":"m 1595 506 q 1600 489 1596 504 q 1611 451 1605 474 q 1624 398 1617 427 q 1637 337 1631 368 q 1647 275 1643 306 q 1652 219 1652 244 q 1646 161 1652 187 q 1630 114 1640 134 q 1608 79 1620 94 q 1585 54 1597 64 q 1522 15 1557 28 q 1447 1 1487 1 l 1447 0 q 1271 62 1334 0 q 1262 73 1266 68 q 1253 85 1258 79 q 1239 67 1246 75 q 1224 53 1231 59 q 1158 14 1195 27 q 1080 0 1121 0 q 919 54 977 0 l 919 -32 q 852 -252 919 -175 q 745 -324 811 -301 q 581 -349 677 -349 l 430 -349 q 265 -309 339 -349 q 145 -196 191 -270 q 117 -143 129 -171 q 98 -84 105 -116 q 86 53 83 -20 q 182 395 93 211 l 252 362 q 192 208 213 282 q 164 69 170 134 q 170 -53 159 3 q 210 -155 182 -110 q 303 -241 246 -211 q 430 -271 360 -271 l 581 -271 q 794 -201 733 -271 q 842 -32 842 -146 l 842 426 l 919 426 l 919 287 q 968 115 919 164 q 1014 87 986 96 q 1080 78 1041 78 q 1127 85 1104 78 q 1170 109 1151 93 q 1202 152 1190 126 q 1215 218 1215 179 l 1215 426 l 1292 426 l 1292 218 q 1444 78 1292 80 l 1444 78 q 1490 86 1467 78 q 1531 110 1513 93 q 1562 153 1550 126 q 1574 219 1574 180 q 1570 270 1574 242 q 1560 327 1566 298 q 1548 384 1554 357 q 1535 434 1541 412 q 1525 469 1529 456 q 1521 484 1521 483 l 1595 506 l 1595 506 m 1186 700 l 1107 621 l 1029 699 l 1108 778 l 1186 700 m 1440 702 l 1362 624 l 1282 702 l 1361 781 l 1440 702 m 1315 874 l 1237 795 l 1157 874 l 1236 953 l 1315 874 z "},"ﺷ":{"ha":1116,"x_min":-13,"x_max":1041,"o":"m -13 78 l 106 78 q 153 85 129 78 q 196 109 177 93 q 228 152 216 126 q 241 218 241 179 l 241 426 l 318 426 l 318 218 q 470 78 318 80 q 517 85 493 78 q 560 109 540 93 q 592 152 580 126 q 604 218 604 179 l 604 426 l 682 426 l 682 218 q 833 78 682 80 l 833 78 q 879 86 856 78 q 921 110 902 93 q 951 153 939 126 q 963 219 963 180 q 960 270 963 242 q 950 327 956 298 q 937 384 944 357 q 925 434 931 412 q 915 469 919 456 q 911 484 911 483 l 985 506 q 990 489 985 504 q 1001 451 994 474 q 1014 398 1007 427 q 1027 337 1021 368 q 1037 275 1033 306 q 1041 219 1041 244 q 1035 161 1041 187 q 1019 114 1029 134 q 998 79 1009 94 q 975 54 986 64 q 912 15 947 28 q 836 1 876 1 l 836 0 q 661 62 723 0 q 652 73 656 68 q 643 85 647 79 q 628 67 636 75 q 614 53 621 59 q 546 14 585 27 q 467 0 508 0 q 290 62 352 0 q 280 73 285 68 q 271 85 276 79 q 257 67 265 75 q 242 53 249 59 q 176 14 213 27 q 98 0 140 0 l -13 0 l -13 78 m 600 706 l 521 627 l 443 705 l 522 784 l 600 706 m 854 708 l 776 629 l 696 708 l 775 787 l 854 708 m 729 879 l 651 801 l 571 879 l 650 958 l 729 879 z "},"ﺸ":{"ha":1126,"x_min":-17,"x_max":1136,"o":"m 1102 0 q 1045 5 1073 0 q 992 20 1016 9 q 947 46 967 30 q 914 85 927 62 q 899 67 907 75 q 884 53 891 59 q 820 14 855 27 q 744 0 785 0 q 685 5 711 0 q 637 21 658 11 q 598 48 616 32 q 564 85 580 64 q 490 22 534 44 q 394 0 446 0 q 298 16 337 0 q 229 62 259 32 q 219 73 223 68 q 210 85 215 79 q 196 67 203 75 q 181 53 188 59 q 115 14 152 27 q 37 0 78 0 l -17 0 l -17 78 l 45 78 q 92 85 68 78 q 135 109 116 93 q 167 152 155 126 q 179 218 179 179 l 179 426 l 257 426 l 257 218 q 289 114 257 149 q 397 78 322 78 q 443 85 420 78 q 485 109 467 93 q 515 152 503 126 q 526 218 526 179 l 526 426 l 604 426 l 604 218 q 636 114 604 149 q 744 78 669 78 q 791 85 768 78 q 833 109 814 93 q 863 152 852 126 q 875 218 875 179 l 875 426 l 953 426 l 953 218 q 1103 78 953 80 l 1136 78 l 1136 0 l 1102 0 l 1102 0 m 510 683 l 432 604 l 354 682 l 432 761 l 510 683 m 765 685 l 686 607 l 607 685 l 686 764 l 765 685 m 640 857 l 561 778 l 482 857 l 561 936 l 640 857 z "},"ﺶ":{"ha":1843,"x_min":95,"x_max":1860,"o":"m 1825 0 q 1711 21 1759 1 q 1631 85 1664 40 q 1556 22 1601 44 q 1458 0 1511 0 q 1344 21 1392 0 q 1265 85 1297 42 q 1190 20 1236 39 q 1092 0 1144 0 q 931 54 989 0 l 931 -32 q 864 -252 931 -175 q 756 -324 822 -301 q 592 -349 689 -349 l 441 -349 q 276 -309 350 -349 q 156 -196 202 -270 q 128 -143 140 -171 q 110 -84 117 -116 q 97 53 95 -20 q 193 395 105 211 l 263 362 q 203 208 225 282 q 176 69 181 134 q 182 -53 170 3 q 222 -155 193 -110 q 314 -241 257 -211 q 441 -271 371 -271 l 592 -271 q 805 -201 744 -271 q 853 -32 853 -146 l 853 426 l 931 426 l 931 287 q 979 115 931 164 q 1025 87 997 96 q 1092 78 1052 78 q 1139 85 1115 78 q 1182 109 1162 93 q 1214 152 1201 126 q 1226 218 1226 179 l 1226 426 l 1304 426 l 1304 218 q 1343 114 1304 149 q 1458 78 1383 79 q 1505 85 1482 78 q 1549 109 1529 93 q 1580 152 1568 126 q 1593 218 1593 179 l 1593 426 l 1670 426 l 1670 218 q 1710 114 1670 149 q 1825 78 1749 79 l 1860 78 l 1860 0 l 1825 0 l 1825 0 m 1210 683 l 1132 604 l 1054 682 l 1133 761 l 1210 683 m 1465 685 l 1386 607 l 1307 685 l 1386 764 l 1465 685 m 1340 857 l 1261 778 l 1182 857 l 1261 936 l 1340 857 z "},"ض":{"ha":1742,"x_min":93,"x_max":1677,"o":"m 1447 539 q 1516 527 1484 539 q 1573 492 1547 514 q 1618 441 1598 470 q 1651 379 1638 412 q 1670 309 1664 345 q 1677 238 1677 273 q 1668 164 1677 196 q 1644 107 1658 131 q 1612 67 1630 83 q 1578 40 1595 51 q 1534 19 1556 27 q 1493 7 1513 11 q 1457 1 1473 3 q 1432 0 1441 0 l 1071 0 q 997 11 1032 0 q 934 42 962 21 l 934 -33 q 925 -123 934 -79 q 896 -206 916 -168 q 842 -275 875 -245 q 759 -323 808 -306 q 595 -347 691 -347 l 444 -347 q 277 -307 352 -347 q 155 -193 202 -267 q 107 -74 121 -137 q 96 56 93 -11 q 123 218 99 134 q 191 395 147 302 l 261 361 q 201 209 223 282 q 175 71 180 136 q 181 -51 169 6 q 221 -152 193 -107 q 315 -239 257 -208 q 444 -270 373 -270 l 595 -270 q 713 -258 664 -270 q 794 -217 762 -245 q 841 -143 826 -188 q 856 -33 856 -98 l 856 424 l 934 424 l 934 199 q 953 130 934 157 q 1001 92 973 104 q 1050 170 1027 130 q 1099 251 1074 211 q 1152 330 1124 291 q 1212 407 1179 369 q 1329 507 1271 474 q 1447 539 1387 539 m 1432 78 q 1462 80 1444 78 q 1498 87 1479 81 q 1534 104 1516 93 q 1567 132 1552 114 q 1590 176 1581 150 q 1599 238 1599 202 q 1586 334 1599 292 q 1551 405 1573 376 q 1502 448 1529 433 q 1447 462 1475 462 q 1361 436 1405 462 q 1270 355 1318 409 q 1227 301 1248 330 q 1183 238 1205 272 q 1136 164 1160 203 q 1084 78 1112 124 l 1432 78 m 1344 776 l 1425 858 l 1508 775 l 1426 693 l 1344 776 z "},"ﺿ":{"ha":1141,"x_min":-7,"x_max":1068,"o":"m 841 541 q 914 528 882 541 q 972 493 947 515 q 1015 441 997 471 q 1045 378 1033 412 q 1063 308 1057 344 q 1068 238 1068 273 q 1059 164 1068 196 q 1037 108 1051 132 q 1006 67 1023 83 q 973 40 989 51 q 932 19 953 27 q 893 7 912 11 q 858 1 874 3 q 830 0 842 0 l 465 0 q 384 12 422 0 q 318 49 347 25 q 290 78 301 62 q 285 72 287 74 q 280 66 282 69 q 91 0 218 0 l -7 0 l -7 78 l 91 78 q 223 119 185 78 q 250 197 250 148 l 250 426 l 328 426 l 328 200 q 346 132 328 158 q 393 93 365 106 l 435 162 q 514 287 472 223 q 604 407 556 352 q 722 508 664 475 q 841 541 780 541 m 830 78 q 859 80 842 78 q 893 87 875 81 q 928 104 911 93 q 960 132 946 114 q 982 176 973 150 q 991 238 991 202 q 983 315 991 275 q 959 388 976 355 q 913 442 942 420 q 841 463 884 463 q 662 355 757 463 q 577 242 617 304 q 501 121 537 181 q 488 99 494 110 q 474 78 481 88 l 830 78 m 737 782 l 818 864 l 901 780 l 819 698 l 737 782 z "},"ﻀ":{"ha":1170,"x_min":-7,"x_max":1181,"o":"m 465 0 q 384 12 422 0 q 318 49 347 25 q 290 78 301 62 q 285 72 287 74 q 280 66 282 69 q 91 0 218 0 l -7 0 l -7 78 l 91 78 q 223 119 185 78 q 250 197 250 148 l 250 426 l 328 426 l 328 200 q 346 132 328 158 q 393 93 365 106 l 435 162 q 514 287 472 223 q 604 407 556 352 q 722 508 664 475 q 841 541 780 541 q 914 528 882 541 q 972 493 947 515 q 1015 441 997 471 q 1045 378 1033 412 q 1063 308 1057 344 q 1068 238 1068 273 q 1053 142 1068 181 q 1016 78 1037 103 l 1181 78 l 1181 0 l 465 0 m 501 121 q 488 99 494 110 q 474 78 481 88 l 838 78 q 867 81 850 78 q 900 90 883 83 q 933 107 917 96 q 962 136 949 118 q 983 178 975 153 q 991 238 991 203 q 983 315 991 275 q 959 388 976 355 q 913 442 942 420 q 841 463 884 463 q 662 355 757 463 q 577 242 617 304 q 501 121 537 181 m 747 785 l 828 867 l 912 783 l 830 701 l 747 785 z "},"ﺾ":{"ha":1778,"x_min":93,"x_max":1787,"o":"m 1447 539 q 1516 527 1484 539 q 1573 492 1547 514 q 1618 441 1598 470 q 1651 379 1638 412 q 1670 309 1664 345 q 1677 238 1677 273 q 1661 142 1677 181 q 1622 78 1645 103 l 1787 78 l 1787 0 l 1441 0 l 1432 0 l 1071 0 q 997 11 1032 0 q 934 42 962 21 l 934 -33 q 925 -123 934 -79 q 896 -206 916 -168 q 842 -275 875 -245 q 759 -323 808 -306 q 595 -347 691 -347 l 444 -347 q 277 -307 352 -347 q 155 -193 202 -267 q 107 -74 121 -137 q 96 56 93 -11 q 123 218 99 134 q 191 395 147 302 l 261 361 q 201 209 223 282 q 175 71 180 136 q 181 -51 169 6 q 221 -152 193 -107 q 315 -239 257 -208 q 444 -270 373 -270 l 595 -270 q 713 -258 664 -270 q 794 -217 762 -245 q 841 -143 826 -188 q 856 -33 856 -98 l 856 424 l 934 424 l 934 199 q 953 130 934 157 q 1001 92 973 104 q 1050 170 1027 130 q 1099 251 1074 211 q 1152 330 1124 291 q 1212 407 1179 369 q 1329 507 1271 474 q 1447 539 1387 539 m 1432 78 q 1462 80 1444 78 q 1498 87 1479 81 q 1534 104 1516 93 q 1567 132 1552 114 q 1590 176 1581 150 q 1599 238 1599 202 q 1586 334 1599 292 q 1551 405 1573 376 q 1502 448 1529 433 q 1447 462 1475 462 q 1361 436 1405 462 q 1270 355 1318 409 q 1227 301 1248 330 q 1183 238 1205 272 q 1136 164 1160 203 q 1084 78 1112 124 l 1432 78 m 1359 785 l 1439 867 l 1523 783 l 1441 701 l 1359 785 z "},"ظ":{"ha":967,"x_min":56,"x_max":870,"o":"m 819 453 q 870 239 870 378 q 860 164 870 196 q 833 107 849 131 q 797 66 817 83 q 758 39 777 50 q 710 18 734 26 q 664 6 686 10 q 627 1 643 2 q 604 0 611 0 l 56 0 l 56 78 l 205 78 q 234 124 219 100 q 263 175 248 148 l 278 201 l 278 900 l 356 900 l 356 328 q 387 372 371 350 q 420 414 403 393 q 645 542 530 542 q 746 520 702 542 q 819 453 790 497 m 604 78 q 628 79 611 78 q 667 86 646 80 q 710 101 688 91 q 751 129 732 111 q 781 174 769 147 q 792 239 792 200 q 754 411 792 353 q 645 465 718 465 q 585 450 614 465 q 527 412 555 436 q 473 355 499 388 q 422 287 446 323 q 374 211 397 250 q 330 136 351 173 q 296 78 313 106 l 604 78 m 575 813 l 656 895 l 739 811 l 657 729 l 575 813 z "},"ﻇ":{"ha":881,"x_min":-22,"x_max":789,"o":"m 737 453 q 789 239 789 378 q 778 164 789 196 q 752 107 768 131 q 716 66 735 83 q 677 39 696 50 q 628 18 653 26 q 583 6 604 10 q 546 1 562 2 q 522 0 530 0 l -22 0 l -22 78 l 124 78 q 152 124 138 100 q 182 175 167 148 l 197 201 l 197 900 l 275 900 l 275 328 q 306 372 290 350 q 339 414 322 393 q 564 542 448 542 q 664 520 621 542 q 737 453 708 497 m 522 78 q 547 79 530 78 q 585 86 564 80 q 628 101 606 91 q 669 129 651 111 q 699 174 688 147 q 711 239 711 200 q 673 411 711 353 q 564 465 637 465 q 503 450 533 465 q 445 412 473 436 q 391 355 417 388 q 340 287 365 323 q 293 211 316 250 q 249 136 270 173 q 215 78 232 106 l 522 78 m 498 809 l 579 891 l 662 808 l 580 726 l 498 809 z "},"ﻈ":{"ha":917,"x_min":-5,"x_max":925,"o":"m 924 0 l -5 0 l -5 78 l 153 78 q 181 124 167 100 q 211 175 196 148 l 226 201 l 226 900 l 304 900 l 304 328 q 335 372 319 350 q 368 414 351 393 q 593 542 477 542 q 693 520 650 542 q 766 453 737 497 q 818 239 818 378 q 800 142 818 182 q 757 78 782 103 l 925 78 l 924 0 m 551 78 q 576 79 559 78 q 614 86 593 80 q 658 101 635 91 q 698 129 680 111 q 728 174 717 147 q 740 239 740 200 q 702 411 740 353 q 593 465 666 465 q 532 450 562 465 q 474 412 503 436 q 420 355 446 388 q 369 287 394 323 q 322 211 345 250 q 278 136 299 173 q 244 78 261 106 l 551 78 m 511 810 l 592 892 l 676 809 l 593 727 l 511 810 z "},"ﻆ":{"ha":1003,"x_min":71,"x_max":1019,"o":"m 1018 0 l 71 0 l 71 78 l 221 78 q 249 124 235 100 q 279 175 264 148 l 294 201 l 294 900 l 372 900 l 372 328 q 403 372 387 350 q 436 414 419 393 q 661 542 545 542 q 762 520 718 542 q 835 453 806 497 q 886 239 886 378 q 868 142 886 182 q 825 78 850 103 l 1019 78 l 1018 0 m 619 78 q 644 79 627 78 q 682 86 662 80 q 726 101 703 91 q 766 129 748 111 q 796 174 785 147 q 808 239 808 200 q 770 411 808 353 q 661 465 734 465 q 600 450 629 465 q 543 412 571 436 q 488 355 515 388 q 437 287 462 323 q 390 211 413 250 q 346 136 367 173 q 312 78 329 106 l 619 78 m 588 811 l 669 893 l 752 809 l 670 727 l 588 811 z "},"غ":{"ha":864,"x_min":55,"x_max":778,"o":"m 388 228 q 305 213 349 228 q 222 168 260 199 q 158 91 183 138 q 133 -21 133 44 q 146 -106 133 -69 q 183 -170 160 -143 q 237 -217 206 -198 q 304 -248 268 -237 q 378 -265 340 -260 q 453 -271 416 -271 l 753 -271 l 753 -348 l 453 -348 q 307 -330 379 -348 q 180 -272 236 -311 q 89 -170 124 -232 q 55 -21 55 -108 q 85 113 55 49 q 170 224 114 177 q 274 284 216 263 q 392 306 333 306 q 375 318 383 312 q 360 331 367 324 q 320 373 338 350 q 289 421 302 396 q 269 475 277 447 q 262 532 262 503 q 283 624 262 580 q 339 700 304 667 q 419 753 374 734 q 511 772 463 772 q 568 765 541 772 q 625 747 596 759 q 685 717 654 734 q 754 679 717 700 l 715 611 q 663 640 689 626 q 610 667 636 655 q 558 687 583 679 q 511 694 533 694 q 450 682 481 694 q 395 648 420 670 q 355 596 371 626 q 340 532 340 566 q 358 456 340 494 q 411 389 377 419 q 516 331 453 352 q 658 306 578 310 l 778 305 l 778 227 l 655 228 l 388 228 l 388 228 m 444 1004 l 525 1086 l 608 1003 l 526 920 l 444 1004 z "},"ﻏ":{"ha":749,"x_min":-8,"x_max":648,"o":"m 648 78 l 648 0 l 523 0 l -8 0 l -8 78 l 253 78 q 204 119 226 95 q 166 171 182 143 q 142 232 151 199 q 133 298 133 264 q 154 392 133 348 q 209 469 174 436 q 289 522 244 503 q 384 542 335 542 q 452 533 420 542 q 512 510 483 524 q 568 480 540 497 q 624 446 595 463 l 585 379 q 535 409 560 394 q 486 437 511 424 q 436 456 461 449 q 384 464 410 464 q 322 452 353 464 q 266 418 291 439 q 226 365 242 396 q 211 298 211 335 q 213 269 211 286 q 223 234 215 253 q 243 194 230 215 q 278 155 256 174 q 327 124 299 138 q 387 99 355 110 q 455 83 420 89 q 525 78 490 78 l 648 78 m 307 798 l 388 880 l 472 797 l 390 715 l 307 798 z "},"ﻐ":{"ha":797,"x_min":-13,"x_max":802,"o":"m 568 0 q 552 2 561 0 q 529 10 543 4 q 497 28 516 16 q 451 59 477 40 q 432 72 442 65 q 413 87 423 80 q 238 22 333 44 q 25 0 143 0 l -13 0 l -13 78 l 25 78 q 208 95 129 78 q 346 141 287 112 q 327 156 336 148 q 307 173 318 164 q 238 233 271 203 q 179 286 205 263 q 138 323 153 309 q 122 338 122 338 l 109 350 l 109 367 q 155 496 109 451 q 296 541 203 541 l 509 541 q 559 535 535 541 q 605 516 583 528 q 669 448 649 491 q 680 372 687 411 q 644 297 674 332 q 570 212 609 254 q 482 133 531 170 l 488 128 q 525 102 509 112 q 549 87 540 92 q 563 80 559 82 q 569 78 568 78 l 802 78 l 802 0 l 568 0 m 188 383 q 214 358 198 374 q 253 324 231 343 q 299 283 274 304 q 351 238 324 261 q 386 208 369 222 q 418 182 402 194 q 512 262 472 219 q 585 346 551 305 q 594 360 590 352 q 602 376 599 367 q 604 395 604 385 q 599 415 604 405 q 564 450 588 437 q 509 463 539 463 l 296 463 q 245 458 265 463 q 212 442 224 453 q 194 417 199 432 q 188 383 189 402 m 331 803 l 412 885 l 496 802 l 414 720 l 331 803 z "},"ﻎ":{"ha":864,"x_min":47,"x_max":872,"o":"m 449 230 q 511 263 481 246 q 567 298 541 280 q 614 335 593 316 q 649 375 634 354 q 663 421 665 399 q 648 461 661 444 q 613 489 634 479 q 569 499 592 499 l 356 499 q 313 495 332 499 q 280 481 294 491 q 258 457 266 472 q 247 420 249 443 q 267 401 254 414 q 296 373 280 389 q 332 338 313 357 q 371 301 351 320 q 411 264 391 282 q 449 230 431 246 m 569 577 q 616 571 593 577 q 659 552 639 564 q 695 524 679 540 q 722 487 711 508 q 740 408 742 449 q 713 331 737 367 q 675 286 697 307 q 628 246 653 265 q 572 209 602 227 q 511 175 543 192 q 537 153 525 163 q 561 134 549 143 q 599 105 584 116 q 624 88 614 94 q 639 80 634 82 q 646 77 644 78 l 872 77 l 872 0 l 644 0 q 628 2 637 0 q 604 11 618 4 q 570 31 590 18 q 523 65 551 44 q 483 97 504 80 q 437 136 461 115 q 369 101 405 119 q 299 62 333 83 q 233 17 264 41 q 177 -35 201 -6 q 139 -97 153 -63 q 125 -170 125 -130 q 139 -249 125 -215 q 176 -309 152 -283 q 233 -353 200 -335 q 303 -381 265 -371 q 382 -397 341 -392 q 465 -402 424 -402 l 746 -402 l 746 -479 l 465 -479 q 361 -473 413 -480 q 264 -450 310 -466 q 178 -409 217 -434 q 109 -350 138 -384 q 64 -270 80 -315 q 47 -170 47 -225 q 76 -46 47 -101 q 151 52 104 8 q 256 130 197 95 q 375 192 314 164 q 374 193 375 192 q 302 260 336 227 q 240 319 267 293 q 197 361 213 345 q 181 378 181 378 l 169 405 q 219 533 170 489 q 356 577 269 577 l 569 577 m 370 818 l 451 900 l 534 817 l 452 735 l 370 818 z "},"ﮐ":{"ha":728,"x_min":-15,"x_max":727,"o":"m 727 922 l 197 689 q 309 589 239 653 q 469 428 379 524 q 578 265 549 344 q 593 185 593 223 q 580 114 594 146 q 558 79 573 98 q 516 41 544 59 q 447 12 489 24 q 345 0 405 0 l -15 0 l -15 78 l 345 78 q 460 98 416 78 q 509 145 497 116 q 501 247 527 186 q 412 375 475 307 q 288 502 345 447 q 189 593 230 556 q 124 649 147 630 q 100 668 100 668 l 108 734 l 695 993 l 727 922 z "},"ﮑ":{"ha":794,"x_min":-12,"x_max":797,"o":"m 506 275 q 574 187 544 224 q 636 125 605 150 q 706 89 668 101 q 797 78 744 78 l 797 0 q 692 13 737 0 q 611 49 647 25 q 544 106 574 73 q 480 181 513 139 q 474 155 478 167 q 465 132 470 143 q 414 67 446 92 q 343 26 383 41 q 261 6 304 11 q 175 0 217 0 l -12 0 l -12 78 l 175 78 q 238 82 205 79 q 302 95 271 86 q 357 122 332 105 q 395 167 381 139 q 407 212 406 188 q 401 259 407 235 q 382 307 394 283 q 354 350 369 330 q 308 412 329 384 q 269 465 287 440 q 233 514 250 491 q 198 561 216 537 q 160 612 180 585 q 117 670 141 638 l 118 670 l 133 728 l 726 995 l 758 924 l 209 677 q 355 478 282 577 q 506 275 429 378 z "},"ف":{"ha":1328,"x_min":82,"x_max":1272,"o":"m 923 78 q 1025 86 979 81 q 1105 105 1071 90 q 1162 150 1140 121 q 1191 234 1184 180 q 1128 225 1165 229 q 1054 221 1092 221 q 946 234 994 221 q 862 274 897 247 q 809 343 828 301 q 790 442 790 384 q 807 537 790 492 q 854 616 823 582 q 927 669 884 650 q 1022 687 970 688 q 1115 669 1076 686 q 1182 621 1154 651 q 1227 551 1210 591 q 1255 467 1245 511 q 1268 374 1265 422 q 1272 282 1272 326 q 1247 145 1272 199 q 1176 58 1222 90 q 1066 13 1131 26 q 923 0 1002 0 l 664 0 q 486 2 568 0 q 337 12 404 3 q 219 41 270 21 q 132 97 167 61 q 94 159 107 124 q 82 237 82 194 q 88 304 82 268 q 100 371 93 340 q 112 424 107 402 q 119 447 118 445 l 193 426 q 191 416 193 425 q 184 392 188 407 q 176 358 181 377 q 169 318 172 338 q 162 276 165 297 q 160 237 160 255 q 196 145 160 177 q 298 98 232 112 q 458 80 364 83 q 667 78 552 78 l 923 78 m 1054 299 q 1093 300 1073 299 q 1131 303 1113 301 q 1166 308 1150 306 q 1194 313 1182 311 q 1191 373 1194 340 q 1182 438 1189 405 q 1164 502 1176 472 q 1134 557 1153 533 q 1087 595 1115 581 q 1022 609 1060 609 q 953 595 982 609 q 905 557 924 580 q 877 503 886 533 q 867 442 867 473 q 882 372 867 399 q 921 328 896 344 q 980 305 946 312 q 1054 299 1015 299 m 931 928 l 1011 1010 l 1095 927 l 1013 845 l 931 928 z "},"ﻓ":{"ha":646,"x_min":-12,"x_max":581,"o":"m 363 299 q 402 300 383 299 q 441 303 422 301 q 475 308 459 306 q 504 313 492 311 q 501 373 503 340 q 492 438 498 405 q 474 502 485 472 q 443 557 462 533 q 397 595 424 581 q 331 609 369 609 q 262 595 292 609 q 214 557 233 580 q 186 503 195 533 q 177 442 177 473 q 191 372 177 399 q 230 328 205 344 q 290 305 256 312 q 363 299 324 299 m 331 687 q 424 669 384 686 q 491 621 463 651 q 537 551 519 591 q 564 467 554 511 q 578 374 574 422 q 581 282 581 326 q 557 145 581 199 q 486 58 532 90 q 376 13 440 26 q 232 0 311 0 l -12 0 l -12 78 l 232 78 q 334 86 288 81 q 414 105 380 90 q 471 150 449 121 q 501 234 493 180 q 437 225 474 229 q 363 221 401 221 q 255 234 304 221 q 172 274 206 247 q 118 343 137 301 q 99 442 99 384 q 116 537 99 492 q 163 616 133 582 q 236 669 193 650 q 331 687 279 688 m 237 939 l 318 1021 l 401 938 l 319 856 l 237 939 z "},"ﻔ":{"ha":692,"x_min":-16,"x_max":699,"o":"m 358 126 q 384 137 371 131 q 407 150 396 143 q 446 175 426 160 q 481 209 465 190 q 508 252 497 228 q 518 304 518 276 q 507 364 518 335 q 476 417 496 394 q 427 455 456 441 q 362 470 398 470 q 292 458 323 470 q 239 425 261 446 q 205 372 217 403 q 193 304 193 342 q 205 249 193 274 q 235 205 217 225 q 276 169 254 184 q 321 143 299 154 q 339 134 330 138 q 358 126 348 130 m 362 547 q 454 529 411 549 q 528 475 497 509 q 577 396 559 441 q 595 304 595 352 q 562 189 595 242 q 466 94 529 135 q 636 78 548 78 l 699 78 l 699 0 l 636 0 q 490 11 561 0 q 358 44 419 22 q 221 11 295 22 q 62 0 147 0 l -16 0 l -16 78 l 62 78 q 249 94 163 78 q 196 134 220 112 q 153 184 171 157 q 126 241 136 210 q 116 304 116 271 q 134 402 116 357 q 185 480 152 448 q 262 531 217 513 q 362 547 307 549 m 275 812 l 356 894 l 439 811 l 357 729 l 275 812 z "},"ﻒ":{"ha":1346,"x_min":82,"x_max":1361,"o":"m 742 78 q 929 94 843 78 q 876 134 900 112 q 833 184 851 157 q 806 241 816 210 q 795 304 795 271 q 814 402 795 357 q 865 480 832 448 q 942 531 897 513 q 1042 547 987 549 q 1134 529 1091 549 q 1208 475 1177 509 q 1257 396 1239 441 q 1275 304 1275 352 q 1242 189 1275 242 q 1146 94 1209 135 q 1316 78 1228 78 l 1361 78 l 1361 0 l 1316 0 q 1170 11 1241 0 q 1038 44 1099 22 q 901 11 975 22 q 742 0 827 0 l 664 0 q 486 2 568 0 q 337 12 405 3 q 219 41 270 21 q 132 97 167 61 q 94 159 107 124 q 82 237 82 194 q 88 304 82 268 q 100 371 93 340 q 112 424 107 402 q 119 447 118 445 l 193 426 q 191 416 193 425 q 184 392 188 407 q 176 358 181 377 q 169 318 172 338 q 162 276 165 297 q 160 237 160 255 q 195 145 160 177 q 297 98 231 112 q 455 80 362 83 q 664 78 549 78 l 742 78 m 1038 126 q 1063 137 1051 131 q 1087 150 1076 143 q 1126 175 1106 160 q 1161 209 1145 190 q 1188 252 1177 228 q 1198 304 1198 276 q 1187 364 1198 335 q 1156 417 1176 394 q 1107 455 1136 441 q 1042 470 1078 470 q 972 458 1003 470 q 919 425 941 446 q 885 372 897 403 q 873 304 873 342 q 885 249 873 274 q 915 205 896 225 q 956 169 934 184 q 1001 143 979 154 q 1019 134 1009 138 q 1038 126 1028 130 m 956 800 l 1037 882 l 1120 799 l 1038 717 l 956 800 z "},"ﭪ":{"ha":1324,"x_min":82,"x_max":1272,"o":"m 923 78 q 1025 86 979 81 q 1105 105 1071 90 q 1162 150 1140 121 q 1191 234 1184 180 q 1128 225 1165 229 q 1054 221 1092 221 q 946 234 994 221 q 862 274 897 247 q 809 343 828 301 q 790 442 790 384 q 807 537 790 492 q 854 616 823 582 q 927 669 884 650 q 1022 687 970 688 q 1115 669 1076 686 q 1182 621 1154 651 q 1227 551 1210 591 q 1255 467 1245 511 q 1268 374 1265 422 q 1272 282 1272 326 q 1247 145 1272 199 q 1176 58 1222 90 q 1066 13 1131 26 q 923 0 1002 0 l 664 0 q 486 2 568 0 q 337 12 404 3 q 219 41 270 21 q 132 97 167 61 q 94 159 107 124 q 82 237 82 194 q 88 304 82 268 q 100 371 93 340 q 112 424 107 402 q 119 447 118 445 l 193 426 q 191 416 193 425 q 184 392 188 407 q 176 358 181 377 q 169 318 172 338 q 162 276 165 297 q 160 237 160 255 q 196 145 160 177 q 298 98 232 112 q 458 80 364 83 q 667 78 552 78 l 923 78 m 1054 299 q 1093 300 1073 299 q 1131 303 1113 301 q 1166 308 1150 306 q 1194 313 1182 311 q 1191 373 1194 340 q 1182 438 1189 405 q 1164 502 1176 472 q 1134 557 1153 533 q 1087 595 1115 581 q 1022 609 1060 609 q 953 595 982 609 q 905 557 924 580 q 877 503 886 533 q 867 442 867 473 q 882 372 867 399 q 921 328 896 344 q 980 305 946 312 q 1054 299 1015 299 m 978 904 l 900 825 l 821 903 l 900 982 l 978 904 m 1232 906 l 1154 828 l 1074 906 l 1153 985 l 1232 906 m 1107 1078 l 1029 999 l 949 1078 l 1028 1157 l 1107 1078 z "},"ﭬ":{"ha":629,"x_min":-12,"x_max":581,"o":"m 363 299 q 402 300 383 299 q 441 303 422 301 q 475 308 459 306 q 504 313 492 311 q 501 373 503 340 q 492 438 498 405 q 474 502 485 472 q 443 557 462 533 q 397 595 424 581 q 331 609 369 609 q 262 595 292 609 q 214 557 233 580 q 186 503 195 533 q 177 442 177 473 q 191 372 177 399 q 230 328 205 344 q 290 305 256 312 q 363 299 324 299 m 331 687 q 424 669 384 686 q 491 621 463 651 q 537 551 519 591 q 564 467 554 511 q 578 374 574 422 q 581 282 581 326 q 557 145 581 199 q 486 58 532 90 q 376 13 440 26 q 232 0 311 0 l -12 0 l -12 78 l 232 78 q 334 86 288 81 q 414 105 380 90 q 471 150 449 121 q 501 234 493 180 q 437 225 474 229 q 363 221 401 221 q 255 234 304 221 q 172 274 206 247 q 118 343 137 301 q 99 442 99 384 q 116 537 99 492 q 163 616 133 582 q 236 669 193 650 q 331 687 279 688 m 279 872 l 201 793 l 122 871 l 201 950 l 279 872 m 533 874 l 455 795 l 376 874 l 455 953 l 533 874 m 408 1045 l 330 967 l 251 1045 l 330 1124 l 408 1045 z "},"ﭭ":{"ha":689,"x_min":-16,"x_max":699,"o":"m 358 126 q 384 137 371 131 q 407 150 396 143 q 446 175 426 160 q 481 209 465 190 q 508 252 497 228 q 518 304 518 276 q 507 364 518 335 q 476 417 496 394 q 427 455 456 441 q 362 470 398 470 q 292 458 323 470 q 239 425 261 446 q 205 372 217 403 q 193 304 193 342 q 205 249 193 274 q 235 205 217 225 q 276 169 254 184 q 321 143 299 154 q 339 134 330 138 q 358 126 348 130 m 362 547 q 454 529 411 549 q 528 475 497 509 q 577 396 559 441 q 595 304 595 352 q 562 189 595 242 q 466 94 529 135 q 636 78 548 78 l 699 78 l 699 0 l 636 0 q 490 11 561 0 q 358 44 419 22 q 221 11 295 22 q 62 0 147 0 l -16 0 l -16 78 l 62 78 q 249 94 163 78 q 196 134 220 112 q 153 184 171 157 q 126 241 136 210 q 116 304 116 271 q 134 402 116 357 q 185 480 152 448 q 262 531 217 513 q 362 547 307 549 m 290 798 l 211 719 l 133 797 l 212 876 l 290 798 m 544 800 l 466 722 l 386 800 l 465 879 l 544 800 m 419 972 l 341 893 l 261 972 l 340 1051 l 419 972 z "},"ﭫ":{"ha":1343,"x_min":82,"x_max":1361,"o":"m 742 78 q 929 94 843 78 q 876 134 900 112 q 833 184 851 157 q 806 241 816 210 q 795 304 795 271 q 814 402 795 357 q 865 480 832 448 q 942 531 897 513 q 1042 547 987 549 q 1134 529 1091 549 q 1208 475 1177 509 q 1257 396 1239 441 q 1275 304 1275 352 q 1242 189 1275 242 q 1146 94 1209 135 q 1316 78 1228 78 l 1361 78 l 1361 0 l 1316 0 q 1170 11 1241 0 q 1038 44 1099 22 q 901 11 975 22 q 742 0 827 0 l 664 0 q 486 2 568 0 q 337 12 405 3 q 219 41 270 21 q 132 97 167 61 q 94 159 107 124 q 82 237 82 194 q 88 304 82 268 q 100 371 93 340 q 112 424 107 402 q 119 447 118 445 l 193 426 q 191 416 193 425 q 184 392 188 407 q 176 358 181 377 q 169 318 172 338 q 162 276 165 297 q 160 237 160 255 q 195 145 160 177 q 297 98 231 112 q 455 80 362 83 q 664 78 549 78 l 742 78 m 1038 126 q 1063 137 1051 131 q 1087 150 1076 143 q 1126 175 1106 160 q 1161 209 1145 190 q 1188 252 1177 228 q 1198 304 1198 276 q 1187 364 1198 335 q 1156 417 1176 394 q 1107 455 1136 441 q 1042 470 1078 470 q 972 458 1003 470 q 919 425 941 446 q 885 372 897 403 q 873 304 873 342 q 885 249 873 274 q 915 205 896 225 q 956 169 934 184 q 1001 143 979 154 q 1019 134 1009 138 q 1038 126 1028 130 m 988 787 l 910 708 l 831 786 l 910 866 l 988 787 m 1242 789 l 1164 711 l 1085 789 l 1164 868 l 1242 789 m 1117 961 l 1039 883 l 960 961 l 1039 1040 l 1117 961 z "},"ﻗ":{"ha":636,"x_min":-12,"x_max":581,"o":"m 363 299 q 402 300 383 299 q 441 303 422 301 q 475 308 459 306 q 504 313 492 311 q 501 373 503 340 q 492 438 498 405 q 474 502 485 472 q 443 557 462 533 q 397 595 424 581 q 331 609 369 609 q 262 595 292 609 q 214 557 233 580 q 186 503 195 533 q 177 442 177 473 q 191 372 177 399 q 230 328 205 344 q 290 305 256 312 q 363 299 324 299 m 331 687 q 424 669 384 686 q 491 621 463 651 q 537 551 519 591 q 564 467 554 511 q 578 374 574 422 q 581 282 581 326 q 557 145 581 199 q 486 58 532 90 q 376 13 440 26 q 232 0 311 0 l -12 0 l -12 78 l 232 78 q 334 86 288 81 q 414 105 380 90 q 471 150 449 121 q 501 234 493 180 q 437 225 474 229 q 363 221 401 221 q 255 234 304 221 q 172 274 206 247 q 118 343 137 301 q 99 442 99 384 q 116 537 99 492 q 163 616 133 582 q 236 669 193 650 q 331 687 279 688 m 444 824 l 366 903 q 404 943 387 926 q 443 982 422 960 l 522 903 l 444 824 m 188 826 l 109 905 q 148 944 131 927 q 186 983 165 961 l 266 904 l 188 826 z "},"ﻘ":{"ha":692,"x_min":-16,"x_max":699,"o":"m 358 126 q 384 137 371 131 q 407 150 396 143 q 446 175 426 160 q 481 209 465 190 q 508 252 497 228 q 518 304 518 276 q 507 364 518 335 q 476 417 496 394 q 427 455 456 441 q 362 470 398 470 q 292 458 323 470 q 239 425 261 446 q 205 372 217 403 q 193 304 193 342 q 205 249 193 274 q 235 205 217 225 q 276 169 254 184 q 321 143 299 154 q 339 134 330 138 q 358 126 348 130 m 362 547 q 454 529 411 549 q 528 475 497 509 q 577 396 559 441 q 595 304 595 352 q 562 189 595 242 q 466 94 529 135 q 636 78 548 78 l 699 78 l 699 0 l 636 0 q 490 11 561 0 q 358 44 419 22 q 221 11 295 22 q 62 0 147 0 l -16 0 l -16 78 l 62 78 q 249 94 163 78 q 196 134 220 112 q 153 184 171 157 q 126 241 136 210 q 116 304 116 271 q 134 402 116 357 q 185 480 152 448 q 262 531 217 513 q 362 547 307 549 m 465 720 l 386 799 q 425 838 408 821 q 463 877 443 855 l 543 798 l 465 720 m 208 721 l 130 800 q 169 839 152 822 q 207 878 186 857 l 287 799 l 208 721 z "},"ق":{"ha":1009,"x_min":78,"x_max":914,"o":"m 669 540 q 845 467 783 540 q 914 215 914 387 l 914 -32 q 847 -251 914 -175 q 800 -293 826 -275 q 740 -323 773 -311 q 576 -348 672 -348 l 427 -348 q 262 -308 336 -348 q 141 -194 188 -268 q 93 -80 109 -143 q 81 57 78 -16 q 109 216 85 135 q 177 389 133 297 l 247 355 q 188 204 210 277 q 161 68 166 132 q 167 -53 156 3 q 206 -153 178 -109 q 300 -240 242 -210 q 427 -271 357 -271 l 576 -271 q 789 -201 728 -271 q 836 -32 836 -146 l 836 0 l 673 0 q 580 13 626 0 q 500 54 535 25 q 444 130 465 83 q 423 244 423 177 q 436 353 423 300 q 479 448 449 406 q 555 515 508 489 q 669 540 602 540 m 836 78 l 836 215 q 824 337 836 286 q 786 417 811 388 q 738 452 766 441 q 669 463 710 463 q 598 448 629 463 q 545 405 567 433 q 512 336 523 377 q 501 244 501 295 q 513 173 501 202 q 544 126 525 145 q 584 98 563 107 q 625 83 606 88 q 658 78 645 79 q 673 78 671 78 l 836 78 m 813 698 l 735 777 q 774 817 756 799 q 812 855 791 834 l 891 777 l 813 698 m 557 699 l 479 778 q 517 818 500 801 q 556 857 535 835 l 635 778 l 557 699 z "},"ﻖ":{"ha":1045,"x_min":83,"x_max":1060,"o":"m 674 540 q 850 467 789 540 q 919 215 919 387 l 919 78 l 1060 78 l 1060 39 l 1060 0 l 919 0 l 919 -32 q 852 -251 919 -175 q 805 -293 831 -275 q 745 -323 778 -311 q 581 -348 677 -348 l 432 -348 q 267 -308 342 -348 q 146 -194 193 -268 q 98 -80 114 -143 q 86 57 83 -16 q 114 216 90 135 q 182 389 138 297 l 253 355 q 193 204 215 277 q 166 68 171 132 q 172 -53 161 3 q 211 -153 183 -109 q 305 -240 247 -210 q 432 -271 362 -271 l 581 -271 q 794 -201 733 -271 q 841 -32 841 -146 l 841 0 l 678 0 q 586 13 631 0 q 505 54 540 25 q 449 130 470 83 q 428 244 428 177 q 441 353 428 300 q 484 448 455 406 q 560 515 513 489 q 674 540 607 540 m 841 78 l 841 215 q 829 337 841 286 q 791 417 816 388 q 743 452 771 441 q 674 463 715 463 q 603 448 634 463 q 550 405 572 433 q 517 336 528 377 q 506 244 506 295 q 518 173 506 202 q 549 126 530 145 q 589 98 568 107 q 630 83 611 88 q 663 78 650 79 q 678 78 676 78 l 841 78 m 812 696 l 734 775 q 772 815 755 797 q 811 854 790 832 l 890 775 l 812 696 m 556 698 l 477 777 q 516 816 499 799 q 554 855 533 833 l 634 776 l 556 698 z "},"ﻧ":{"ha":432,"x_min":-9,"x_max":355,"o":"m 311 508 q 325 448 318 480 q 339 380 333 415 q 349 309 345 345 q 355 240 354 273 q 342 152 355 195 q 302 75 328 109 q 239 21 277 41 q 155 0 201 0 l -9 0 l -9 78 l 155 78 q 208 93 185 80 q 247 130 231 107 q 270 180 262 152 q 277 238 278 208 q 272 301 277 268 q 262 366 268 334 q 249 429 256 398 q 236 485 242 459 l 311 508 l 311 508 m 145 775 l 226 857 l 309 773 l 227 691 l 145 775 z "},"ﻨ":{"ha":508,"x_min":-21,"x_max":516,"o":"m 516 78 l 516 0 l 472 0 q 391 13 429 0 q 325 49 354 25 q 297 78 308 62 q 216 19 265 37 q 98 0 167 1 l -21 0 l -21 78 l 98 78 q 164 85 135 79 q 213 104 193 90 q 245 141 234 118 q 257 200 256 164 l 257 427 l 335 427 l 335 200 q 347 143 335 166 q 379 105 360 119 q 423 84 399 90 q 472 78 448 78 l 516 78 m 175 718 l 256 800 l 339 717 l 257 634 l 175 718 z "},"ن":{"ha":995,"x_min":78,"x_max":914,"o":"m 914 427 l 914 -32 q 847 -251 914 -175 q 800 -293 826 -275 q 740 -323 773 -311 q 576 -348 672 -348 l 427 -348 q 262 -308 336 -348 q 141 -194 188 -268 q 93 -80 109 -143 q 81 57 78 -16 q 109 216 85 135 q 177 389 133 297 l 247 355 q 188 204 210 277 q 161 68 166 132 q 167 -53 156 3 q 206 -153 178 -109 q 300 -240 242 -210 q 427 -271 357 -271 l 576 -271 q 789 -201 728 -271 q 836 -32 836 -146 l 836 427 l 914 427 m 462 477 l 543 559 l 626 475 l 544 393 l 462 477 z "},"ﻦ":{"ha":1061,"x_min":77,"x_max":1069,"o":"m 1069 78 l 1069 0 l 1050 0 q 976 12 1011 0 q 913 47 941 24 l 913 -32 q 846 -251 913 -174 q 791 -299 821 -280 q 725 -329 760 -318 q 652 -344 691 -340 q 574 -348 614 -348 l 426 -348 q 261 -308 335 -348 q 140 -194 186 -268 q 92 -84 108 -143 q 80 47 77 -25 q 108 211 83 126 q 177 389 133 297 l 247 355 q 187 204 209 277 q 160 68 165 132 q 166 -53 155 3 q 206 -153 177 -109 q 299 -240 241 -210 q 426 -271 356 -271 l 574 -271 q 787 -201 727 -271 q 835 -32 835 -145 l 835 427 l 913 427 l 913 218 q 923 161 913 187 q 951 117 933 135 q 994 88 969 98 q 1050 78 1020 78 l 1069 78 m 461 474 l 542 556 l 626 473 l 544 391 l 461 474 z "},"ە":{"ha":643,"x_min":71,"x_max":590,"o":"m 330 0 q 229 17 277 0 q 147 65 182 35 q 92 136 112 95 q 71 223 71 177 q 83 304 71 267 q 113 373 95 342 q 152 430 131 404 q 190 476 173 455 q 211 500 199 487 q 234 525 222 513 q 256 548 245 537 q 276 569 267 559 l 227 624 l 283 676 q 299 659 284 676 q 337 618 314 643 q 388 562 360 593 q 441 501 415 531 q 500 431 473 465 q 547 363 527 396 q 578 296 567 330 q 590 225 590 262 q 569 136 590 178 q 509 62 549 94 q 427 16 473 32 q 330 0 381 0 m 328 511 q 309 492 319 503 q 289 471 299 482 q 269 449 278 460 q 251 427 259 437 q 217 387 235 409 q 184 340 199 366 q 159 285 169 314 q 149 223 149 256 q 162 168 149 194 q 200 122 176 142 q 260 89 227 100 q 330 78 294 78 q 401 89 368 78 q 459 121 434 101 q 498 168 484 141 q 512 225 512 195 q 504 274 512 249 q 479 325 496 298 q 439 382 463 352 q 383 450 415 413 l 328 511 z "},"ۀ":{"ha":646,"x_min":71,"x_max":590,"o":"m 330 0 q 229 17 277 0 q 147 65 182 35 q 92 136 112 95 q 71 223 71 177 q 83 304 71 267 q 113 373 95 342 q 152 430 131 404 q 190 476 173 455 q 211 500 199 487 q 234 525 222 513 q 256 548 245 537 q 276 569 267 559 l 227 624 l 283 676 q 299 659 284 676 q 337 618 314 643 q 388 562 360 593 q 441 501 415 531 q 500 431 473 465 q 547 363 527 396 q 578 296 567 330 q 590 225 590 262 q 569 136 590 178 q 509 62 549 94 q 427 16 473 32 q 330 0 381 0 m 328 511 q 309 492 319 503 q 289 471 299 482 q 269 449 278 460 q 251 427 259 437 q 217 387 235 409 q 184 340 199 366 q 159 285 169 314 q 149 223 149 256 q 162 168 149 194 q 200 122 176 142 q 260 89 227 100 q 330 78 294 78 q 401 89 368 78 q 459 121 434 101 q 498 168 484 141 q 512 225 512 195 q 504 274 512 249 q 479 325 496 298 q 439 382 463 352 q 383 450 415 413 l 328 511 m 121 753 q 122 786 122 771 q 124 819 123 801 l 223 850 q 193 866 207 855 q 170 890 180 876 q 156 920 161 904 q 151 953 151 937 q 158 993 151 973 q 177 1030 165 1013 q 208 1062 190 1048 q 249 1082 227 1075 q 288 1088 270 1088 q 323 1083 306 1087 q 354 1073 339 1079 q 383 1061 369 1067 l 369 1009 q 346 1018 359 1013 q 321 1026 334 1023 q 295 1029 308 1029 q 267 1026 281 1030 q 242 1013 254 1022 q 222 991 230 1004 q 211 965 214 979 q 212 938 208 951 q 247 904 218 918 q 313 890 275 890 q 373 898 341 890 q 435 915 405 907 l 453 860 l 121 753 z "},"ﮥ":{"ha":801,"x_min":45,"x_max":809,"o":"m 809 0 l 797 0 q 704 12 747 0 q 622 47 660 24 q 547 117 579 75 q 523 157 533 135 q 504 202 512 178 q 455 130 484 162 q 383 81 426 97 q 273 61 328 59 q 174 84 218 62 q 97 146 129 106 q 56 239 65 186 q 67 363 45 304 q 137 468 90 422 q 249 549 182 514 q 402 606 316 583 l 384 691 l 461 712 q 493 575 480 634 q 518 470 507 516 q 532 409 525 438 q 545 353 538 381 q 558 299 551 326 q 573 241 565 271 q 600 178 583 204 q 637 133 616 152 q 679 104 657 115 q 723 87 701 93 q 764 80 745 81 q 797 78 783 78 l 809 78 l 809 0 m 424 532 q 291 483 349 512 q 195 417 234 453 q 141 339 157 381 q 132 253 124 297 q 162 191 138 217 q 218 152 186 165 q 286 138 251 138 q 348 150 321 137 q 407 193 384 168 q 441 245 429 218 q 456 299 453 272 q 460 347 460 326 q 457 382 460 369 q 455 396 455 396 q 443 448 448 427 q 435 484 439 468 q 429 510 432 499 q 424 532 426 521 m 181 788 q 183 821 182 806 q 185 854 184 835 l 284 885 q 254 900 268 890 q 231 925 241 911 q 217 955 222 939 q 211 988 211 972 q 218 1027 211 1008 q 238 1065 225 1047 q 269 1096 251 1083 q 310 1117 287 1110 q 349 1122 331 1123 q 383 1118 367 1122 q 414 1108 400 1114 q 443 1096 429 1102 l 430 1044 q 407 1053 419 1048 q 382 1061 395 1057 q 355 1064 369 1064 q 328 1061 342 1064 q 303 1048 314 1057 q 283 1026 291 1039 q 272 1000 275 1014 q 273 973 269 986 q 307 938 279 953 q 373 924 335 924 q 434 933 402 924 q 496 950 466 941 l 513 895 l 181 788 z "},"ؤ":{"ha":634,"x_min":78,"x_max":570,"o":"m 491 78 l 491 235 q 481 327 489 285 q 455 401 473 370 q 404 450 436 432 q 323 467 372 467 q 242 449 275 467 q 191 401 210 432 q 164 327 172 369 q 156 235 156 284 q 171 161 156 191 q 213 113 186 131 q 277 86 241 94 q 356 78 313 78 l 491 78 m 323 545 q 435 519 388 542 q 511 455 482 496 q 554 358 540 414 q 568 235 568 302 l 568 78 l 568 0 q 540 -156 570 -90 q 456 -265 511 -222 q 325 -328 401 -307 q 158 -348 249 -348 l 122 -348 l 122 -271 l 158 -271 q 296 -256 235 -269 q 400 -211 357 -242 q 466 -129 443 -181 q 491 0 489 -78 l 356 0 q 247 13 297 -1 q 159 57 196 28 q 100 131 121 86 q 78 235 78 176 q 92 358 78 302 q 135 454 105 414 q 211 519 164 495 q 323 545 257 542 m 110 645 q 112 677 112 663 q 114 710 113 692 l 213 742 q 183 757 197 746 q 160 782 170 768 q 146 812 151 795 q 141 845 141 828 q 148 884 141 864 q 167 922 155 904 q 198 953 180 939 q 239 973 217 967 q 278 979 260 980 q 313 974 296 979 q 344 964 329 970 q 372 953 359 958 l 359 901 q 336 909 348 905 q 311 917 324 914 q 284 921 298 920 q 257 917 271 921 q 232 904 244 914 q 212 883 220 895 q 201 857 204 871 q 202 830 198 843 q 236 795 208 809 q 302 781 265 781 q 363 789 331 781 q 425 807 395 798 l 443 751 l 110 645 z "},"ﺆ":{"ha":654,"x_min":78,"x_max":676,"o":"m 491 78 l 491 235 q 481 327 489 285 q 455 401 473 370 q 404 450 436 432 q 323 467 372 467 q 242 449 275 467 q 191 401 210 432 q 164 327 172 369 q 156 235 156 284 q 171 161 156 191 q 213 113 186 131 q 277 86 241 94 q 356 78 313 78 l 491 78 m 323 545 q 435 519 388 542 q 511 455 482 496 q 554 358 540 414 q 568 235 568 302 l 568 78 l 676 78 l 676 0 l 568 0 q 540 -156 570 -90 q 456 -265 511 -222 q 325 -328 401 -307 q 158 -348 249 -348 l 122 -348 l 122 -271 l 158 -271 q 296 -256 235 -269 q 400 -211 357 -242 q 466 -129 443 -181 q 491 0 489 -78 l 356 0 q 247 13 297 -1 q 159 57 196 28 q 100 131 121 86 q 78 235 78 176 q 92 358 78 302 q 135 454 105 414 q 211 519 164 495 q 323 545 257 542 m 110 643 q 112 676 111 662 q 114 709 112 691 l 213 741 q 183 756 196 745 q 160 780 169 766 q 145 811 150 794 q 140 843 140 827 q 147 883 140 863 q 167 920 154 903 q 198 952 179 938 q 239 972 216 965 q 277 978 259 979 q 312 973 295 977 q 343 963 328 969 q 372 951 358 957 l 359 900 q 336 908 348 903 q 310 916 323 913 q 284 920 297 919 q 256 916 270 920 q 231 903 243 912 q 211 882 220 894 q 200 855 203 869 q 201 828 198 842 q 236 794 208 808 q 302 780 264 780 q 362 788 330 780 q 424 806 395 797 l 442 750 l 110 643 z "},"ﯨ":{"ha":434,"x_min":-9,"x_max":355,"o":"m 311 508 q 325 448 318 480 q 339 380 333 415 q 349 309 345 345 q 355 240 354 273 q 342 152 355 195 q 302 75 328 109 q 239 21 277 41 q 155 0 201 0 l -9 0 l -9 78 l 155 78 q 208 93 185 80 q 247 130 231 107 q 270 180 262 152 q 277 238 278 208 q 272 301 277 268 q 262 366 268 334 q 249 429 256 398 q 236 485 242 459 l 311 508 l 311 508 z "},"ﯩ":{"ha":508,"x_min":-21,"x_max":516,"o":"m 516 78 l 516 0 l 472 0 q 391 13 429 0 q 325 49 354 25 q 297 78 308 62 q 216 19 265 37 q 98 0 167 1 l -21 0 l -21 78 l 98 78 q 164 85 135 79 q 213 104 193 90 q 245 141 234 118 q 257 200 256 164 l 257 427 l 335 427 l 335 200 q 347 143 335 166 q 379 105 360 119 q 423 84 399 90 q 472 78 448 78 l 516 78 z "},"ﻳ":{"ha":547,"x_min":-12,"x_max":465,"o":"m 407 508 q 420 448 413 480 q 434 380 428 415 q 444 309 440 345 q 450 240 449 273 q 437 152 451 195 q 398 75 424 109 q 334 21 372 41 q 250 0 297 0 l -12 0 l -12 78 l 250 78 q 303 93 280 80 q 342 130 326 107 q 365 180 357 152 q 372 238 373 208 q 368 301 372 268 q 358 366 364 334 q 345 429 352 398 q 331 485 338 459 l 407 508 l 407 508 m 386 -325 l 308 -246 l 385 -168 l 465 -247 l 386 -325 m 129 -324 l 51 -245 l 128 -167 l 207 -246 l 129 -324 z "},"ﻴ":{"ha":662,"x_min":-13,"x_max":673,"o":"m 673 78 l 673 0 l 569 0 q 489 13 527 0 q 423 49 451 25 q 395 78 406 62 q 314 19 362 37 q 196 0 265 1 l -13 0 l -13 78 l 196 78 q 262 85 233 79 q 311 104 291 90 q 342 141 331 118 q 355 200 354 164 l 355 427 l 432 427 l 432 200 q 445 143 432 166 q 477 105 458 119 q 521 84 497 90 q 569 78 545 78 l 673 78 m 417 -328 l 338 -249 l 415 -170 l 495 -249 l 417 -328 m 159 -326 l 81 -247 l 158 -169 l 237 -248 l 159 -326 z "},"ي":{"ha":1070,"x_min":98,"x_max":982,"o":"m 856 550 q 918 545 887 550 q 982 532 949 541 l 960 457 q 857 472 907 472 q 741 451 795 472 q 646 390 688 431 q 577 277 597 342 q 569 143 557 211 q 602 134 580 140 q 653 120 624 128 q 715 104 682 112 q 778 86 747 95 q 834 71 809 78 q 874 61 859 64 q 914 44 900 54 q 936 23 929 35 q 945 -1 943 12 q 947 -29 947 -15 q 944 -78 947 -51 q 933 -135 941 -106 q 914 -193 926 -165 q 883 -243 902 -221 q 828 -294 858 -274 q 764 -326 798 -314 q 691 -343 729 -338 q 610 -348 653 -348 l 455 -348 q 367 -338 410 -348 q 287 -307 325 -328 q 217 -257 249 -287 q 162 -190 186 -228 q 113 -71 127 -134 q 102 59 98 -8 q 195 396 107 215 l 265 363 q 206 212 227 285 q 180 74 185 139 q 187 -47 176 9 q 227 -149 199 -104 q 323 -239 264 -207 q 455 -270 382 -270 l 610 -270 q 738 -252 688 -270 q 820 -198 788 -234 q 846 -159 836 -181 q 863 -112 857 -136 q 870 -63 869 -88 q 870 -18 872 -39 l 504 80 l 499 102 q 486 196 486 149 q 499 287 487 243 q 534 372 511 331 q 592 445 557 412 q 648 490 617 470 q 713 523 679 510 q 783 544 747 537 q 856 550 819 551 m 659 -592 l 581 -513 l 658 -434 l 737 -513 l 659 -592 m 402 -590 l 323 -511 l 400 -433 l 480 -512 l 402 -590 z "},"ﻲ":{"ha":1122,"x_min":68,"x_max":1133,"o":"m 242 362 q 182 209 203 283 q 154 69 160 135 q 161 -52 149 4 q 201 -154 172 -109 q 293 -241 236 -210 q 421 -271 350 -271 l 578 -271 q 643 -268 609 -271 q 712 -259 677 -266 q 778 -242 746 -253 q 834 -215 810 -231 q 873 -178 859 -199 q 888 -127 888 -156 q 883 -91 888 -107 q 867 -62 879 -75 q 833 -39 855 -49 q 778 -21 812 -29 q 697 -9 745 -14 q 585 0 650 -3 l 587 78 l 1133 78 l 1133 0 l 914 0 q 953 -56 941 -26 q 965 -127 965 -86 q 949 -202 965 -169 q 905 -260 933 -235 q 840 -301 878 -285 q 760 -329 803 -318 q 671 -344 717 -339 q 578 -348 624 -348 l 421 -348 q 256 -309 330 -348 q 135 -196 181 -269 q 80 -50 92 -125 q 78 101 68 25 q 114 251 88 177 q 172 396 140 326 l 242 362 m 668 -613 l 590 -534 l 667 -456 l 746 -535 l 668 -613 m 410 -612 l 332 -533 l 409 -455 l 489 -533 l 410 -612 z "},"ی":{"ha":1066,"x_min":98,"x_max":982,"o":"m 856 550 q 918 545 887 550 q 982 532 949 541 l 960 457 q 857 472 907 472 q 741 451 795 472 q 646 390 688 431 q 577 277 597 342 q 569 143 557 211 q 602 134 580 140 q 653 120 624 128 q 715 104 682 112 q 778 86 747 95 q 834 71 809 78 q 874 61 859 64 q 914 44 900 54 q 936 23 929 35 q 945 -1 943 12 q 947 -29 947 -15 q 944 -78 947 -51 q 933 -135 941 -106 q 914 -193 926 -165 q 883 -243 902 -221 q 828 -294 858 -274 q 764 -326 798 -314 q 691 -343 729 -338 q 610 -348 653 -348 l 455 -348 q 367 -338 410 -348 q 287 -307 325 -328 q 217 -257 249 -287 q 162 -190 186 -228 q 113 -71 127 -134 q 102 59 98 -8 q 195 396 107 215 l 265 363 q 206 212 227 285 q 180 74 185 139 q 187 -47 176 9 q 227 -149 199 -104 q 323 -239 264 -207 q 455 -270 382 -270 l 610 -270 q 738 -252 688 -270 q 820 -198 788 -234 q 846 -159 836 -181 q 863 -112 857 -136 q 870 -63 869 -88 q 870 -18 872 -39 l 504 80 l 499 102 q 486 196 486 149 q 499 287 487 243 q 534 372 511 331 q 592 445 557 412 q 648 490 617 470 q 713 523 679 510 q 783 544 747 537 q 856 550 819 551 z "},"ﯾ":{"ha":551,"x_min":-12,"x_max":458,"o":"m 407 508 q 420 448 413 480 q 434 380 428 415 q 444 309 440 345 q 450 240 449 273 q 437 152 451 195 q 398 75 424 109 q 334 21 372 41 q 250 0 297 0 l -12 0 l -12 78 l 250 78 q 303 93 280 80 q 342 130 326 107 q 365 180 357 152 q 372 238 373 208 q 368 301 372 268 q 358 366 364 334 q 345 429 352 398 q 331 485 338 459 l 407 508 l 407 508 m 379 -321 l 301 -242 l 378 -164 l 458 -242 l 379 -321 m 122 -319 l 44 -241 l 121 -162 l 200 -241 l 122 -319 z "},"ﯿ":{"ha":662,"x_min":-13,"x_max":673,"o":"m 673 78 l 673 0 l 569 0 q 489 13 527 0 q 423 49 451 25 q 395 78 406 62 q 314 19 362 37 q 196 0 265 1 l -13 0 l -13 78 l 196 78 q 262 85 233 79 q 311 104 291 90 q 342 141 331 118 q 355 200 354 164 l 355 427 l 432 427 l 432 200 q 445 143 432 166 q 477 105 458 119 q 521 84 497 90 q 569 78 545 78 l 673 78 m 409 -324 l 331 -246 l 408 -167 l 487 -246 l 409 -324 m 152 -323 l 73 -244 l 150 -166 l 230 -245 l 152 -323 z "},"ﯽ":{"ha":1122,"x_min":68,"x_max":1133,"o":"m 242 362 q 182 209 203 283 q 154 69 160 135 q 161 -52 149 4 q 201 -154 172 -109 q 293 -241 236 -210 q 421 -271 350 -271 l 578 -271 q 643 -268 609 -271 q 712 -259 677 -266 q 778 -242 746 -253 q 834 -215 810 -231 q 873 -178 859 -199 q 888 -127 888 -156 q 883 -91 888 -107 q 867 -62 879 -75 q 833 -39 855 -49 q 778 -21 812 -29 q 697 -9 745 -14 q 585 0 650 -3 l 587 78 l 1133 78 l 1133 0 l 914 0 q 953 -56 941 -26 q 965 -127 965 -86 q 949 -202 965 -169 q 905 -260 933 -235 q 840 -301 878 -285 q 760 -329 803 -318 q 671 -344 717 -339 q 578 -348 624 -348 l 421 -348 q 256 -309 330 -348 q 135 -196 181 -269 q 80 -50 92 -125 q 78 101 68 25 q 114 251 88 177 q 172 396 140 326 l 242 362 z "},"ۓ":{"ha":1040,"x_min":61,"x_max":1032,"o":"m 563 0 l 287 0 q 228 -10 255 0 q 180 -39 200 -21 q 148 -82 160 -57 q 136 -136 136 -107 q 148 -191 136 -166 q 179 -233 159 -215 q 227 -261 199 -251 q 287 -271 254 -271 l 1032 -271 l 1032 -348 l 287 -348 q 199 -334 241 -350 q 128 -289 158 -318 q 79 -221 97 -261 q 61 -136 61 -182 q 78 -54 61 -93 q 126 16 94 -15 q 199 62 158 46 q 287 78 240 78 l 563 78 l 563 0 m 110 206 q 112 239 112 225 q 114 272 113 254 l 213 304 q 183 319 197 308 q 160 343 170 330 q 146 374 151 357 q 141 407 141 390 q 148 446 141 426 q 167 484 155 466 q 198 515 180 501 q 239 535 217 528 q 278 541 260 542 q 313 536 296 540 q 344 526 329 532 q 372 515 359 520 l 359 463 q 336 471 348 467 q 311 479 324 476 q 284 483 298 482 q 257 479 271 483 q 232 466 244 475 q 212 445 220 457 q 201 419 204 432 q 202 391 198 405 q 236 357 208 371 q 302 343 265 343 q 363 351 331 343 q 425 369 395 360 l 443 313 l 110 206 z "},"ﮱ":{"ha":831,"x_min":61,"x_max":839,"o":"m 839 0 l 287 0 q 228 -10 255 0 q 180 -39 200 -21 q 148 -82 160 -57 q 136 -136 136 -107 q 148 -191 136 -166 q 179 -233 159 -215 q 227 -261 199 -251 q 287 -271 254 -271 l 813 -271 l 813 -348 l 287 -348 q 197 -332 238 -348 q 126 -288 156 -316 q 78 -221 95 -259 q 61 -136 61 -182 q 79 -51 61 -90 q 127 17 97 -11 q 198 62 157 45 q 287 78 239 78 l 839 78 l 839 0 m 112 189 q 114 222 113 207 q 116 254 114 236 l 215 286 q 185 301 198 290 q 162 326 171 312 q 147 356 152 340 q 142 389 142 372 q 149 428 142 408 q 169 466 156 448 q 199 497 181 484 q 241 518 218 511 q 279 523 261 524 q 314 519 297 523 q 345 509 330 515 q 374 497 360 503 l 360 445 q 337 454 350 449 q 312 461 325 458 q 286 465 299 465 q 258 461 272 465 q 233 449 245 458 q 213 427 222 439 q 202 401 205 415 q 203 374 199 387 q 238 339 210 354 q 304 325 266 325 q 364 334 332 325 q 426 351 396 342 l 444 295 l 112 189 z "},"ئ":{"ha":1061,"x_min":64,"x_max":982,"o":"m 856 550 q 918 545 887 550 q 982 532 949 541 l 960 457 q 857 472 907 472 q 741 451 795 472 q 646 390 688 431 q 577 277 597 342 q 569 143 557 211 q 602 134 580 140 q 653 120 624 128 q 715 104 682 112 q 778 86 747 95 q 834 71 809 78 q 874 61 859 64 q 914 44 900 54 q 936 23 929 35 q 945 -1 943 12 q 947 -29 947 -15 q 944 -78 947 -51 q 933 -135 941 -106 q 914 -193 926 -165 q 883 -243 902 -221 q 828 -294 858 -274 q 764 -326 798 -314 q 691 -343 729 -338 q 610 -348 653 -348 l 455 -348 q 367 -338 410 -348 q 287 -307 325 -328 q 217 -257 249 -287 q 162 -190 186 -228 q 113 -71 127 -134 q 102 59 98 -8 q 195 396 107 215 l 265 363 q 206 212 227 285 q 180 74 185 139 q 187 -47 176 9 q 227 -149 199 -104 q 323 -239 264 -207 q 455 -270 382 -270 l 610 -270 q 738 -252 688 -270 q 820 -198 788 -234 q 846 -159 836 -181 q 863 -112 857 -136 q 870 -63 869 -88 q 870 -18 872 -39 l 504 80 l 499 102 q 486 196 486 149 q 499 287 487 243 q 534 372 511 331 q 592 445 557 412 q 648 490 617 470 q 713 523 679 510 q 783 544 747 537 q 856 550 819 551 m 64 481 q 66 514 66 499 q 68 547 67 528 l 167 578 q 137 593 151 583 q 114 618 124 604 q 100 648 105 632 q 95 681 95 665 q 102 721 95 701 q 121 758 109 741 q 152 789 134 776 q 193 810 170 803 q 232 816 214 816 q 266 811 250 815 q 298 801 283 807 q 326 789 313 795 l 313 737 q 290 746 302 741 q 265 754 278 751 q 238 757 252 757 q 211 754 225 758 q 186 741 198 750 q 166 719 174 732 q 155 693 158 707 q 156 666 152 679 q 190 632 162 646 q 256 617 218 617 q 317 626 285 617 q 379 643 349 634 l 396 588 l 64 481 z "},"ﺋ":{"ha":541,"x_min":-12,"x_max":451,"o":"m 407 508 q 420 448 413 480 q 434 380 428 415 q 444 309 440 345 q 450 240 449 273 q 437 152 451 195 q 398 75 424 109 q 334 21 372 41 q 250 0 297 0 l -12 0 l -12 78 l 250 78 q 303 93 280 80 q 342 130 326 107 q 365 180 357 152 q 372 238 373 208 q 368 301 372 268 q 358 366 364 334 q 345 429 352 398 q 331 485 338 459 l 407 508 l 407 508 m 78 547 q 80 580 79 565 q 81 612 80 594 l 181 644 q 151 659 164 648 q 128 684 137 670 q 113 714 118 698 q 108 747 108 730 q 115 786 108 766 q 134 824 122 806 q 165 855 147 842 q 206 876 184 869 q 245 881 227 882 q 280 877 263 881 q 311 866 296 872 q 340 855 326 860 l 326 803 q 303 812 316 807 q 278 819 291 816 q 252 823 265 823 q 224 819 238 823 q 199 807 211 816 q 179 785 188 797 q 168 759 171 773 q 169 732 165 745 q 204 697 176 711 q 270 683 232 683 q 330 692 298 683 q 392 709 362 700 l 410 653 l 78 547 z "},"ﺌ":{"ha":665,"x_min":-13,"x_max":673,"o":"m 673 78 l 673 0 l 569 0 q 489 13 527 0 q 423 49 451 25 q 395 78 406 62 q 314 19 362 37 q 196 0 265 1 l -13 0 l -13 78 l 196 78 q 262 85 233 79 q 311 104 291 90 q 342 141 331 118 q 355 200 354 164 l 355 427 l 432 427 l 432 200 q 445 143 432 166 q 477 105 458 119 q 521 84 497 90 q 569 78 545 78 l 673 78 m 117 511 q 119 544 119 529 q 121 576 120 558 l 220 608 q 190 623 204 612 q 167 648 177 634 q 153 678 158 662 q 148 711 148 694 q 155 750 148 730 q 174 788 162 770 q 205 819 187 806 q 246 840 223 833 q 285 845 267 846 q 319 841 303 845 q 351 830 336 836 q 379 819 366 824 l 366 767 q 343 776 355 771 q 318 783 331 780 q 291 787 305 787 q 264 783 278 787 q 239 771 251 780 q 219 749 227 761 q 208 723 211 737 q 209 696 205 709 q 243 661 215 676 q 309 647 271 647 q 370 656 338 647 q 432 673 402 664 l 449 617 l 117 511 z "},"ﺊ":{"ha":1122,"x_min":68,"x_max":1133,"o":"m 242 362 q 182 209 203 283 q 154 69 160 135 q 161 -52 149 4 q 201 -154 172 -109 q 293 -241 236 -210 q 421 -271 350 -271 l 578 -271 q 643 -268 609 -271 q 712 -259 677 -266 q 778 -242 746 -253 q 834 -215 810 -231 q 873 -178 859 -199 q 888 -127 888 -156 q 883 -91 888 -107 q 867 -62 879 -75 q 833 -39 855 -49 q 778 -21 812 -29 q 697 -9 745 -14 q 585 0 650 -3 l 587 78 l 1133 78 l 1133 0 l 914 0 q 953 -56 941 -26 q 965 -127 965 -86 q 949 -202 965 -169 q 905 -260 933 -235 q 840 -301 878 -285 q 760 -329 803 -318 q 671 -344 717 -339 q 578 -348 624 -348 l 421 -348 q 256 -309 330 -348 q 135 -196 181 -269 q 80 -50 92 -125 q 78 101 68 25 q 114 251 88 177 q 172 396 140 326 l 242 362 m 430 205 q 432 237 431 223 q 434 270 432 252 l 533 302 q 503 317 516 306 q 480 342 489 328 q 465 372 470 355 q 460 405 460 388 q 467 444 460 424 q 487 482 474 464 q 518 513 499 499 q 559 533 536 527 q 598 539 580 540 q 632 534 616 539 q 663 524 648 530 q 692 513 678 518 l 679 461 q 656 469 668 465 q 630 477 643 474 q 604 481 617 480 q 576 477 590 481 q 551 464 563 473 q 532 443 540 455 q 521 417 523 431 q 521 390 518 403 q 556 355 528 369 q 622 341 584 341 q 682 349 650 341 q 744 367 715 358 l 762 311 l 430 205 z "},"ﻷ":{"ha":794,"x_min":-18,"x_max":694,"o":"m 694 390 q 685 248 694 309 q 659 144 677 188 q 613 73 641 101 q 546 29 585 45 q 455 6 506 13 q 341 0 405 0 l 86 0 l 86 78 l 341 78 q 452 88 406 80 q 528 112 497 97 q 576 151 559 128 q 603 209 594 175 q 614 287 612 242 q 616 390 616 332 l 616 902 l 694 902 l 694 390 m 163 210 l 163 901 l 242 901 l 242 210 l 163 210 m -18 927 q -16 960 -17 945 q -15 992 -16 974 l 85 1024 q 55 1039 68 1028 q 32 1064 41 1050 q 17 1094 22 1078 q 12 1127 12 1110 q 19 1166 12 1146 q 39 1204 26 1186 q 69 1235 51 1222 q 110 1256 88 1249 q 149 1261 131 1262 q 184 1257 167 1261 q 215 1247 200 1253 q 244 1235 230 1241 l 230 1183 q 207 1192 220 1187 q 182 1199 195 1196 q 156 1203 169 1203 q 128 1199 142 1203 q 103 1187 115 1196 q 83 1165 92 1177 q 72 1139 75 1153 q 73 1112 69 1125 q 108 1077 80 1092 q 174 1063 136 1063 q 234 1072 202 1063 q 296 1089 266 1080 l 314 1033 l -18 927 z "},"ﻸ":{"ha":854,"x_min":15,"x_max":858,"o":"m 710 390 l 710 389 q 714 254 710 312 q 733 157 719 196 q 772 98 747 117 q 837 78 797 78 l 858 78 l 858 0 l 837 0 q 775 9 802 0 q 726 35 747 19 q 690 74 705 52 q 665 124 675 97 q 617 63 646 87 q 551 25 589 39 q 465 6 513 11 q 357 0 416 0 l 102 0 l 102 78 l 357 78 q 467 88 422 80 q 544 112 513 97 q 592 151 574 128 q 619 209 610 175 q 630 287 628 242 q 632 390 632 332 l 632 902 l 710 902 l 710 390 m 179 210 l 179 901 l 258 901 l 258 210 l 179 210 m 15 942 q 17 975 16 960 q 19 1008 18 989 l 118 1039 q 88 1054 102 1044 q 65 1079 74 1065 q 51 1109 56 1093 q 45 1142 45 1126 q 52 1182 45 1162 q 72 1219 59 1201 q 103 1250 85 1237 q 144 1271 121 1264 q 183 1277 165 1277 q 217 1272 201 1276 q 248 1262 234 1268 q 277 1250 263 1256 l 264 1198 q 241 1207 253 1202 q 216 1215 229 1211 q 189 1218 203 1218 q 162 1215 176 1218 q 137 1202 148 1211 q 117 1180 125 1193 q 106 1154 109 1168 q 107 1127 103 1140 q 141 1092 113 1107 q 207 1078 169 1078 q 268 1087 235 1078 q 330 1104 300 1095 l 347 1049 l 15 942 z "},"ﻹ":{"ha":805,"x_min":86,"x_max":694,"o":"m 694 390 q 685 248 694 309 q 659 144 677 188 q 613 73 641 101 q 546 29 585 45 q 455 6 506 13 q 341 0 405 0 l 86 0 l 86 78 l 341 78 q 452 88 406 80 q 528 112 497 97 q 576 151 559 128 q 603 209 594 175 q 614 287 612 242 q 616 390 616 332 l 616 902 l 694 902 l 694 390 m 163 210 l 163 901 l 242 901 l 242 210 l 163 210 m 165 -424 q 167 -391 167 -406 q 169 -359 168 -377 l 268 -327 q 238 -312 252 -323 q 215 -287 225 -301 q 201 -257 206 -273 q 196 -224 196 -241 q 203 -185 196 -205 q 222 -147 210 -165 q 253 -116 235 -129 q 294 -95 271 -102 q 333 -90 315 -89 q 367 -94 351 -90 q 399 -104 384 -98 q 427 -116 414 -110 l 414 -168 q 391 -159 403 -164 q 366 -152 379 -155 q 339 -148 353 -148 q 312 -152 326 -148 q 287 -164 299 -155 q 267 -186 275 -174 q 256 -212 259 -198 q 257 -239 253 -226 q 291 -274 263 -259 q 357 -288 319 -288 q 418 -279 386 -288 q 480 -262 450 -271 l 497 -318 l 165 -424 z "},"ﻺ":{"ha":848,"x_min":102,"x_max":858,"o":"m 710 390 l 710 389 q 714 254 710 312 q 733 157 719 196 q 772 98 747 117 q 837 78 797 78 l 858 78 l 858 0 l 837 0 q 775 9 802 0 q 726 35 747 19 q 690 74 705 52 q 665 124 675 97 q 617 63 646 87 q 551 25 589 39 q 465 6 513 11 q 357 0 416 0 l 102 0 l 102 78 l 357 78 q 467 88 422 80 q 544 112 513 97 q 592 151 574 128 q 619 209 610 175 q 630 287 628 242 q 632 390 632 332 l 632 902 l 710 902 l 710 390 m 179 210 l 179 901 l 258 901 l 258 210 l 179 210 m 162 -422 q 164 -390 164 -404 q 166 -357 165 -375 l 265 -325 q 235 -310 249 -321 q 212 -285 222 -299 q 198 -255 203 -271 q 193 -222 193 -239 q 199 -183 193 -203 q 219 -145 206 -163 q 250 -114 232 -128 q 291 -93 268 -100 q 330 -88 312 -87 q 364 -92 348 -88 q 396 -103 381 -97 q 424 -114 410 -109 l 411 -166 q 388 -158 400 -162 q 363 -150 376 -153 q 336 -146 350 -146 q 309 -150 323 -146 q 284 -163 295 -153 q 264 -184 272 -172 q 253 -210 256 -196 q 254 -237 250 -224 q 288 -272 260 -258 q 354 -286 316 -286 q 415 -277 383 -286 q 477 -260 447 -269 l 494 -316 l 162 -422 z "},"ﻵ":{"ha":794,"x_min":-74,"x_max":694,"o":"m 694 390 q 685 248 694 309 q 659 144 677 188 q 613 73 641 101 q 546 29 585 45 q 455 6 506 13 q 341 0 405 0 l 86 0 l 86 78 l 341 78 q 452 88 406 80 q 528 112 497 97 q 576 151 559 128 q 603 209 594 175 q 614 287 612 242 q 616 390 616 332 l 616 902 l 694 902 l 694 390 m 163 210 l 163 901 l 242 901 l 242 210 l 163 210 m 480 1000 l 170 1000 q 97 994 126 1000 q 50 976 68 988 q 20 944 31 963 q -1 899 9 926 q -38 910 -22 905 q -74 921 -54 915 q -39 999 -58 968 q 8 1047 -20 1030 q 75 1071 36 1064 q 170 1078 114 1078 l 480 1078 l 480 1000 z "},"ﻶ":{"ha":846,"x_min":-81,"x_max":858,"o":"m 710 390 l 710 389 q 714 254 710 312 q 733 157 719 196 q 772 98 747 117 q 837 78 797 78 l 858 78 l 858 0 l 837 0 q 775 9 802 0 q 726 35 747 19 q 690 74 705 52 q 665 124 675 97 q 617 63 646 87 q 551 25 589 39 q 465 6 513 11 q 357 0 416 0 l 102 0 l 102 78 l 357 78 q 467 88 422 80 q 544 112 513 97 q 592 151 574 128 q 619 209 610 175 q 630 287 628 242 q 632 390 632 332 l 632 902 l 710 902 l 710 390 m 179 210 l 179 901 l 258 901 l 258 210 l 179 210 m 473 1004 l 164 1004 q 90 998 119 1004 q 43 980 61 992 q 13 949 24 968 q -8 903 2 930 q -45 915 -29 910 q -81 926 -61 920 q -46 1003 -65 973 q 1 1051 -27 1034 q 68 1075 29 1069 q 164 1082 107 1082 l 473 1082 l 473 1004 z "},"ۂ":{"ha":650,"x_min":71,"x_max":590,"o":"m 330 0 q 229 17 277 0 q 147 65 182 35 q 92 136 112 95 q 71 223 71 177 q 83 304 71 267 q 113 373 95 342 q 152 430 131 404 q 190 476 173 455 q 211 500 199 487 q 234 525 222 513 q 256 548 245 537 q 276 569 267 559 l 227 624 l 283 676 q 299 659 284 676 q 337 618 314 643 q 388 562 360 593 q 441 501 415 531 q 500 431 473 465 q 547 363 527 396 q 578 296 567 330 q 590 225 590 262 q 569 136 590 178 q 509 62 549 94 q 427 16 473 32 q 330 0 381 0 m 328 511 q 309 492 319 503 q 289 471 299 482 q 269 449 278 460 q 251 427 259 437 q 217 387 235 409 q 184 340 199 366 q 159 285 169 314 q 149 223 149 256 q 162 168 149 194 q 200 122 176 142 q 260 89 227 100 q 330 78 294 78 q 401 89 368 78 q 459 121 434 101 q 498 168 484 141 q 512 225 512 195 q 504 274 512 249 q 479 325 496 298 q 439 382 463 352 q 383 450 415 413 l 328 511 m 112 741 q 114 773 113 759 q 116 806 114 788 l 215 838 q 185 853 198 842 q 162 878 171 864 q 147 908 152 891 q 142 941 142 924 q 149 980 142 960 q 169 1018 156 1000 q 199 1049 181 1035 q 241 1069 218 1063 q 279 1075 261 1076 q 314 1070 297 1074 q 345 1060 330 1066 q 374 1049 360 1054 l 360 997 q 337 1005 350 1001 q 312 1013 325 1010 q 286 1017 299 1016 q 258 1013 272 1017 q 233 1000 245 1009 q 213 979 222 991 q 202 953 205 967 q 203 926 199 939 q 238 891 210 905 q 304 877 266 877 q 364 885 332 877 q 426 903 396 894 l 444 847 l 112 741 z "},"ہ":{"ha":664,"x_min":71,"x_max":590,"o":"m 330 0 q 229 17 277 0 q 147 65 182 35 q 92 136 112 95 q 71 223 71 177 q 83 304 71 267 q 113 373 95 342 q 152 430 131 404 q 190 476 173 455 q 211 500 199 487 q 234 525 222 513 q 256 548 245 537 q 276 569 267 559 l 227 624 l 283 676 q 299 659 284 676 q 337 618 314 643 q 388 562 360 593 q 441 501 415 531 q 500 431 473 465 q 547 363 527 396 q 578 296 567 330 q 590 225 590 262 q 569 136 590 178 q 509 62 549 94 q 427 16 473 32 q 330 0 381 0 m 328 511 q 309 492 319 503 q 289 471 299 482 q 269 449 278 460 q 251 427 259 437 q 217 387 235 409 q 184 340 199 366 q 159 285 169 314 q 149 223 149 256 q 162 168 149 194 q 200 122 176 142 q 260 89 227 100 q 330 78 294 78 q 401 89 368 78 q 459 121 434 101 q 498 168 484 141 q 512 225 512 195 q 504 274 512 249 q 479 325 496 298 q 439 382 463 352 q 383 450 415 413 l 328 511 z "},"ۃ":{"ha":639,"x_min":71,"x_max":590,"o":"m 330 0 q 229 17 277 0 q 147 65 182 35 q 92 136 112 95 q 71 223 71 177 q 83 304 71 267 q 113 373 95 342 q 152 430 131 404 q 190 476 173 455 q 211 500 199 487 q 234 525 222 513 q 256 548 245 537 q 276 569 267 559 l 227 624 l 283 676 q 299 659 284 676 q 337 618 314 643 q 388 562 360 593 q 441 501 415 531 q 500 431 473 465 q 547 363 527 396 q 578 296 567 330 q 590 225 590 262 q 569 136 590 178 q 509 62 549 94 q 427 16 473 32 q 330 0 381 0 m 328 511 q 309 492 319 503 q 289 471 299 482 q 269 449 278 460 q 251 427 259 437 q 217 387 235 409 q 184 340 199 366 q 159 285 169 314 q 149 223 149 256 q 162 168 149 194 q 200 122 176 142 q 260 89 227 100 q 330 78 294 78 q 401 89 368 78 q 459 121 434 101 q 498 168 484 141 q 512 225 512 195 q 504 274 512 249 q 479 325 496 298 q 439 382 463 352 q 383 450 415 413 l 328 511 m 410 761 l 332 840 q 371 880 354 862 q 409 919 388 897 l 489 840 l 410 761 m 154 763 l 76 842 q 115 881 97 864 q 153 920 132 898 l 232 841 l 154 763 z "},"ﮫ":{"ha":1101,"x_min":116,"x_max":1118,"o":"m 573 650 q 667 551 623 597 q 746 464 710 504 q 810 387 782 423 q 859 319 838 352 q 890 258 878 288 q 907 199 903 229 q 907 139 912 169 q 886 78 902 109 l 1118 78 l 1118 0 l 818 0 q 747 -32 786 -21 q 669 -42 709 -42 q 604 -36 636 -42 q 541 -18 572 -29 q 480 7 510 -7 q 419 37 449 21 q 282 5 359 18 q 116 -9 205 -9 l 146 69 q 246 73 202 69 q 331 88 290 77 q 306 103 321 95 q 283 119 291 112 q 209 204 234 157 q 184 313 184 252 q 202 408 184 365 q 252 481 220 451 q 328 528 284 511 q 425 545 372 545 q 513 525 472 545 q 584 471 554 504 q 632 393 614 437 q 649 304 649 350 q 614 172 649 229 q 515 78 580 116 q 588 47 549 59 q 670 35 628 35 q 720 41 697 35 q 761 56 743 47 q 793 78 780 66 q 813 104 806 90 q 828 144 824 124 q 830 185 833 164 q 818 229 828 206 q 792 278 809 252 q 685 419 755 338 q 516 597 614 501 l 573 650 m 425 121 q 481 148 454 131 q 527 188 508 165 q 559 239 547 210 q 571 304 571 268 q 558 371 571 340 q 525 422 545 401 q 478 455 504 444 q 425 467 451 467 q 348 454 379 467 q 298 418 318 440 q 270 369 278 396 q 261 313 261 341 q 278 240 261 272 q 331 179 295 208 q 374 149 350 164 q 425 121 398 135 z "},"ﮬ":{"ha":919,"x_min":-15,"x_max":880,"o":"m 393 121 q 449 148 422 131 q 496 188 476 165 q 528 239 516 210 q 540 304 540 268 q 527 371 540 340 q 493 422 514 401 q 446 455 472 444 q 393 467 420 467 q 317 454 348 467 q 266 418 286 440 q 238 369 247 396 q 230 313 230 341 q 247 240 230 272 q 299 179 263 208 q 342 149 319 164 q 393 121 366 135 m 541 650 q 635 551 592 597 q 715 464 679 504 q 779 387 751 423 q 827 319 807 352 q 860 256 847 287 q 876 194 872 225 q 874 132 880 164 q 850 68 867 101 q 813 21 836 41 q 762 -14 790 0 q 702 -35 734 -28 q 638 -42 670 -42 q 572 -36 604 -42 q 509 -18 540 -29 q 448 7 479 -7 q 388 37 418 21 q 253 9 328 18 q 90 0 179 0 l -15 0 l -15 78 l 90 78 q 287 93 202 78 q 268 105 277 99 q 251 119 259 112 q 177 204 203 157 q 152 313 152 252 q 170 408 152 365 q 220 481 188 451 q 297 528 253 511 q 393 545 341 545 q 482 525 441 545 q 553 471 523 504 q 600 393 583 437 q 617 304 617 350 q 583 172 617 229 q 483 78 548 116 q 557 47 517 59 q 638 35 597 35 q 688 41 665 35 q 730 56 711 47 q 761 78 748 66 q 781 104 774 90 q 797 144 792 124 q 799 185 801 164 q 787 229 796 206 q 761 278 778 252 q 653 415 723 338 q 485 597 583 492 l 541 650 z "},"ﮭ":{"ha":798,"x_min":-11,"x_max":811,"o":"m 811 78 l 811 0 l 687 0 q 642 -5 663 0 q 603 -19 621 -10 q 572 -42 585 -28 q 552 -71 559 -55 q 552 -162 534 -110 q 622 -273 570 -213 l 598 -337 q 572 -339 585 -338 q 547 -340 559 -340 q 429 -322 487 -340 q 356 -291 391 -309 q 290 -246 322 -272 q 236 -191 261 -221 q 191 -129 211 -162 q 158 -63 172 -97 q 138 6 145 -28 q 60 1 98 3 q -11 0 21 0 l -11 78 q 57 79 20 78 q 132 83 94 80 q 149 280 130 192 q 234 462 175 396 q 391 539 298 533 q 554 485 492 544 q 591 438 578 463 q 611 389 605 412 q 620 346 618 365 q 622 318 622 327 q 546 141 622 214 q 473 89 516 112 q 376 49 431 66 q 298 28 338 36 q 216 14 258 20 q 260 -93 227 -40 q 340 -186 293 -146 q 373 -211 355 -198 q 414 -233 392 -223 q 461 -251 436 -244 q 516 -261 487 -259 q 474 -171 486 -215 q 481 -39 454 -99 q 565 49 506 18 q 687 78 620 78 l 811 78 m 292 410 q 255 355 271 388 q 229 281 239 322 q 213 193 218 241 q 210 92 208 145 q 283 104 247 97 q 353 122 319 112 q 497 201 450 153 q 544 318 544 249 q 542 344 544 330 q 534 374 540 359 q 521 404 529 390 q 501 429 513 418 q 460 454 484 446 q 402 461 436 461 q 339 448 366 461 q 292 410 313 434 z "},"۰":{"ha":664,"x_min":105,"x_max":587,"o":"m 346 197 q 410 210 380 197 q 461 245 439 223 q 497 297 484 267 q 509 360 509 326 q 497 424 509 394 q 461 475 484 453 q 410 510 439 497 q 346 523 380 523 q 283 510 313 523 q 231 475 253 497 q 196 424 209 453 q 183 360 183 394 q 196 297 183 326 q 231 245 209 267 q 283 210 253 223 q 346 197 313 197 m 346 601 q 440 582 396 601 q 516 530 484 563 q 568 454 549 497 q 587 360 587 410 q 568 267 587 311 q 516 190 549 223 q 440 138 484 157 q 346 119 396 119 q 252 138 296 119 q 176 190 208 157 q 124 267 143 223 q 105 360 105 311 q 124 454 105 410 q 176 530 143 497 q 252 582 208 563 q 346 601 296 601 z "},"۱":{"ha":376,"x_min":97,"x_max":263,"o":"m 182 0 q 183 46 182 22 q 184 97 183 70 q 185 264 185 174 q 178 456 186 355 q 152 666 170 557 q 97 890 133 775 l 170 913 q 225 695 204 807 q 255 461 246 584 q 263 264 263 355 q 261 95 263 172 q 260 45 261 69 q 260 0 260 21 l 182 0 z "},"۲":{"ha":718,"x_min":86,"x_max":641,"o":"m 600 914 q 608 890 601 912 q 622 836 614 868 q 635 769 629 805 q 641 702 641 733 q 628 611 641 653 q 588 538 614 569 q 523 490 562 508 q 435 472 485 472 q 330 497 379 472 q 236 570 280 521 q 253 407 247 483 q 261 261 259 331 q 262 127 263 191 q 261 -1 262 62 l 184 -1 q 184 173 184 82 q 179 364 184 264 q 157 574 173 464 q 109 807 141 685 q 98 847 104 827 q 86 888 92 867 l 160 911 q 173 868 167 890 q 184 826 179 847 q 193 799 186 821 q 215 745 201 776 q 250 680 229 715 q 298 617 271 646 q 359 569 325 588 q 435 550 393 550 q 530 590 497 550 q 564 702 564 629 q 558 761 564 729 q 545 822 552 794 q 532 870 538 850 q 527 890 527 890 l 600 914 l 600 914 z "},"۳":{"ha":908,"x_min":61,"x_max":827,"o":"m 789 914 q 793 902 790 912 q 800 875 796 891 q 809 836 804 858 q 818 792 814 815 q 824 746 822 770 q 827 703 827 723 q 820 625 827 665 q 795 550 813 584 q 745 495 777 516 q 667 473 714 473 q 564 506 607 473 q 495 592 521 539 q 472 547 486 568 q 439 510 458 527 q 396 484 420 494 q 347 470 373 473 q 281 476 311 467 q 219 506 251 485 q 230 383 226 443 q 235 269 234 324 q 236 165 236 215 q 235 73 236 116 q 235 35 235 53 q 235 0 235 16 l 157 0 q 157 35 157 17 q 158 73 157 54 q 158 238 158 146 q 148 435 157 330 q 119 654 140 539 q 61 890 99 770 l 134 914 q 154 847 145 878 q 172 781 163 816 q 182 741 176 763 q 195 698 188 720 q 211 655 202 676 q 230 614 220 633 q 259 575 245 589 q 288 554 274 561 q 314 547 301 548 q 336 547 326 546 q 363 554 350 549 q 390 569 377 558 q 414 599 403 580 q 431 650 424 619 q 439 705 437 676 q 441 768 441 735 q 438 833 440 800 q 432 897 436 866 l 510 905 q 517 836 513 871 q 527 768 521 801 q 539 705 532 735 q 556 648 546 674 q 582 596 568 616 q 610 567 596 577 q 639 554 625 557 q 667 551 653 551 q 710 566 694 551 q 735 604 727 581 q 747 654 744 628 q 749 703 749 681 q 744 762 749 729 q 732 824 739 795 q 721 872 726 852 q 715 892 715 891 l 789 914 l 789 914 z "},"۹":{"ha":677,"x_min":79,"x_max":574,"o":"m 452 498 q 451 563 451 530 q 451 631 451 596 q 443 710 451 670 q 418 780 435 749 q 375 831 402 811 q 313 850 349 850 q 248 836 277 850 q 199 796 219 822 q 167 733 178 770 q 157 649 157 695 q 166 589 157 614 q 190 548 176 564 q 224 521 205 531 q 261 506 242 511 q 295 500 279 501 q 320 498 311 498 l 452 498 m 313 928 q 410 904 369 928 q 478 839 451 879 q 516 744 504 798 q 528 631 528 690 q 532 409 528 511 q 541 227 535 307 q 555 90 547 146 q 574 3 564 33 l 502 -24 q 487 27 494 -4 q 475 98 480 59 q 467 180 470 136 q 460 266 463 223 q 456 349 458 309 q 453 420 455 389 l 320 420 q 235 432 278 420 q 157 471 192 444 q 101 541 122 497 q 79 649 79 585 q 94 756 79 705 q 138 845 109 806 q 211 906 167 883 q 313 928 254 928 z "},"۷":{"ha":850,"x_min":54,"x_max":819,"o":"m 819 856 q 688 660 751 775 q 573 409 625 545 q 532 291 551 349 q 501 180 514 233 q 482 80 489 126 q 475 -1 475 34 l 397 -1 q 390 80 397 34 q 371 180 384 126 q 340 291 358 233 q 299 409 322 349 q 185 660 248 545 q 54 856 122 775 l 114 906 q 252 699 186 819 q 372 437 318 579 q 408 336 391 386 q 436 239 424 286 q 465 336 449 286 q 501 437 481 386 q 621 699 555 579 q 759 906 688 819 l 819 856 z "},"۸":{"ha":856,"x_min":54,"x_max":819,"o":"m 759 -6 q 621 200 687 80 q 500 463 554 321 q 464 564 480 514 q 436 661 448 614 q 407 564 423 614 q 371 463 391 514 q 251 200 318 321 q 113 -6 185 80 l 54 44 q 184 240 121 125 q 299 491 247 354 q 339 608 321 550 q 370 720 357 667 q 390 819 383 773 q 396 901 396 866 l 474 901 q 481 819 474 866 q 501 720 488 773 q 532 608 513 667 q 573 491 550 550 q 688 240 624 354 q 819 44 751 125 l 759 -6 z "},"ﹰ":{"ha":0,"x_min":-158,"x_max":158,"o":"m -158 1066 l 158 1183 l 158 1126 l -158 1008 l -158 1066 m -158 1212 l 158 1330 l 158 1272 l -158 1154 l -158 1212 z "},"ﹲ":{"ha":0,"x_min":-261,"x_max":137,"o":"m 37 1314 q 1 1303 21 1314 q -28 1276 -19 1293 q -29 1268 -28 1275 q -27 1252 -30 1261 q -15 1231 -23 1242 q 12 1211 -6 1220 q 19 1207 15 1209 q 30 1202 23 1205 q 45 1194 36 1199 q 69 1184 54 1190 q 83 1232 80 1205 q 78 1283 86 1259 q 62 1305 73 1295 q 37 1314 52 1314 m -160 1047 q -150 1065 -156 1054 q -141 1089 -145 1076 q -138 1115 -138 1102 q -146 1138 -138 1128 q -165 1149 -153 1147 q -190 1150 -177 1152 q -214 1143 -203 1148 q -229 1133 -225 1138 l -261 1169 q -252 1178 -259 1172 q -232 1191 -244 1184 q -202 1202 -219 1197 q -167 1206 -186 1206 q -123 1191 -140 1205 q -98 1158 -106 1178 q -90 1114 -90 1138 q -97 1068 -90 1090 q -28 1096 -64 1079 q 37 1140 7 1114 q 10 1152 22 1147 q -11 1162 -1 1157 q -50 1189 -35 1174 q -73 1222 -65 1205 q -80 1259 -80 1240 q -71 1295 -79 1277 q -46 1330 -62 1314 q -10 1355 -30 1346 q 32 1366 10 1365 q 74 1359 54 1368 q 123 1313 109 1342 q 136 1252 137 1285 q 122 1185 135 1218 q 90 1124 109 1151 q 37 1076 69 1097 q -28 1040 4 1055 q -89 1016 -61 1025 q -129 1004 -117 1008 l -160 1047 z "},"ﹴ":{"ha":0,"x_min":-158,"x_max":158,"o":"m -158 -437 l 158 -320 l 158 -378 l -158 -496 l -158 -437 m -158 -291 l 158 -174 l 158 -231 l -158 -349 l -158 -291 z "},"ﹶ":{"ha":0,"x_min":-158,"x_max":158,"o":"m -158 1066 l 158 1183 l 158 1126 l -158 1008 l -158 1066 z "},"ﹸ":{"ha":0,"x_min":-181,"x_max":110,"o":"m 10 1285 q -26 1275 -6 1285 q -55 1247 -46 1265 q -56 1240 -56 1246 q -54 1223 -57 1233 q -42 1203 -51 1214 q -15 1182 -33 1192 q -8 1178 -12 1181 q 3 1173 -4 1176 q 18 1166 9 1170 q 42 1155 27 1162 q 56 1204 52 1177 q 51 1254 59 1231 q 35 1276 45 1267 q 10 1285 25 1285 m -181 1024 l -172 1027 q -132 1039 -155 1032 q -85 1056 -109 1045 q -35 1080 -60 1066 q 9 1112 -11 1093 q -17 1124 -5 1119 q -39 1134 -28 1129 q -77 1161 -62 1145 q -100 1194 -92 1176 q -107 1230 -107 1211 q -98 1266 -106 1249 q -73 1301 -89 1285 q -37 1327 -57 1318 q 5 1338 -17 1336 q 47 1330 27 1340 q 96 1285 81 1313 q 109 1223 110 1256 q 95 1156 108 1190 q 62 1095 82 1122 q 29 1062 49 1077 q -14 1034 9 1047 q -59 1011 -36 1021 q -102 993 -82 1001 q -139 980 -122 985 q -164 973 -155 975 q -164 973 -164 973 q -165 972 -165 972 l -181 1024 z "},"ﹺ":{"ha":0,"x_min":-158,"x_max":158,"o":"m -158 -292 l 158 -174 l 158 -232 l -158 -350 l -158 -292 z "},"ﹼ":{"ha":0,"x_min":-196,"x_max":189,"o":"m -82 1071 q -166 1100 -136 1071 q -196 1182 -196 1129 l -196 1253 l -145 1253 l -145 1182 q -130 1136 -145 1150 q -82 1121 -116 1121 q -68 1123 -78 1121 q -51 1131 -59 1125 q -35 1149 -42 1137 q -28 1182 -28 1162 l -29 1253 l 23 1253 l 23 1182 q 38 1135 23 1150 q 86 1121 52 1121 q 100 1123 92 1121 q 117 1132 109 1125 q 132 1150 126 1138 q 138 1182 138 1162 q 136 1205 138 1192 q 131 1233 134 1219 q 125 1259 128 1247 q 120 1278 122 1271 q 144 1287 132 1282 q 167 1295 156 1291 q 173 1277 169 1290 q 180 1247 176 1263 q 187 1213 184 1230 q 189 1182 189 1196 q 180 1132 189 1153 q 156 1097 171 1111 q 123 1077 141 1083 q 85 1070 104 1070 q 34 1079 57 1070 q -3 1105 12 1088 q -40 1079 -20 1087 q -82 1071 -61 1071 z "},"ﹾ":{"ha":0,"x_min":-142,"x_max":142,"o":"m -91 1191 q -84 1155 -91 1172 q -64 1127 -76 1139 q -35 1107 -52 1114 q 0 1100 -19 1100 q 35 1107 19 1100 q 64 1127 52 1114 q 84 1155 76 1139 q 91 1191 91 1172 q 84 1226 91 1210 q 64 1255 76 1242 q 35 1274 52 1267 q 0 1282 19 1282 q -35 1274 -19 1282 q -64 1255 -52 1267 q -84 1226 -76 1242 q -91 1191 -91 1210 m -142 1190 q -131 1246 -142 1220 q -101 1291 -120 1271 q -56 1322 -81 1311 q -1 1333 -30 1333 q 55 1322 29 1333 q 100 1291 81 1311 q 131 1246 120 1271 q 142 1190 142 1220 q 131 1135 142 1161 q 100 1090 120 1109 q 55 1060 81 1071 q -1 1049 29 1049 q -56 1060 -30 1049 q -101 1090 -81 1071 q -131 1135 -120 1109 q -142 1190 -142 1161 z "},"ﱞ":{"ha":0,"x_min":-261,"x_max":189,"o":"m -82 1071 q -166 1100 -136 1071 q -196 1182 -196 1129 l -196 1253 l -145 1253 l -145 1182 q -130 1136 -145 1150 q -82 1121 -116 1121 q -68 1123 -78 1121 q -51 1131 -59 1125 q -35 1149 -42 1137 q -28 1182 -28 1162 l -29 1253 l 23 1253 l 23 1182 q 38 1135 23 1150 q 86 1121 52 1121 q 100 1123 92 1121 q 117 1132 109 1125 q 132 1150 126 1138 q 138 1182 138 1162 q 136 1205 138 1192 q 131 1233 134 1219 q 125 1259 128 1247 q 120 1278 122 1271 q 144 1287 132 1282 q 167 1295 156 1291 q 173 1277 169 1290 q 180 1247 176 1263 q 187 1213 184 1230 q 189 1182 189 1196 q 180 1132 189 1153 q 156 1097 171 1111 q 123 1077 141 1083 q 85 1070 104 1070 q 34 1079 57 1070 q -3 1105 12 1088 q -40 1079 -20 1087 q -82 1071 -61 1071 m 37 1654 q 1 1644 21 1654 q -28 1616 -19 1633 q -29 1608 -28 1615 q -27 1592 -30 1602 q -15 1572 -23 1583 q 12 1551 -6 1561 q 19 1547 15 1549 q 30 1542 23 1545 q 45 1535 36 1539 q 69 1524 54 1530 q 83 1573 80 1545 q 78 1623 86 1600 q 62 1645 73 1636 q 37 1654 52 1654 m -160 1387 q -150 1405 -156 1394 q -141 1429 -145 1417 q -138 1455 -138 1442 q -146 1478 -138 1468 q -165 1490 -153 1487 q -190 1490 -177 1492 q -214 1483 -203 1488 q -229 1473 -225 1478 l -261 1509 q -252 1518 -259 1512 q -232 1531 -244 1525 q -202 1542 -219 1537 q -167 1546 -186 1547 q -123 1532 -140 1545 q -98 1498 -106 1518 q -90 1455 -90 1479 q -97 1408 -90 1431 q -28 1437 -64 1419 q 37 1480 7 1454 q 10 1492 22 1487 q -11 1503 -1 1497 q -50 1529 -35 1514 q -73 1563 -65 1545 q -80 1599 -80 1580 q -71 1635 -79 1617 q -46 1670 -62 1654 q -10 1696 -30 1686 q 32 1707 10 1705 q 74 1699 54 1708 q 123 1653 109 1682 q 136 1592 137 1625 q 122 1525 135 1559 q 90 1464 109 1491 q 37 1416 69 1437 q -28 1380 4 1395 q -89 1357 -61 1366 q -129 1344 -117 1348 l -160 1387 z "},"ﱟ":{"ha":0,"x_min":-114,"x_max":272,"o":"m 1 1110 q -83 1139 -53 1110 q -113 1222 -113 1169 l -114 1292 l -62 1292 l -62 1222 q -47 1175 -62 1189 q 1 1160 -33 1160 q 14 1162 5 1160 q 32 1170 23 1164 q 48 1188 41 1176 q 54 1222 54 1201 l 54 1292 l 106 1292 l 106 1222 q 121 1175 106 1189 q 169 1160 135 1160 q 183 1162 174 1160 q 200 1171 191 1164 q 215 1189 208 1177 q 221 1222 221 1201 q 219 1245 221 1231 q 214 1272 217 1258 q 208 1298 211 1286 q 203 1318 205 1311 q 227 1326 215 1321 q 250 1334 239 1330 q 255 1316 252 1329 q 263 1286 259 1302 q 269 1252 266 1270 q 272 1222 272 1235 q 263 1171 272 1193 q 239 1136 254 1150 q 205 1116 224 1122 q 168 1109 187 1109 q 117 1118 140 1109 q 80 1144 95 1128 q 42 1118 63 1126 q 1 1110 21 1110 m -63 791 l 254 908 l 254 851 l -63 733 l -63 791 m -63 937 l 254 1055 l 254 997 l -63 879 l -63 937 z "},"ﱠ":{"ha":0,"x_min":-196,"x_max":189,"o":"m -82 1071 q -166 1100 -136 1071 q -196 1182 -196 1129 l -196 1253 l -145 1253 l -145 1182 q -130 1136 -145 1150 q -82 1121 -116 1121 q -68 1123 -78 1121 q -51 1131 -59 1125 q -35 1149 -42 1137 q -28 1182 -28 1162 l -29 1253 l 23 1253 l 23 1182 q 38 1135 23 1150 q 86 1121 52 1121 q 100 1123 92 1121 q 117 1132 109 1125 q 132 1150 126 1138 q 138 1182 138 1162 q 136 1205 138 1192 q 131 1233 134 1219 q 125 1259 128 1247 q 120 1278 122 1271 q 144 1287 132 1282 q 167 1295 156 1291 q 173 1277 169 1290 q 180 1247 176 1263 q 187 1213 184 1230 q 189 1182 189 1196 q 180 1132 189 1153 q 156 1097 171 1111 q 123 1077 141 1083 q 85 1070 104 1070 q 34 1079 57 1070 q -3 1105 12 1088 q -40 1079 -20 1087 q -82 1071 -61 1071 m -172 1389 l 145 1506 l 145 1449 l -172 1331 l -172 1389 z "},"ﱡ":{"ha":0,"x_min":-196,"x_max":189,"o":"m -82 1071 q -166 1100 -136 1071 q -196 1182 -196 1129 l -196 1253 l -145 1253 l -145 1182 q -130 1136 -145 1150 q -82 1121 -116 1121 q -68 1123 -78 1121 q -51 1131 -59 1125 q -35 1149 -42 1137 q -28 1182 -28 1162 l -29 1253 l 23 1253 l 23 1182 q 38 1135 23 1150 q 86 1121 52 1121 q 100 1123 92 1121 q 117 1132 109 1125 q 132 1150 126 1138 q 138 1182 138 1162 q 136 1205 138 1192 q 131 1233 134 1219 q 125 1259 128 1247 q 120 1278 122 1271 q 144 1287 132 1282 q 167 1295 156 1291 q 173 1277 169 1290 q 180 1247 176 1263 q 187 1213 184 1230 q 189 1182 189 1196 q 180 1132 189 1153 q 156 1097 171 1111 q 123 1077 141 1083 q 85 1070 104 1070 q 34 1079 57 1070 q -3 1105 12 1088 q -40 1079 -20 1087 q -82 1071 -61 1071 m 10 1631 q -26 1620 -6 1631 q -55 1593 -46 1610 q -56 1585 -56 1592 q -54 1569 -57 1578 q -42 1548 -51 1559 q -15 1528 -33 1537 q -8 1524 -12 1526 q 3 1519 -4 1521 q 18 1511 9 1516 q 42 1501 27 1507 q 56 1549 52 1522 q 51 1600 59 1576 q 35 1622 45 1612 q 10 1631 25 1631 m -181 1369 l -172 1372 q -132 1384 -155 1377 q -85 1401 -109 1391 q -35 1425 -60 1412 q 9 1457 -11 1439 q -17 1469 -5 1464 q -39 1479 -28 1474 q -77 1506 -62 1491 q -100 1539 -92 1521 q -107 1575 -107 1557 q -98 1612 -106 1594 q -73 1647 -89 1631 q -37 1672 -57 1663 q 5 1683 -17 1682 q 47 1676 27 1685 q 96 1630 81 1658 q 109 1568 110 1602 q 95 1502 108 1535 q 62 1441 82 1468 q 29 1407 49 1422 q -14 1379 9 1392 q -59 1356 -36 1366 q -102 1338 -82 1346 q -139 1326 -122 1331 q -164 1318 -155 1321 q -164 1318 -164 1318 q -165 1318 -165 1318 l -181 1369 z "},"ﱢ":{"ha":0,"x_min":-124,"x_max":261,"o":"m -10 1085 q -94 1115 -64 1085 q -124 1197 -124 1144 l -124 1268 l -73 1268 l -73 1197 q -58 1150 -73 1165 q -10 1136 -44 1136 q 3 1138 -6 1136 q 21 1146 13 1140 q 37 1164 30 1152 q 44 1197 44 1176 l 43 1268 l 95 1268 l 95 1197 q 110 1150 95 1165 q 158 1135 124 1135 q 172 1137 164 1135 q 189 1146 181 1140 q 204 1165 198 1153 q 210 1197 210 1177 q 208 1220 210 1206 q 203 1247 206 1234 q 197 1274 200 1261 q 192 1293 194 1286 q 216 1301 204 1297 q 239 1309 228 1306 q 245 1291 241 1304 q 252 1261 248 1278 q 259 1228 256 1245 q 261 1197 261 1210 q 252 1147 261 1168 q 228 1112 243 1126 q 195 1091 213 1098 q 157 1085 176 1085 q 106 1094 129 1085 q 69 1119 84 1103 q 32 1093 52 1102 q -10 1085 11 1085 m -76 910 l 241 1027 l 241 970 l -76 852 l -76 910 z "},"ﱣ":{"ha":0,"x_min":-196,"x_max":189,"o":"m -82 1071 q -166 1100 -136 1071 q -196 1182 -196 1129 l -196 1253 l -145 1253 l -145 1182 q -130 1136 -145 1150 q -82 1121 -116 1121 q -68 1123 -78 1121 q -51 1131 -59 1125 q -35 1149 -42 1137 q -28 1182 -28 1162 l -29 1253 l 23 1253 l 23 1182 q 38 1135 23 1150 q 86 1121 52 1121 q 100 1123 92 1121 q 117 1132 109 1125 q 132 1150 126 1138 q 138 1182 138 1162 q 136 1205 138 1192 q 131 1233 134 1219 q 125 1259 128 1247 q 120 1278 122 1271 q 144 1287 132 1282 q 167 1295 156 1291 q 173 1277 169 1290 q 180 1247 176 1263 q 187 1213 184 1230 q 189 1182 189 1196 q 180 1132 189 1153 q 156 1097 171 1111 q 123 1077 141 1083 q 85 1070 104 1070 q 34 1079 57 1070 q -3 1105 12 1088 q -40 1079 -20 1087 q -82 1071 -61 1071 m -31 1634 l 30 1634 l 30 1372 l -31 1372 l -31 1634 z "}}}
